<?xml version="1.0" encoding="utf-8"?>
<!-- Generator: Adobe Illustrator 26.5.1, SVG Export Plug-In . SVG Version: 6.00 Build 0)  -->
<svg version="1.1" id="圖層_1" xmlns="http://www.w3.org/2000/svg" xmlns:xlink="http://www.w3.org/1999/xlink" x="0px" y="0px"
	 viewBox="0 0 1920 1080" style="enable-background:new 0 0 1920 1080;" xml:space="preserve">
<style type="text/css">
	.st0{fill:#7767DD;}
	.st1{fill:#7667DD;}
	.st2{fill:#7668DE;}
	.st3{fill:#647FE5;}
	.st4{fill:#6380E6;}
	.st5{fill:#6281E6;}
	.st6{fill:#6282E6;}
	.st7{fill:#6182E6;}
	.st8{fill:#6183E7;}
	.st9{fill:#6083E7;}
	.st10{fill:#6084E7;}
	.st11{fill:#5F84E7;}
	.st12{fill:#5F85E7;}
	.st13{fill:#5E86E8;}
	.st14{fill:#5E87E8;}
	.st15{fill:#5D87E8;}
	.st16{fill:#5D88E8;}
	.st17{fill:#5C88E8;}
	.st18{fill:#5C89E9;}
	.st19{fill:#5B8AE9;}
	.st20{fill:#5B8BE9;}
	.st21{fill:#5A8BE9;}
	.st22{fill:#5A8CEA;}
	.st23{fill:#598CEA;}
	.st24{fill:#598DEA;}
	.st25{fill:#588DEA;}
	.st26{fill:#588EEA;}
	.st27{fill:#578FEB;}
	.st28{fill:#5790EB;}
	.st29{fill:#5690EB;}
	.st30{fill:#5691EB;}
	.st31{fill:#5591EB;}
	.st32{fill:#5592EC;}
	.st33{fill:#5492EC;}
	.st34{fill:#5493EC;}
	.st35{fill:#5394EC;}
	.st36{fill:#5395ED;}
	.st37{fill:#5295ED;}
	.st38{fill:#5296ED;}
	.st39{fill:#5196ED;}
	.st40{fill:#5197ED;}
	.st41{fill:#5098EE;}
	.st42{fill:#5099EE;}
	.st43{fill:#4F99EE;}
	.st44{fill:#4F9AEE;}
	.st45{fill:#4E9AEE;}
	.st46{fill:#4E9BEF;}
	.st47{fill:#4D9BEF;}
	.st48{fill:#4D9CEF;}
	.st49{fill:#4C9DEF;}
	.st50{fill:#4B9EF0;}
	.st51{fill:#4B9FF0;}
	.st52{fill:#4A9FF0;}
	.st53{fill:#4AA0F0;}
	.st54{fill:#49A0F0;}
	.st55{fill:#49A1F1;}
	.st56{fill:#49A2F1;}
	.st57{fill:#48A2F1;}
	.st58{fill:#48A3F1;}
	.st59{fill:#47A3F1;}
	.st60{fill:#47A4F2;}
	.st61{fill:#46A4F2;}
	.st62{fill:#46A5F2;}
	.st63{fill:#45A6F2;}
	.st64{fill:#44A7F3;}
	.st65{fill:#44A8F3;}
	.st66{fill:#43A8F3;}
	.st67{fill:#43A9F3;}
	.st68{fill:#42A9F3;}
	.st69{fill:#42AAF4;}
	.st70{fill:#41AAF4;}
	.st71{fill:#41ABF4;}
	.st72{fill:#40ACF4;}
	.st73{fill:#40ADF5;}
	.st74{fill:#3FADF5;}
	.st75{fill:#3FAEF5;}
	.st76{fill:#3EAFF5;}
	.st77{fill:#3DB0F6;}
	.st78{fill:#3DB1F6;}
	.st79{fill:#3CB1F6;}
	.st80{fill:#3CB2F6;}
	.st81{fill:#3BB2F6;}
	.st82{fill:#3BB3F7;}
	.st83{fill:#3AB3F7;}
	.st84{fill:#3AB4F7;}
	.st85{fill:#39B5F7;}
	.st86{fill:#39B6F8;}
	.st87{fill:#38B6F8;}
	.st88{fill:#38B7F8;}
	.st89{fill:#37B7F8;}
	.st90{fill:#37B8F8;}
	.st91{fill:#36B8F8;}
	.st92{fill:#36B9F9;}
	.st93{fill:#36BAF9;}
	.st94{fill:#35BAF9;}
	.st95{fill:#35BBF9;}
	.st96{fill:#34BBF9;}
	.st97{fill:#34BCFA;}
	.st98{fill:#33BCFA;}
	.st99{fill:#33BDFA;}
	.st100{fill:#32BEFA;}
	.st101{fill:#32BFFB;}
	.st102{fill:#31BFFB;}
	.st103{fill:#31C0FB;}
	.st104{fill:#30C0FB;}
	.st105{fill:#30C1FB;}
	.st106{fill:#2FC1FB;}
	.st107{fill:#2FC2FC;}
	.st108{fill:#2EC3FC;}
	.st109{fill:#2DC4FC;}
	.st110{fill:#2DC5FD;}
	.st111{fill:#2CC5FD;}
	.st112{fill:#2CC6FD;}
	.st113{fill:#2BC7FD;}
	.st114{fill:#2BC8FE;}
	.st115{fill:#2AC8FE;}
	.st116{fill:#2AC9FE;}
	.st117{fill:#29C9FE;}
	.st118{fill:#29CAFE;}
	.st119{fill:#28CAFE;}
	.st120{fill:#28CBFF;}
	.st121{fill:#27CCFF;}
</style>
<g>
	<circle class="st0" cx="524.7" cy="672.9" r="29.2"/>
	<circle class="st1" cx="534.2" cy="666.1" r="29.4"/>
	<circle class="st2" cx="543.6" cy="659.1" r="29.5"/>
	<circle class="st3" cx="516" cy="302.6" r="40"/>
	<circle class="st4" cx="510" cy="312.8" r="40.1"/>
	<circle class="st4" cx="504.7" cy="323.2" r="40.3"/>
	<circle class="st4" cx="499.7" cy="333.7" r="40.5"/>
	<circle class="st5" cx="495.1" cy="344.5" r="40.7"/>
	<circle class="st5" cx="490.9" cy="355.3" r="40.9"/>
	<circle class="st6" cx="487.1" cy="366.4" r="41.1"/>
	<circle class="st7" cx="483.7" cy="377.5" r="41.2"/>
	<circle class="st7" cx="480.6" cy="388.8" r="41.4"/>
	<circle class="st8" cx="478" cy="400.1" r="41.6"/>
	<circle class="st9" cx="475.8" cy="411.6" r="41.8"/>
	<circle class="st10" cx="473.9" cy="423.1" r="42"/>
	<circle class="st10" cx="472.5" cy="434.7" r="42.2"/>
	<circle class="st11" cx="471.5" cy="446.3" r="42.3"/>
	<circle class="st12" cx="470.8" cy="458" r="42.5"/>
	<circle class="st12" cx="470.6" cy="469.6" r="42.7"/>
	<circle class="st13" cx="470.7" cy="481.3" r="42.9"/>
	<circle class="st13" cx="471.3" cy="493" r="43.1"/>
	<circle class="st14" cx="472.3" cy="504.6" r="43.2"/>
	<circle class="st15" cx="473.6" cy="516.2" r="43.4"/>
	<circle class="st15" cx="475.4" cy="527.7" r="43.6"/>
	<circle class="st16" cx="477.6" cy="539.1" r="43.8"/>
	<circle class="st17" cx="480.2" cy="550.5" r="44"/>
	<circle class="st18" cx="483.2" cy="561.8" r="44.2"/>
	<circle class="st18" cx="486.6" cy="572.9" r="44.3"/>
	<circle class="st18" cx="490.4" cy="584" r="44.5"/>
	<circle class="st19" cx="494.6" cy="594.8" r="44.7"/>
	<circle class="st19" cx="499.2" cy="605.6" r="44.9"/>
	<circle class="st20" cx="504.2" cy="616.1" r="45.1"/>
	<circle class="st21" cx="509.6" cy="626.4" r="45.3"/>
	<circle class="st21" cx="515.4" cy="636.6" r="45.4"/>
	<circle class="st22" cx="521.5" cy="646.5" r="45.6"/>
	<circle class="st23" cx="527.9" cy="656.2" r="45.8"/>
	<circle class="st24" cx="534.7" cy="665.7" r="46"/>
	<circle class="st24" cx="541.9" cy="674.9" r="46.2"/>
	<circle class="st25" cx="549.3" cy="683.9" r="46.4"/>
	<circle class="st26" cx="557" cy="692.6" r="46.5"/>
	<circle class="st26" cx="565.1" cy="701.1" r="46.7"/>
	<circle class="st27" cx="573.4" cy="709.3" r="46.9"/>
	<circle class="st27" cx="582" cy="717.2" r="47.1"/>
	<circle class="st28" cx="590.9" cy="724.7" r="47.3"/>
	<circle class="st29" cx="600" cy="732" r="47.5"/>
	<circle class="st29" cx="609.4" cy="739" r="47.6"/>
	<circle class="st30" cx="619" cy="745.6" r="47.8"/>
	<circle class="st31" cx="628.8" cy="751.9" r="48"/>
	<circle class="st32" cx="638.9" cy="757.8" r="48.2"/>
	<circle class="st32" cx="649.1" cy="763.4" r="48.4"/>
	<circle class="st33" cx="659.5" cy="768.6" r="48.5"/>
	<circle class="st34" cx="670.1" cy="773.4" r="48.7"/>
	<circle class="st34" cx="680.9" cy="777.8" r="48.9"/>
	<circle class="st35" cx="691.9" cy="781.9" r="49.1"/>
	<circle class="st35" cx="703" cy="785.5" r="49.3"/>
	<circle class="st35" cx="714.1" cy="788.7" r="49.5"/>
	<circle class="st36" cx="725.3" cy="791.5" r="49.6"/>
	<circle class="st37" cx="736.6" cy="794" r="49.8"/>
	<circle class="st38" cx="747.9" cy="796" r="50"/>
	<circle class="st38" cx="759.2" cy="797.7" r="50.2"/>
	<circle class="st39" cx="770.6" cy="799.1" r="50.4"/>
	<circle class="st40" cx="782.1" cy="800.1" r="50.6"/>
	<circle class="st40" cx="793.5" cy="800.7" r="50.7"/>
	<circle class="st41" cx="805" cy="801" r="50.9"/>
	<circle class="st41" cx="816.5" cy="801" r="51.1"/>
	<circle class="st42" cx="828.1" cy="800.6" r="51.3"/>
	<circle class="st43" cx="839.6" cy="800" r="51.5"/>
	<circle class="st43" cx="851.1" cy="799" r="51.7"/>
	<circle class="st44" cx="862.7" cy="797.8" r="51.8"/>
	<circle class="st45" cx="874.2" cy="796.2" r="52"/>
	<circle class="st46" cx="885.7" cy="794.4" r="52.2"/>
	<circle class="st46" cx="897.2" cy="792.3" r="52.4"/>
	<circle class="st47" cx="908.7" cy="790" r="52.6"/>
	<circle class="st48" cx="920.1" cy="787.4" r="52.8"/>
	<circle class="st48" cx="931.5" cy="784.5" r="52.9"/>
	<circle class="st49" cx="942.9" cy="781.5" r="53.1"/>
	<circle class="st49" cx="954.2" cy="778.1" r="53.3"/>
	<circle class="st49" cx="965.5" cy="774.6" r="53.5"/>
	<circle class="st50" cx="976.7" cy="770.9" r="53.7"/>
	<circle class="st50" cx="987.9" cy="766.9" r="53.8"/>
	<circle class="st51" cx="999" cy="762.8" r="54"/>
	<circle class="st52" cx="1010" cy="758.5" r="54.2"/>
	<circle class="st52" cx="1020.9" cy="754" r="54.4"/>
	<circle class="st53" cx="1031.8" cy="749.3" r="54.6"/>
	<circle class="st54" cx="1042.5" cy="744.4" r="54.8"/>
	<circle class="st55" cx="1053.2" cy="739.4" r="54.9"/>
	<circle class="st55" cx="1063.8" cy="734.3" r="55.1"/>
	<circle class="st56" cx="1074.2" cy="729" r="55.3"/>
	<circle class="st57" cx="1084.6" cy="723.6" r="55.5"/>
	<circle class="st57" cx="1094.9" cy="718.1" r="55.7"/>
	<circle class="st58" cx="1105.1" cy="712.5" r="55.9"/>
	<circle class="st59" cx="1115.2" cy="706.7" r="56"/>
	<circle class="st60" cx="1125.3" cy="700.9" r="56.2"/>
	<circle class="st60" cx="1135.3" cy="695" r="56.4"/>
	<circle class="st61" cx="1145.3" cy="689" r="56.6"/>
	<circle class="st62" cx="1155.3" cy="682.9" r="56.8"/>
	<circle class="st62" cx="1165.2" cy="676.8" r="57"/>
	<circle class="st63" cx="1175.1" cy="670.6" r="57.1"/>
	<circle class="st63" cx="1184.9" cy="664.3" r="57.3"/>
	<circle class="st63" cx="1194.8" cy="658" r="57.5"/>
	<circle class="st64" cx="1204.6" cy="651.7" r="57.7"/>
	<circle class="st64" cx="1214.3" cy="645.3" r="57.9"/>
	<circle class="st65" cx="1224.1" cy="638.9" r="58.1"/>
	<circle class="st66" cx="1233.8" cy="632.5" r="58.2"/>
	<circle class="st66" cx="1243.6" cy="626" r="58.4"/>
	<circle class="st67" cx="1253.3" cy="619.6" r="58.6"/>
	<circle class="st68" cx="1263.1" cy="613.1" r="58.8"/>
	<circle class="st69" cx="1272.8" cy="606.7" r="59"/>
	<circle class="st69" cx="1282.6" cy="600.3" r="59.2"/>
	<circle class="st70" cx="1292.3" cy="593.9" r="59.3"/>
	<circle class="st71" cx="1302.1" cy="587.5" r="59.5"/>
	<circle class="st71" cx="1311.9" cy="581.2" r="59.7"/>
	<circle class="st72" cx="1321.7" cy="574.9" r="59.9"/>
	<circle class="st72" cx="1331.6" cy="568.6" r="60.1"/>
	<circle class="st73" cx="1341.5" cy="562.5" r="60.2"/>
	<circle class="st74" cx="1351.4" cy="556.3" r="60.4"/>
	<circle class="st74" cx="1361.3" cy="550.3" r="60.6"/>
	<circle class="st75" cx="1371.4" cy="544.3" r="60.8"/>
	<circle class="st75" cx="1381.4" cy="538.4" r="61"/>
	<circle class="st76" cx="1391.5" cy="532.6" r="61.2"/>
	<circle class="st76" cx="1401.7" cy="526.9" r="61.3"/>
	<circle class="st76" cx="1411.9" cy="521.3" r="61.5"/>
	<circle class="st77" cx="1422.2" cy="515.8" r="61.7"/>
	<circle class="st77" cx="1433" cy="510.1" r="61.9"/>
	<circle class="st78" cx="1444" cy="504.6" r="62.1"/>
	<circle class="st79" cx="1454.9" cy="499.2" r="62.3"/>
	<circle class="st79" cx="1465.8" cy="494" r="62.4"/>
	<circle class="st80" cx="1476.8" cy="488.9" r="62.6"/>
	<circle class="st81" cx="1487.8" cy="484" r="62.8"/>
	<circle class="st82" cx="1498.8" cy="479.2" r="63"/>
	<circle class="st82" cx="1509.8" cy="474.5" r="63.2"/>
	<circle class="st83" cx="1520.8" cy="470" r="63.4"/>
	<circle class="st84" cx="1531.9" cy="465.6" r="63.5"/>
	<circle class="st84" cx="1542.9" cy="461.4" r="63.7"/>
	<circle class="st85" cx="1554" cy="457.3" r="63.9"/>
	<circle class="st85" cx="1565.1" cy="453.4" r="64.1"/>
	<circle class="st86" cx="1576.1" cy="449.6" r="64.3"/>
	<circle class="st87" cx="1587.3" cy="446" r="64.5"/>
	<circle class="st87" cx="1598.4" cy="442.5" r="64.6"/>
	<circle class="st88" cx="1609.5" cy="439.1" r="64.8"/>
	<circle class="st89" cx="1620.6" cy="435.9" r="65"/>
	<circle class="st90" cx="1631.8" cy="432.9" r="65.2"/>
	<circle class="st90" cx="1642.9" cy="430" r="65.4"/>
	<circle class="st91" cx="1654.1" cy="427.2" r="65.5"/>
	<circle class="st92" cx="1665.3" cy="424.6" r="65.7"/>
	<circle class="st92" cx="1676.5" cy="422.1" r="65.9"/>
	<circle class="st93" cx="1687.7" cy="419.8" r="66.1"/>
	<circle class="st94" cx="1698.9" cy="417.6" r="66.3"/>
	<circle class="st94" cx="1710.2" cy="415.6" r="66.5"/>
	<circle class="st95" cx="1721.4" cy="413.7" r="66.6"/>
	<circle class="st96" cx="1732.6" cy="412" r="66.8"/>
	<circle class="st97" cx="1743.9" cy="410.4" r="67"/>
	<circle class="st97" cx="1755.2" cy="408.9" r="67.2"/>
	<circle class="st98" cx="1766.4" cy="407.6" r="67.4"/>
	<circle class="st99" cx="1777.7" cy="406.5" r="67.6"/>
	<circle class="st99" cx="1789" cy="405.5" r="67.7"/>
	<circle class="st100" cx="1800.3" cy="404.6" r="67.9"/>
	<circle class="st100" cx="1811.6" cy="403.9" r="68.1"/>
	<circle class="st101" cx="1823" cy="403.4" r="68.3"/>
	<circle class="st102" cx="1834.3" cy="403" r="68.5"/>
	<circle class="st102" cx="1845.6" cy="402.7" r="68.7"/>
	<circle class="st103" cx="1857" cy="402.6" r="68.8"/>
	<circle class="st104" cx="1868.3" cy="402.6" r="69"/>
	<circle class="st105" cx="1879.7" cy="402.8" r="69.2"/>
	<circle class="st105" cx="1891" cy="403.1" r="69.4"/>
	<circle class="st106" cx="1902.4" cy="403.6" r="69.6"/>
	<circle class="st107" cx="1913.8" cy="404.3" r="69.8"/>
	<circle class="st107" cx="1925.2" cy="405" r="69.9"/>
	<circle class="st108" cx="1936.6" cy="406" r="70.1"/>
	<circle class="st108" cx="1948" cy="407" r="70.3"/>
	<circle class="st108" cx="1959.4" cy="408.3" r="70.5"/>
	<circle class="st109" cx="1970.8" cy="409.6" r="70.7"/>
	<circle class="st109" cx="1982.2" cy="411.2" r="70.8"/>
	<circle class="st110" cx="1993.6" cy="412.8" r="71"/>
	<circle class="st111" cx="2005" cy="414.7" r="71.2"/>
	<circle class="st111" cx="2016.5" cy="416.6" r="71.4"/>
	<circle class="st112" cx="2027.9" cy="418.8" r="71.6"/>
	<circle class="st112" cx="2039.3" cy="421" r="71.8"/>
	<circle class="st113" cx="2050.8" cy="423.4" r="71.9"/>
	<circle class="st113" cx="2062.2" cy="426" r="72.1"/>
	<circle class="st114" cx="2073.7" cy="428.7" r="72.3"/>
	<circle class="st115" cx="2085.1" cy="431.6" r="72.5"/>
	<circle class="st115" cx="2096.6" cy="434.6" r="72.7"/>
	<circle class="st116" cx="2108.1" cy="437.8" r="72.9"/>
	<circle class="st117" cx="2119.5" cy="441.1" r="73"/>
	<circle class="st118" cx="2131" cy="444.6" r="73.2"/>
	<circle class="st118" cx="2142.5" cy="448.2" r="73.4"/>
	<circle class="st119" cx="2153.9" cy="452" r="73.6"/>
	<circle class="st120" cx="2165.4" cy="455.9" r="73.8"/>
	<circle class="st120" cx="2176.9" cy="460" r="74"/>
	<circle class="st121" cx="2188.3" cy="464.3" r="74.1"/>
	<circle class="st121" cx="2199.8" cy="468.6" r="74.3"/>
</g>
</svg>
