<?xml version="1.0" encoding="utf-8"?>
<!-- Generator: Adobe Illustrator 26.5.1, SVG Export Plug-In . SVG Version: 6.00 Build 0)  -->
<svg version="1.1" id="圖層_1" xmlns="http://www.w3.org/2000/svg" xmlns:xlink="http://www.w3.org/1999/xlink" x="0px" y="0px"
	 viewBox="0 0 1920 1080" style="enable-background:new 0 0 1920 1080;" xml:space="preserve">
<style type="text/css">
	.st0{fill:#8851D6;}
	.st1{fill:#8752D6;}
	.st2{fill:#8753D7;}
	.st3{fill:#8653D7;}
	.st4{fill:#8654D7;}
	.st5{fill:#8554D7;}
	.st6{fill:#8555D7;}
	.st7{fill:#8455D7;}
	.st8{fill:#8456D8;}
	.st9{fill:#8357D8;}
	.st10{fill:#8358D8;}
	.st11{fill:#8258D8;}
	.st12{fill:#8259D9;}
	.st13{fill:#815AD9;}
	.st14{fill:#805BD9;}
	.st15{fill:#805CDA;}
	.st16{fill:#7F5CDA;}
	.st17{fill:#7F5DDA;}
	.st18{fill:#7E5DDA;}
	.st19{fill:#7E5EDA;}
	.st20{fill:#7D5EDA;}
	.st21{fill:#7D5FDB;}
	.st22{fill:#7C60DB;}
	.st23{fill:#7C61DB;}
	.st24{fill:#7B61DB;}
	.st25{fill:#7B62DC;}
	.st26{fill:#7A62DC;}
	.st27{fill:#7A63DC;}
	.st28{fill:#7963DC;}
	.st29{fill:#7964DC;}
	.st30{fill:#7965DD;}
	.st31{fill:#7865DD;}
	.st32{fill:#7866DD;}
	.st33{fill:#7766DD;}
	.st34{fill:#7767DD;}
	.st35{fill:#7667DD;}
	.st36{fill:#7668DE;}
	.st37{fill:#7569DE;}
	.st38{fill:#756ADE;}
	.st39{fill:#746ADE;}
	.st40{fill:#746BDF;}
	.st41{fill:#736BDF;}
	.st42{fill:#736CDF;}
	.st43{fill:#726CDF;}
	.st44{fill:#726DDF;}
	.st45{fill:#716EE0;}
	.st46{fill:#706FE0;}
	.st47{fill:#7070E0;}
	.st48{fill:#6F70E0;}
	.st49{fill:#6F71E1;}
	.st50{fill:#6E72E1;}
	.st51{fill:#6E73E1;}
	.st52{fill:#6D73E1;}
	.st53{fill:#6D74E2;}
	.st54{fill:#6C74E2;}
	.st55{fill:#6C75E2;}
	.st56{fill:#6B75E2;}
	.st57{fill:#6B76E2;}
	.st58{fill:#6A77E3;}
	.st59{fill:#6978E3;}
	.st60{fill:#6979E3;}
	.st61{fill:#6879E3;}
	.st62{fill:#687AE4;}
	.st63{fill:#677AE4;}
	.st64{fill:#677BE4;}
	.st65{fill:#667BE4;}
	.st66{fill:#667CE4;}
	.st67{fill:#667DE5;}
	.st68{fill:#657DE5;}
	.st69{fill:#657EE5;}
	.st70{fill:#647EE5;}
	.st71{fill:#647FE5;}
	.st72{fill:#6380E6;}
	.st73{fill:#6281E6;}
	.st74{fill:#6282E6;}
	.st75{fill:#6182E6;}
	.st76{fill:#6183E7;}
	.st77{fill:#6083E7;}
	.st78{fill:#6084E7;}
	.st79{fill:#5F84E7;}
</style>
<g>
	<circle class="st0" cx="-57.8" cy="620.8" r="19.3"/>
	<circle class="st0" cx="-49.2" cy="627.9" r="19.5"/>
	<circle class="st1" cx="-40.3" cy="635" r="19.7"/>
	<circle class="st1" cx="-31.3" cy="641.9" r="19.8"/>
	<circle class="st2" cx="-22" cy="648.7" r="20"/>
	<circle class="st3" cx="-12.5" cy="655.4" r="20.2"/>
	<circle class="st3" cx="-2.9" cy="661.9" r="20.4"/>
	<circle class="st4" cx="6.9" cy="668.3" r="20.6"/>
	<circle class="st5" cx="16.9" cy="674.5" r="20.8"/>
	<circle class="st6" cx="27.1" cy="680.5" r="20.9"/>
	<circle class="st6" cx="37.4" cy="686.4" r="21.1"/>
	<circle class="st7" cx="47.8" cy="692.1" r="21.3"/>
	<circle class="st8" cx="58.3" cy="697.5" r="21.5"/>
	<circle class="st8" cx="69" cy="702.8" r="21.7"/>
	<circle class="st9" cx="79.8" cy="707.8" r="21.9"/>
	<circle class="st9" cx="90.7" cy="712.6" r="22"/>
	<circle class="st10" cx="101.6" cy="717.2" r="22.2"/>
	<circle class="st10" cx="112.7" cy="721.5" r="22.4"/>
	<circle class="st11" cx="123.8" cy="725.5" r="22.6"/>
	<circle class="st12" cx="135" cy="729.3" r="22.8"/>
	<circle class="st12" cx="146.2" cy="732.8" r="23"/>
	<circle class="st13" cx="157.5" cy="736" r="23.1"/>
	<circle class="st13" cx="168.8" cy="738.9" r="23.3"/>
	<circle class="st13" cx="180.1" cy="741.4" r="23.5"/>
	<circle class="st14" cx="191.4" cy="743.7" r="23.7"/>
	<circle class="st14" cx="202.8" cy="745.6" r="23.9"/>
	<circle class="st15" cx="214.1" cy="747.2" r="24.1"/>
	<circle class="st16" cx="225.4" cy="748.4" r="24.2"/>
	<circle class="st16" cx="236.8" cy="749.2" r="24.4"/>
	<circle class="st17" cx="248.4" cy="749.8" r="24.6"/>
	<circle class="st18" cx="260.1" cy="750.1" r="24.8"/>
	<circle class="st19" cx="271.7" cy="750.1" r="25"/>
	<circle class="st19" cx="283.4" cy="749.9" r="25.1"/>
	<circle class="st20" cx="295.1" cy="749.3" r="25.3"/>
	<circle class="st21" cx="306.7" cy="748.5" r="25.5"/>
	<circle class="st21" cx="318.3" cy="747.4" r="25.7"/>
	<circle class="st22" cx="329.9" cy="746" r="25.9"/>
	<circle class="st22" cx="341.5" cy="744.4" r="26.1"/>
	<circle class="st23" cx="353" cy="742.4" r="26.2"/>
	<circle class="st24" cx="364.4" cy="740.2" r="26.4"/>
	<circle class="st24" cx="375.8" cy="737.7" r="26.6"/>
	<circle class="st25" cx="387.1" cy="734.9" r="26.8"/>
	<circle class="st26" cx="398.4" cy="731.8" r="27"/>
	<circle class="st27" cx="409.6" cy="728.5" r="27.2"/>
	<circle class="st27" cx="420.6" cy="724.9" r="27.3"/>
	<circle class="st28" cx="431.6" cy="720.9" r="27.5"/>
	<circle class="st29" cx="442.5" cy="716.7" r="27.7"/>
	<circle class="st29" cx="453.2" cy="712.2" r="27.9"/>
	<circle class="st30" cx="463.9" cy="707.5" r="28.1"/>
	<circle class="st31" cx="474.4" cy="702.4" r="28.3"/>
	<circle class="st31" cx="484.8" cy="697.1" r="28.4"/>
	<circle class="st32" cx="495" cy="691.5" r="28.6"/>
	<circle class="st33" cx="505" cy="685.6" r="28.8"/>
	<circle class="st34" cx="515" cy="679.4" r="29"/>
	<circle class="st34" cx="524.7" cy="672.9" r="29.2"/>
	<circle class="st35" cx="534.2" cy="666.1" r="29.4"/>
	<circle class="st36" cx="543.6" cy="659.1" r="29.5"/>
	<circle class="st36" cx="552.7" cy="651.9" r="29.7"/>
	<circle class="st37" cx="561.6" cy="644.4" r="29.9"/>
	<circle class="st37" cx="570.4" cy="636.6" r="30.1"/>
	<circle class="st38" cx="578.9" cy="628.6" r="30.3"/>
	<circle class="st39" cx="587.1" cy="620.4" r="30.5"/>
	<circle class="st39" cx="595.2" cy="612" r="30.6"/>
	<circle class="st40" cx="603" cy="603.4" r="30.8"/>
	<circle class="st41" cx="610.6" cy="594.5" r="31"/>
	<circle class="st42" cx="618" cy="585.5" r="31.2"/>
	<circle class="st42" cx="625.1" cy="576.2" r="31.4"/>
	<circle class="st43" cx="632" cy="566.8" r="31.5"/>
	<circle class="st44" cx="638.7" cy="557.2" r="31.7"/>
	<circle class="st44" cx="645" cy="547.5" r="31.9"/>
	<circle class="st45" cx="651.2" cy="537.5" r="32.1"/>
	<circle class="st45" cx="657" cy="527.4" r="32.3"/>
	<circle class="st45" cx="662.6" cy="517.2" r="32.5"/>
	<circle class="st46" cx="667.9" cy="506.8" r="32.6"/>
	<circle class="st46" cx="673" cy="496.3" r="32.8"/>
	<circle class="st47" cx="677.8" cy="485.6" r="33"/>
	<circle class="st47" cx="682.2" cy="474.9" r="33.2"/>
	<circle class="st48" cx="686.4" cy="464" r="33.4"/>
	<circle class="st49" cx="690.3" cy="453" r="33.6"/>
	<circle class="st49" cx="693.9" cy="441.9" r="33.7"/>
	<circle class="st50" cx="697.2" cy="430.7" r="33.9"/>
	<circle class="st50" cx="700.2" cy="419.5" r="34.1"/>
	<circle class="st51" cx="702.9" cy="408.1" r="34.3"/>
	<circle class="st52" cx="705.3" cy="396.7" r="34.5"/>
	<circle class="st52" cx="707.3" cy="385.2" r="34.7"/>
	<circle class="st53" cx="708.9" cy="373.4" r="34.8"/>
	<circle class="st54" cx="709.9" cy="361.3" r="35"/>
	<circle class="st55" cx="710.2" cy="349" r="35.2"/>
	<circle class="st55" cx="709.9" cy="336.8" r="35.4"/>
	<circle class="st56" cx="708.8" cy="324.6" r="35.6"/>
	<circle class="st57" cx="707" cy="312.6" r="35.8"/>
	<circle class="st57" cx="704.4" cy="300.9" r="35.9"/>
	<circle class="st58" cx="700.9" cy="289.7" r="36.1"/>
	<circle class="st58" cx="696.6" cy="279" r="36.3"/>
	<circle class="st58" cx="691.4" cy="269" r="36.5"/>
	<circle class="st59" cx="685.2" cy="259.8" r="36.7"/>
	<circle class="st59" cx="678" cy="251.6" r="36.8"/>
	<circle class="st60" cx="669.8" cy="244.3" r="37"/>
	<circle class="st61" cx="660.5" cy="238.3" r="37.2"/>
	<circle class="st61" cx="650.1" cy="233.5" r="37.4"/>
	<circle class="st62" cx="639.1" cy="230.3" r="37.6"/>
	<circle class="st63" cx="628" cy="228.8" r="37.8"/>
	<circle class="st64" cx="617" cy="228.9" r="37.9"/>
	<circle class="st64" cx="606.2" cy="230.5" r="38.1"/>
	<circle class="st65" cx="595.5" cy="233.4" r="38.3"/>
	<circle class="st66" cx="585" cy="237.7" r="38.5"/>
	<circle class="st66" cx="574.8" cy="243" r="38.7"/>
	<circle class="st67" cx="564.9" cy="249.4" r="38.9"/>
	<circle class="st68" cx="555.4" cy="256.7" r="39"/>
	<circle class="st69" cx="546.4" cy="264.8" r="39.2"/>
	<circle class="st69" cx="537.9" cy="273.5" r="39.4"/>
	<circle class="st70" cx="530" cy="282.8" r="39.6"/>
	<circle class="st71" cx="522.6" cy="292.5" r="39.8"/>
	<circle class="st71" cx="516" cy="302.6" r="40"/>
	<circle class="st72" cx="510" cy="312.8" r="40.1"/>
	<circle class="st72" cx="504.7" cy="323.2" r="40.3"/>
	<circle class="st72" cx="499.7" cy="333.7" r="40.5"/>
	<circle class="st73" cx="495.1" cy="344.5" r="40.7"/>
	<circle class="st73" cx="490.9" cy="355.3" r="40.9"/>
	<circle class="st74" cx="487.1" cy="366.4" r="41.1"/>
	<circle class="st75" cx="483.7" cy="377.5" r="41.2"/>
	<circle class="st75" cx="480.6" cy="388.8" r="41.4"/>
	<circle class="st76" cx="478" cy="400.1" r="41.6"/>
	<circle class="st77" cx="475.8" cy="411.6" r="41.8"/>
	<circle class="st78" cx="473.9" cy="423.1" r="42"/>
	<circle class="st78" cx="472.5" cy="434.7" r="42.2"/>
	<circle class="st79" cx="471.5" cy="446.3" r="42.3"/>
</g>
</svg>
