<?xml version="1.0" encoding="utf-8"?>
<!-- Generator: Adobe Illustrator 26.5.1, SVG Export Plug-In . SVG Version: 6.00 Build 0)  -->
<svg version="1.1" id="圖層_1" xmlns="http://www.w3.org/2000/svg" xmlns:xlink="http://www.w3.org/1999/xlink" x="0px"
	y="0px" viewBox="0 0 1920 1080" style="enable-background:new 0 0 1920 1080;" xml:space="preserve">
	<style type="text/css">
		.backst0 {
			fill: #7D5FDB;
		}

		.backst1 {
			fill: #7C60DB;
		}

		.backst2 {
			fill: #6A78E3;
		}

		.backst3 {
			fill: #6978E3;
		}

		.backst4 {
			fill: #6979E3;
		}

		.backst5 {
			fill: #6879E3;
		}

		.backst6 {
			fill: #687AE4;
		}

		.backst7 {
			fill: #677AE4;
		}

		.backst8 {
			fill: #677BE4;
		}

		.backst9 {
			fill: #667CE4;
		}

		.backst10 {
			fill: #667DE5;
		}

		.backst11 {
			fill: #657DE5;
		}

		.backst12 {
			fill: #657EE5;
		}

		.backst13 {
			fill: #647EE5;
		}

		.backst14 {
			fill: #647FE5;
		}

		.backst15 {
			fill: #637FE5;
		}

		.backst16 {
			fill: #6380E6;
		}

		.backst17 {
			fill: #6381E6;
		}

		.backst18 {
			fill: #6281E6;
		}

		.backst19 {
			fill: #6282E6;
		}

		.backst20 {
			fill: #6182E6;
		}

		.backst21 {
			fill: #6183E7;
		}

		.backst22 {
			fill: #6083E7;
		}

		.backst23 {
			fill: #6084E7;
		}

		.backst24 {
			fill: #5F85E7;
		}

		.backst25 {
			fill: #5E86E8;
		}

		.backst26 {
			fill: #5E87E8;
		}

		.backst27 {
			fill: #5D87E8;
		}

		.backst28 {
			fill: #5D88E8;
		}

		.backst29 {
			fill: #5C88E8;
		}

		.backst30 {
			fill: #5C89E9;
		}

		.backst31 {
			fill: #5B89E9;
		}

		.backst32 {
			fill: #5B8AE9;
		}

		.backst33 {
			fill: #5B8BE9;
		}

		.backst34 {
			fill: #5A8BE9;
		}

		.backst35 {
			fill: #5A8CEA;
		}

		.backst36 {
			fill: #598CEA;
		}

		.backst37 {
			fill: #598DEA;
		}

		.backst38 {
			fill: #588DEA;
		}

		.backst39 {
			fill: #588EEA;
		}

		.backst40 {
			fill: #578FEB;
		}

		.backst41 {
			fill: #5790EB;
		}

		.backst42 {
			fill: #5690EB;
		}

		.backst43 {
			fill: #5691EB;
		}

		.backst44 {
			fill: #5591EB;
		}

		.backst45 {
			fill: #5592EC;
		}

		.backst46 {
			fill: #5492EC;
		}

		.backst47 {
			fill: #5493EC;
		}

		.backst48 {
			fill: #5494EC;
		}

		.backst49 {
			fill: #5394EC;
		}

		.backst50 {
			fill: #5395ED;
		}

		.backst51 {
			fill: #5295ED;
		}

		.backst52 {
			fill: #5296ED;
		}

		.backst53 {
			fill: #5196ED;
		}

		.backst54 {
			fill: #5197ED;
		}

		.backst55 {
			fill: #5098EE;
		}

		.backst56 {
			fill: #4F99EE;
		}

		.backst57 {
			fill: #4F9AEE;
		}

		.backst58 {
			fill: #4E9AEE;
		}

		.backst59 {
			fill: #4E9BEF;
		}

		.backst60 {
			fill: #4D9BEF;
		}

		.backst61 {
			fill: #4D9CEF;
		}

		.backst62 {
			fill: #4C9CEF;
		}

		.backst63 {
			fill: #4C9DEF;
		}

		.backst64 {
			fill: #4C9EF0;
		}

		.backst65 {
			fill: #4B9EF0;
		}

		.backst66 {
			fill: #4B9FF0;
		}

		.backst67 {
			fill: #4A9FF0;
		}

		.backst68 {
			fill: #4AA0F0;
		}

		.backst69 {
			fill: #49A0F0;
		}

		.backst70 {
			fill: #49A1F1;
		}

		.backst71 {
			fill: #48A2F1;
		}

		.backst72 {
			fill: #48A3F1;
		}

		.backst73 {
			fill: #47A3F1;
		}

		.backst74 {
			fill: #47A4F2;
		}

		.backst75 {
			fill: #46A4F2;
		}

		.backst76 {
			fill: #46A5F2;
		}

		.backst77 {
			fill: #45A5F2;
		}

		.backst78 {
			fill: #45A6F2;
		}

		.backst79 {
			fill: #45A7F3;
		}

		.backst80 {
			fill: #44A7F3;
		}

		.backst81 {
			fill: #44A8F3;
		}

		.backst82 {
			fill: #43A8F3;
		}

		.backst83 {
			fill: #43A9F3;
		}

		.backst84 {
			fill: #42A9F3;
		}

		.backst85 {
			fill: #42AAF4;
		}

		.backst86 {
			fill: #41ABF4;
		}

		.backst87 {
			fill: #40ACF4;
		}

		.backst88 {
			fill: #40ADF5;
		}

		.backst89 {
			fill: #3FADF5;
		}

		.backst90 {
			fill: #3FAEF5;
		}

		.backst91 {
			fill: #3EAEF5;
		}

		.backst92 {
			fill: #3EAFF5;
		}

		.backst93 {
			fill: #3DAFF5;
		}

		.backst94 {
			fill: #3DB0F6;
		}

		.backst95 {
			fill: #3DB1F6;
		}

		.backst96 {
			fill: #3CB1F6;
		}

		.backst97 {
			fill: #3CB2F6;
		}

		.backst98 {
			fill: #3BB2F6;
		}

		.backst99 {
			fill: #3BB3F7;
		}

		.backst100 {
			fill: #3AB3F7;
		}

		.backst101 {
			fill: #3AB4F7;
		}

		.backst102 {
			fill: #39B5F7;
		}

		.backst103 {
			fill: #39B6F8;
		}

		.backst104 {
			fill: #38B6F8;
		}

		.backst105 {
			fill: #38B7F8;
		}

		.backst106 {
			fill: #37B7F8;
		}

		.backst107 {
			fill: #37B8F8;
		}

		.backst108 {
			fill: #36B8F8;
		}

		.backst109 {
			fill: #36B9F9;
		}

		.backst110 {
			fill: #36BAF9;
		}

		.backst111 {
			fill: #35BAF9;
		}

		.backst112 {
			fill: #35BBF9;
		}

		.backst113 {
			fill: #34BBF9;
		}

		.backst114 {
			fill: #34BCFA;
		}

		.backst115 {
			fill: #33BCFA;
		}

		.backst116 {
			fill: #33BDFA;
		}

		.backst117 {
			fill: #32BEFA;
		}

		.backst118 {
			fill: #32BFFB;
		}

		.backst119 {
			fill: #31BFFB;
		}

		.backst120 {
			fill: #31C0FB;
		}

		.backst121 {
			fill: #30C0FB;
		}

		.backst122 {
			fill: #30C1FB;
		}

		.backst123 {
			fill: #2FC1FB;
		}

		.backst124 {
			fill: #2FC2FC;
		}

		.backst125 {
			fill: #2EC2FC;
		}

		.backst126 {
			fill: #2EC3FC;
		}

		.backst127 {
			fill: #2EC4FC;
		}

		.backst128 {
			fill: #2DC4FC;
		}

		.backst129 {
			fill: #2DC5FD;
		}

		.backst130 {
			fill: #2CC5FD;
		}

		.backst131 {
			fill: #2CC6FD;
		}

		.backst132 {
			fill: #2BC6FD;
		}

		.backst133 {
			fill: #2BC7FD;
		}

		.backst134 {
			fill: #2AC8FE;
		}

		.backst135 {
			fill: #2AC9FE;
		}

		.backst136 {
			fill: #29C9FE;
		}

		.backst137 {
			fill: #29CAFE;
		}

		.backst138 {
			fill: #28CAFE;
		}

		.backst139 {
			fill: #28CBFF;
		}

		.backst140 {
			fill: #27CBFF;
		}

		.backst141 {
			fill: #27CCFF;
		}
	</style>
	<g>
		<circle class="backst0" cx="264.4" cy="514.1" r="20.6" />
		<circle class="backst0" cx="273.9" cy="515.6" r="20.7" />
		<circle class="backst1" cx="283.5" cy="517.2" r="20.8" />
		<circle class="backst2" cx="454.3" cy="874.4" r="29.4" />
		<circle class="backst3" cx="446.5" cy="868.7" r="29.5" />
		<circle class="backst3" cx="438.9" cy="862.8" r="29.6" />
		<circle class="backst4" cx="431.4" cy="856.6" r="29.7" />
		<circle class="backst4" cx="424.1" cy="850.3" r="29.8" />
		<circle class="backst5" cx="417" cy="843.8" r="30" />
		<circle class="backst5" cx="410.1" cy="837.1" r="30.1" />
		<circle class="backst6" cx="403.4" cy="830.3" r="30.2" />
		<circle class="backst6" cx="396.8" cy="823.3" r="30.3" />
		<circle class="backst7" cx="390.4" cy="816.1" r="30.4" />
		<circle class="backst8" cx="384.1" cy="808.7" r="30.5" />
		<circle class="backst8" cx="378.1" cy="801.2" r="30.6" />
		<circle class="backst8" cx="372.2" cy="793.5" r="30.7" />
		<circle class="backst9" cx="366.5" cy="785.8" r="30.8" />
		<circle class="backst9" cx="360.9" cy="777.8" r="31" />
		<circle class="backst9" cx="355.6" cy="769.8" r="31.1" />
		<circle class="backst10" cx="350.4" cy="761.6" r="31.2" />
		<circle class="backst11" cx="345.4" cy="753.3" r="31.3" />
		<circle class="backst11" cx="340.5" cy="744.9" r="31.4" />
		<circle class="backst11" cx="335.8" cy="736.4" r="31.5" />
		<circle class="backst12" cx="331.3" cy="727.8" r="31.6" />
		<circle class="backst13" cx="327" cy="719.1" r="31.7" />
		<circle class="backst13" cx="322.8" cy="710.4" r="31.8" />
		<circle class="backst14" cx="318.8" cy="701.5" r="31.9" />
		<circle class="backst14" cx="315" cy="692.6" r="32.1" />
		<circle class="backst15" cx="311.3" cy="683.6" r="32.2" />
		<circle class="backst16" cx="307.8" cy="674.5" r="32.3" />
		<circle class="backst16" cx="304.5" cy="665.4" r="32.4" />
		<circle class="backst16" cx="301.3" cy="656.3" r="32.5" />
		<circle class="backst17" cx="298.3" cy="647.1" r="32.6" />
		<circle class="backst18" cx="295.5" cy="637.8" r="32.7" />
		<circle class="backst18" cx="292.8" cy="628.6" r="32.8" />
		<circle class="backst18" cx="290.2" cy="619.2" r="32.9" />
		<circle class="backst19" cx="287.8" cy="609.9" r="33" />
		<circle class="backst20" cx="285.5" cy="600.5" r="33.2" />
		<circle class="backst20" cx="283.4" cy="591" r="33.3" />
		<circle class="backst21" cx="281.4" cy="581.6" r="33.4" />
		<circle class="backst21" cx="279.5" cy="572.1" r="33.5" />
		<circle class="backst22" cx="277.8" cy="562.6" r="33.6" />
		<circle class="backst23" cx="276.2" cy="553" r="33.7" />
		<circle class="backst23" cx="274.6" cy="543.5" r="33.8" />
		<circle class="backst23" cx="273.2" cy="533.9" r="33.9" />
		<circle class="backst24" cx="272" cy="524.3" r="34" />
		<circle class="backst24" cx="270.8" cy="514.7" r="34.1" />
		<circle class="backst24" cx="269.7" cy="505.1" r="34.3" />
		<circle class="backst24" cx="268.8" cy="495.4" r="34.4" />
		<circle class="backst25" cx="268" cy="485.6" r="34.5" />
		<circle class="backst25" cx="267.3" cy="475.9" r="34.6" />
		<circle class="backst25" cx="266.9" cy="466.3" r="34.7" />
		<circle class="backst26" cx="266.5" cy="456.6" r="34.8" />
		<circle class="backst27" cx="266.4" cy="446.9" r="34.9" />
		<circle class="backst27" cx="266.4" cy="437.2" r="35" />
		<circle class="backst28" cx="266.6" cy="427.6" r="35.1" />
		<circle class="backst28" cx="267" cy="417.9" r="35.3" />
		<circle class="backst29" cx="267.6" cy="408.3" r="35.4" />
		<circle class="backst30" cx="268.4" cy="398.7" r="35.5" />
		<circle class="backst30" cx="269.3" cy="389.2" r="35.6" />
		<circle class="backst30" cx="270.5" cy="379.6" r="35.7" />
		<circle class="backst31" cx="271.8" cy="370.1" r="35.8" />
		<circle class="backst32" cx="273.4" cy="360.6" r="35.9" />
		<circle class="backst32" cx="275.2" cy="351.2" r="36" />
		<circle class="backst32" cx="277.2" cy="341.8" r="36.1" />
		<circle class="backst33" cx="279.4" cy="332.4" r="36.2" />
		<circle class="backst34" cx="281.9" cy="323.1" r="36.4" />
		<circle class="backst34" cx="284.5" cy="313.8" r="36.5" />
		<circle class="backst35" cx="287.5" cy="304.5" r="36.6" />
		<circle class="backst35" cx="290.6" cy="295.3" r="36.7" />
		<circle class="backst36" cx="294" cy="286.2" r="36.8" />
		<circle class="backst37" cx="297.6" cy="277.1" r="36.9" />
		<circle class="backst37" cx="301.4" cy="277.6" r="37" />
		<circle class="backst37" cx="305.3" cy="286.5" r="37.1" />
		<circle class="backst38" cx="309.3" cy="295.2" r="37.2" />
		<circle class="backst39" cx="313.5" cy="303.9" r="37.3" />
		<circle class="backst39" cx="318" cy="312.3" r="37.5" />
		<circle class="backst39" cx="323" cy="320.7" r="37.6" />
		<circle class="backst40" cx="328.3" cy="328.8" r="37.7" />
		<circle class="backst40" cx="333.8" cy="336.8" r="37.8" />
		<circle class="backst40" cx="339.4" cy="344.6" r="37.9" />
		<circle class="backst41" cx="345.2" cy="352.4" r="38" />
		<circle class="backst42" cx="351.2" cy="360" r="38.1" />
		<circle class="backst42" cx="357.3" cy="367.5" r="38.2" />
		<circle class="backst42" cx="363.6" cy="374.8" r="38.3" />
		<circle class="backst43" cx="370" cy="382.1" r="38.4" />
		<circle class="backst44" cx="376.6" cy="389.2" r="38.6" />
		<circle class="backst44" cx="383.3" cy="396.2" r="38.7" />
		<circle class="backst45" cx="390.1" cy="403" r="38.8" />
		<circle class="backst45" cx="397" cy="409.7" r="38.9" />
		<circle class="backst46" cx="404.1" cy="416.3" r="39" />
		<circle class="backst47" cx="411.3" cy="422.8" r="39.1" />
		<circle class="backst47" cx="418.6" cy="429.2" r="39.2" />
		<circle class="backst47" cx="426" cy="435.4" r="39.3" />
		<circle class="backst48" cx="433.6" cy="441.4" r="39.4" />
		<circle class="backst49" cx="441.2" cy="447.4" r="39.6" />
		<circle class="backst49" cx="448.9" cy="453.2" r="39.7" />
		<circle class="backst49" cx="456.8" cy="458.9" r="39.8" />
		<circle class="backst50" cx="464.6" cy="464.3" r="39.9" />
		<circle class="backst51" cx="472.5" cy="469.6" r="40" />
		<circle class="backst51" cx="480.6" cy="474.7" r="40.1" />
		<circle class="backst52" cx="488.8" cy="479.7" r="40.2" />
		<circle class="backst52" cx="497.1" cy="484.5" r="40.3" />
		<circle class="backst53" cx="505.5" cy="489.2" r="40.4" />
		<circle class="backst54" cx="514" cy="493.7" r="40.5" />
		<circle class="backst54" cx="522.6" cy="498.1" r="40.7" />
		<circle class="backst54" cx="531.3" cy="502.4" r="40.8" />
		<circle class="backst55" cx="540.1" cy="506.6" r="40.9" />
		<circle class="backst55" cx="549" cy="510.6" r="41" />
		<circle class="backst55" cx="557.9" cy="514.5" r="41.1" />
		<circle class="backst55" cx="566.9" cy="518.3" r="41.2" />
		<circle class="backst56" cx="575.9" cy="522" r="41.3" />
		<circle class="backst56" cx="585.1" cy="525.6" r="41.4" />
		<circle class="backst56" cx="594.2" cy="529" r="41.5" />
		<circle class="backst57" cx="603.4" cy="532.4" r="41.6" />
		<circle class="backst58" cx="612.6" cy="535.7" r="41.8" />
		<circle class="backst58" cx="621.8" cy="538.9" r="41.9" />
		<circle class="backst59" cx="631.1" cy="542" r="42" />
		<circle class="backst59" cx="640.3" cy="545" r="42.1" />
		<circle class="backst60" cx="649.6" cy="547.9" r="42.2" />
		<circle class="backst61" cx="658.9" cy="550.8" r="42.3" />
		<circle class="backst61" cx="668.1" cy="553.6" r="42.4" />
		<circle class="backst61" cx="677.3" cy="556.3" r="42.5" />
		<circle class="backst62" cx="686.5" cy="559" r="42.6" />
		<circle class="backst63" cx="695.7" cy="561.6" r="42.8" />
		<circle class="backst63" cx="704.8" cy="564.1" r="42.9" />
		<circle class="backst63" cx="714.1" cy="566.6" r="43" />
		<circle class="backst64" cx="723.5" cy="569.1" r="43.1" />
		<circle class="backst65" cx="732.9" cy="571.5" r="43.2" />
		<circle class="backst65" cx="742.3" cy="573.7" r="43.3" />
		<circle class="backst66" cx="751.7" cy="576" r="43.4" />
		<circle class="backst66" cx="761.1" cy="578.1" r="43.5" />
		<circle class="backst67" cx="770.6" cy="580.2" r="43.6" />
		<circle class="backst68" cx="780" cy="582.2" r="43.7" />
		<circle class="backst68" cx="789.5" cy="584.1" r="43.9" />
		<circle class="backst68" cx="799" cy="585.9" r="44" />
		<circle class="backst69" cx="808.5" cy="587.6" r="44.1" />
		<circle class="backst70" cx="818" cy="589.3" r="44.2" />
		<circle class="backst70" cx="827.6" cy="590.9" r="44.3" />
		<circle class="backst70" cx="837.1" cy="592.4" r="44.4" />
		<circle class="backst71" cx="846.7" cy="593.8" r="44.5" />
		<circle class="backst71" cx="856.3" cy="595.2" r="44.6" />
		<circle class="backst71" cx="865.9" cy="596.5" r="44.7" />
		<circle class="backst72" cx="875.5" cy="597.7" r="44.8" />
		<circle class="backst73" cx="885.1" cy="598.8" r="45" />
		<circle class="backst73" cx="894.7" cy="599.8" r="45.1" />
		<circle class="backst74" cx="904.3" cy="600.8" r="45.2" />
		<circle class="backst74" cx="913.9" cy="601.7" r="45.3" />
		<circle class="backst75" cx="923.6" cy="602.5" r="45.4" />
		<circle class="backst75" cx="933.2" cy="603.2" r="45.5" />
		<circle class="backst76" cx="942.9" cy="603.8" r="45.6" />
		<circle class="backst76" cx="952.5" cy="604.4" r="45.7" />
		<circle class="backst77" cx="962.2" cy="604.9" r="45.8" />
		<circle class="backst78" cx="971.9" cy="605.3" r="45.9" />
		<circle class="backst78" cx="981.5" cy="605.6" r="46.1" />
		<circle class="backst78" cx="991.2" cy="605.9" r="46.2" />
		<circle class="backst79" cx="1000.9" cy="606" r="46.3" />
		<circle class="backst80" cx="1010.5" cy="606.1" r="46.4" />
		<circle class="backst80" cx="1020.2" cy="606.1" r="46.5" />
		<circle class="backst80" cx="1029.9" cy="606" r="46.6" />
		<circle class="backst81" cx="1039.5" cy="605.9" r="46.7" />
		<circle class="backst82" cx="1049.2" cy="605.7" r="46.8" />
		<circle class="backst82" cx="1058.9" cy="605.3" r="46.9" />
		<circle class="backst83" cx="1068.5" cy="604.9" r="47.1" />
		<circle class="backst83" cx="1078.2" cy="604.5" r="47.2" />
		<circle class="backst84" cx="1087.9" cy="603.9" r="47.3" />
		<circle class="backst85" cx="1097.5" cy="603.3" r="47.4" />
		<circle class="backst85" cx="1107.2" cy="602.6" r="47.5" />
		<circle class="backst85" cx="1116.8" cy="601.8" r="47.6" />
		<circle class="backst86" cx="1126.4" cy="600.9" r="47.7" />
		<circle class="backst86" cx="1136.1" cy="599.9" r="47.8" />
		<circle class="backst86" cx="1145.7" cy="598.9" r="47.9" />
		<circle class="backst86" cx="1155.3" cy="597.8" r="48" />
		<circle class="backst87" cx="1164.9" cy="596.6" r="48.2" />
		<circle class="backst87" cx="1174.5" cy="595.3" r="48.3" />
		<circle class="backst87" cx="1184" cy="594" r="48.4" />
		<circle class="backst88" cx="1193.6" cy="592.5" r="48.5" />
		<circle class="backst89" cx="1203.2" cy="591" r="48.6" />
		<circle class="backst89" cx="1212.7" cy="589.4" r="48.7" />
		<circle class="backst90" cx="1222.2" cy="587.7" r="48.8" />
		<circle class="backst90" cx="1231.7" cy="586" r="48.9" />
		<circle class="backst91" cx="1241.2" cy="584.1" r="49" />
		<circle class="backst92" cx="1250.7" cy="582.2" r="49.1" />
		<circle class="backst92" cx="1260.2" cy="580.2" r="49.3" />
		<circle class="backst92" cx="1269.6" cy="578.1" r="49.4" />
		<circle class="backst93" cx="1279" cy="575.9" r="49.5" />
		<circle class="backst94" cx="1288.4" cy="573.7" r="49.6" />
		<circle class="backst94" cx="1297.8" cy="571.4" r="49.7" />
		<circle class="backst94" cx="1307.2" cy="569" r="49.8" />
		<circle class="backst95" cx="1316.5" cy="566.5" r="49.9" />
		<circle class="backst96" cx="1325.9" cy="563.9" r="50" />
		<circle class="backst96" cx="1335.2" cy="561.2" r="50.1" />
		<circle class="backst97" cx="1344.5" cy="558.5" r="50.2" />
		<circle class="backst97" cx="1353.7" cy="555.7" r="50.4" />
		<circle class="backst98" cx="1362.9" cy="552.8" r="50.5" />
		<circle class="backst99" cx="1372.1" cy="549.8" r="50.6" />
		<circle class="backst99" cx="1381.3" cy="546.7" r="50.7" />
		<circle class="backst99" cx="1390.5" cy="543.6" r="50.8" />
		<circle class="backst100" cx="1399.6" cy="540.4" r="50.9" />
		<circle class="backst101" cx="1408.7" cy="537.1" r="51" />
		<circle class="backst101" cx="1417.7" cy="533.7" r="51.1" />
		<circle class="backst101" cx="1426.8" cy="530.3" r="51.2" />
		<circle class="backst102" cx="1435.8" cy="526.7" r="51.4" />
		<circle class="backst102" cx="1444.8" cy="523.1" r="51.5" />
		<circle class="backst102" cx="1453.7" cy="519.5" r="51.6" />
		<circle class="backst103" cx="1462.6" cy="515.7" r="51.7" />
		<circle class="backst104" cx="1471.5" cy="511.9" r="51.8" />
		<circle class="backst104" cx="1480.3" cy="508" r="51.9" />
		<circle class="backst105" cx="1489.1" cy="504" r="52" />
		<circle class="backst105" cx="1497.9" cy="499.9" r="52.1" />
		<circle class="backst106" cx="1506.7" cy="495.8" r="52.2" />
		<circle class="backst106" cx="1515.4" cy="491.6" r="52.3" />
		<circle class="backst107" cx="1524.1" cy="487.3" r="52.5" />
		<circle class="backst107" cx="1532.7" cy="483" r="52.6" />
		<circle class="backst108" cx="1541.3" cy="478.6" r="52.7" />
		<circle class="backst109" cx="1549.9" cy="474.1" r="52.8" />
		<circle class="backst109" cx="1558.4" cy="469.5" r="52.9" />
		<circle class="backst109" cx="1566.9" cy="464.9" r="53" />
		<circle class="backst110" cx="1575.3" cy="460.2" r="53.1" />
		<circle class="backst111" cx="1583.7" cy="455.4" r="53.2" />
		<circle class="backst111" cx="1592.1" cy="450.6" r="53.3" />
		<circle class="backst112" cx="1600.5" cy="445.7" r="53.4" />
		<circle class="backst112" cx="1608.7" cy="440.7" r="53.6" />
		<circle class="backst113" cx="1617" cy="435.6" r="53.7" />
		<circle class="backst113" cx="1625.2" cy="430.5" r="53.8" />
		<circle class="backst114" cx="1633.4" cy="425.3" r="53.9" />
		<circle class="backst114" cx="1641.5" cy="420.1" r="54" />
		<circle class="backst115" cx="1649.6" cy="414.8" r="54.1" />
		<circle class="backst116" cx="1657.6" cy="409.4" r="54.2" />
		<circle class="backst116" cx="1665.6" cy="403.9" r="54.3" />
		<circle class="backst116" cx="1673.5" cy="398.4" r="54.4" />
		<circle class="backst117" cx="1681.5" cy="392.8" r="54.6" />
		<circle class="backst117" cx="1689.3" cy="387.2" r="54.7" />
		<circle class="backst117" cx="1697.1" cy="381.5" r="54.8" />
		<circle class="backst118" cx="1704.9" cy="375.7" r="54.9" />
		<circle class="backst119" cx="1712.6" cy="369.8" r="55" />
		<circle class="backst119" cx="1720.3" cy="363.9" r="55.1" />
		<circle class="backst119" cx="1727.9" cy="358" r="55.2" />
		<circle class="backst120" cx="1735.4" cy="351.9" r="55.3" />
		<circle class="backst121" cx="1743" cy="345.9" r="55.4" />
		<circle class="backst121" cx="1750.4" cy="339.7" r="55.5" />
		<circle class="backst122" cx="1757.8" cy="333.5" r="55.7" />
		<circle class="backst122" cx="1765.2" cy="327.2" r="55.8" />
		<circle class="backst123" cx="1772.5" cy="320.9" r="55.9" />
		<circle class="backst124" cx="1779.8" cy="314.5" r="56" />
		<circle class="backst124" cx="1787" cy="308" r="56.1" />
		<circle class="backst124" cx="1794.1" cy="301.5" r="56.2" />
		<circle class="backst125" cx="1801.2" cy="295" r="56.3" />
		<circle class="backst126" cx="1808.3" cy="288.3" r="56.4" />
		<circle class="backst126" cx="1815.3" cy="281.6" r="56.5" />
		<circle class="backst126" cx="1822.2" cy="274.9" r="56.6" />
		<circle class="backst127" cx="1829.1" cy="268.1" r="56.8" />
		<circle class="backst128" cx="1835.9" cy="261.2" r="56.9" />
		<circle class="backst128" cx="1842.7" cy="254.3" r="57" />
		<circle class="backst129" cx="1849.4" cy="247.4" r="57.1" />
		<circle class="backst129" cx="1856" cy="240.3" r="57.2" />
		<circle class="backst130" cx="1862.6" cy="233.3" r="57.3" />
		<circle class="backst131" cx="1869.1" cy="226.1" r="57.4" />
		<circle class="backst131" cx="1875.6" cy="218.9" r="57.5" />
		<circle class="backst131" cx="1882" cy="211.7" r="57.6" />
		<circle class="backst132" cx="1888.4" cy="204.4" r="57.7" />
		<circle class="backst133" cx="1894.6" cy="197" r="57.9" />
		<circle class="backst133" cx="1900.9" cy="189.6" r="58" />
		<circle class="backst133" cx="1907" cy="182.2" r="58.1" />
		<circle class="backst134" cx="1913.1" cy="174.7" r="58.2" />
		<circle class="backst134" cx="1919.1" cy="167.1" r="58.3" />
		<circle class="backst134" cx="1925.1" cy="159.5" r="58.4" />
		<circle class="backst135" cx="1931" cy="151.9" r="58.5" />
		<circle class="backst136" cx="1936.9" cy="144.1" r="58.6" />
		<circle class="backst136" cx="1942.6" cy="136.4" r="58.7" />
		<circle class="backst137" cx="1948.3" cy="128.6" r="58.9" />
		<circle class="backst137" cx="1954" cy="120.7" r="59" />
		<circle class="backst138" cx="1959.5" cy="112.8" r="59.1" />
		<circle class="backst138" cx="1965" cy="104.9" r="59.2" />
		<circle class="backst139" cx="1970.5" cy="96.9" r="59.3" />
		<circle class="backst139" cx="1975.8" cy="88.8" r="59.4" />
		<circle class="backst140" cx="1981.1" cy="80.7" r="59.5" />
		<circle class="backst141" cx="1986.4" cy="72.6" r="59.6" />
		<circle class="backst141" cx="1991.5" cy="64.4" r="59.7" />
	</g>
</svg>