<?xml version="1.0" encoding="UTF-8"?>
<svg id="_圖層_2" data-name="圖層 2" xmlns="http://www.w3.org/2000/svg" xmlns:xlink="http://www.w3.org/1999/xlink" viewBox="0 0 235.78 234.32">
  <defs>
    <style>
      .cls-1 {
        letter-spacing: .12em;
      }

      .cls-2, .cls-3 {
        fill: #fff;
      }

      .cls-4 {
        letter-spacing: .02em;
      }

      .cls-3 {
        filter: url(#drop-shadow-3);
        font-family: GenYoGothicTW-M, 'GenYoGothic TW';
        font-size: 23.82px;
      }

      .cls-5 {
        filter: url(#drop-shadow-1);
      }

      .cls-6 {
        fill: #066836;
      }

      .cls-7 {
        filter: url(#drop-shadow-2);
      }

      .cls-8 {
        fill: #942223;
        fill-rule: evenodd;
      }
    </style>
    <filter id="drop-shadow-1" filterUnits="userSpaceOnUse">
      <feOffset dx="1" dy="1"/>
      <feGaussianBlur result="blur" stdDeviation="1"/>
      <feFlood flood-color="#103314" flood-opacity=".75"/>
      <feComposite in2="blur" operator="in"/>
      <feComposite in="SourceGraphic"/>
    </filter>
    <filter id="drop-shadow-2" filterUnits="userSpaceOnUse">
      <feOffset dx="1" dy="1"/>
      <feGaussianBlur result="blur-2" stdDeviation="1"/>
      <feFlood flood-color="#103314" flood-opacity=".75"/>
      <feComposite in2="blur-2" operator="in"/>
      <feComposite in="SourceGraphic"/>
    </filter>
    <filter id="drop-shadow-3" filterUnits="userSpaceOnUse">
      <feOffset dx="1" dy="1"/>
      <feGaussianBlur result="blur-3" stdDeviation="1"/>
      <feFlood flood-color="#103314" flood-opacity=".75"/>
      <feComposite in2="blur-3" operator="in"/>
      <feComposite in="SourceGraphic"/>
    </filter>
  </defs>
  <g id="_圖層_2-2" data-name="圖層 2">
    <g>
      <g class="cls-5">
        <path class="cls-8" d="M95.44,87.2h12.4V25.93l-12.4,12.61v48.66ZM140.87,12.62V87.2h12.42V0l-12.42,12.62Z"/>
        <path class="cls-6" d="M169.38,59.37c5.01,3.97,7.9,8.65,7.9,13.67,0,12.45-17.86,22.84-41.68,25.36v-29.55c-2.2,2.35-5.17,4.01-8.49,4.61v25.48c-.86,.02-1.73,.03-2.61,.03s-1.79,0-2.68-.03v-25.47c-3.31-.58-6.27-2.21-8.49-4.56v29.48c-23.79-2.52-41.61-12.91-41.61-25.35,0-5.02,2.9-9.69,7.91-13.67-8.18,5.22-13.07,11.9-13.07,19.17,0,16.73,25.95,30.29,57.94,30.29s57.94-13.57,57.94-30.29c0-7.27-4.9-13.95-13.07-19.17Z"/>
        <path class="cls-8" d="M135.3,58.37c0,5.99-4.86,10.85-10.85,10.85s-10.85-4.85-10.85-10.85,4.85-10.85,10.85-10.85,10.85,4.87,10.85,10.85Z"/>
      </g>
      <g class="cls-7">
        <g>
          <path class="cls-2" d="M119.37,173.61c-.33,2.55-.87,4.46-1.64,5.75-1.36,2.06-2.91,3.08-4.64,3.08h-34.81c-2.17-.04-3.84-.6-5.02-1.7-.95-.88-1.42-2.34-1.42-3.91v-24.35c0-1.35,.45-1.8,1.35-1.8h41.53c1.3,0,2.12,.83,2.12,2.03v14.65c0,1.3-.71,2.08-2.12,2.08h-36.1v4.44c.03,1.19,.18,1.99,.42,2.41,.44,.53,.93,.83,1.52,.9h30.31c.65-.03,1.22-.19,1.68-.47,.57-.4,.98-.81,1.23-1.28,.16-.35,.44-1.14,.48-1.88l5.11,.04Zm-40.75-8.92h13.04v-9.48h-12.45c-.4,0-.59,.19-.59,.58v8.9Zm18.6-9.48v9.48h12.7c.43-.04,.65-.25,.65-.63v-8.26c0-.39-.22-.58-.65-.58h-12.7Z"/>
          <path class="cls-2" d="M113.23,134.49h-38.07c-1.9,0-3.46,1.52-3.46,3.38v10.44h44.97v-10.44c0-1.87-1.54-3.38-3.44-3.38Zm-2.93,9.05c0,.14-.08,.22-.27,.28h-31.32l-.21-.28v-4.35c-.05-.18,.03-.25,.21-.22h31.32l.27,.22v4.35Z"/>
        </g>
        <g>
          <path class="cls-2" d="M42.15,149.74v-3.43h4.02v-1.77h-4.02v-3.44h4.02v-1.82l-4.02,.02v-3.44h4.02v-2.53h4.05v2.53h3.74v3.44h-3.74v1.8h3.7v3.44h-3.7v1.77h3.76v3.43h-3.76v1.89h4.72c.53-.05,.8-.31,.8-.79v-16.6h5.85v19.51c0,1.32-.68,1.98-2.04,1.98H16.33c-1.36-.03-2.05-.69-2.05-1.98v-19.51h5.84v16.6c.05,.52,.3,.79,.77,.79h4.94v-1.89h-3.67v-3.43h3.67v-1.77h-3.68v-3.44h3.68v-1.8h-3.64v-3.44h3.64v-2.74h3.77v2.74h3.51v3.44h-3.51v1.8h3.51v3.44h-3.51v1.77h3.47v3.43h-3.47v1.89h5.66v-18.49h4.87v18.49h6.04v-1.89h-4.02Z"/>
          <polygon class="cls-2" points="51.13 174.75 49.67 177.31 62.97 177.31 62.97 182.1 13.22 182.1 13.22 177.31 26.88 177.31 25.16 174.75 31.05 174.75 32.87 177.31 43.99 177.31 45.56 174.75 51.13 174.75"/>
          <rect class="cls-2" x="14.09" y="157.87" width="48.03" height="4.16"/>
          <path class="cls-2" d="M55.27,163.95H20.94c-1.85,0-3.34,1.38-3.34,3.09v7.86H58.61v-7.86c0-1.71-1.49-3.09-3.34-3.09Zm-3.1,6.51c0,.13-.09,.2-.26,.24H24.17l-.2-.24v-2.13c-.04-.16,.04-.22,.2-.18h27.74l.26,.18v2.13Z"/>
        </g>
        <g>
          <g>
            <rect class="cls-2" x="186.47" y="144.29" width="14.04" height="4.76"/>
            <rect class="cls-2" x="190.69" y="134.42" width="6.11" height="48.64"/>
            <path class="cls-2" d="M183.46,168.41l4.32,1.99c.2-.44,5.72-13.58,6.99-20.96l-4.69-.79c-1.16,6.77-6.57,19.67-6.62,19.77Z"/>
            <path class="cls-2" d="M192.04,150.01c3.02,6.65,7.22,11.89,7.4,12.12l3.7-2.99c-.03-.05-4.01-5.02-6.78-11.1l-4.33,1.97Z"/>
          </g>
          <path class="cls-2" d="M203.21,159.99c0-2.85,2.01-3.37,3.59-3.37h8.55v-2.16h-13.78v-4.42h8.17v-2.16h-6.27v-4.42h6.27v-2.17h-7.33v-4.41h7.33v-2.76h5.05v2.76h7.05v-2.76h5.05v2.76h7.64v4.41h-7.64v2.17h6.58v4.42h-6.58v2.16h8.72v4.42h-14.36v2.16h8.05c2.56,0,3.85,1.27,3.85,3.66v10.74h2.64v4.42h-2.64v3.75c-.05,1.63-.97,2.45-2.57,3.37-2.27,1.13-4.79,1.55-9.81,.98l.05-4.67c3.57,.18,4.58-.07,5.68-.42,.92-.46,1.38-1.05,1.38-1.75v-1.26h-19.38v7.52h-5.26v-7.52h-3.18v-4.42h3.18v-10.12l-.02-.9Zm12.13,1.04h-5.74c-.96,0-1.11,.46-1.11,1.13v1.69h6.85v-2.82Zm0,9.98v-2.73h-6.85v2.73h6.85Zm6.5-20.98v-2.16h-7.05v2.16h7.05Zm0-6.57v-2.16h-7.05v2.16h7.05Zm-.6,20.4h6.63v-1.43c0-.58,.08-1.39-1.24-1.39h-5.39v2.82Zm6.63,7.16v-2.73h-6.63v2.73h6.63Z"/>
        </g>
        <g>
          <g>
            <rect class="cls-2" x="128.7" y="144.12" width="14.04" height="4.76"/>
            <rect class="cls-2" x="132.92" y="134.25" width="6.12" height="48.64"/>
            <path class="cls-2" d="M125.7,168.23l4.32,1.98c.2-.44,5.72-13.57,6.98-20.95l-4.7-.8c-1.14,6.77-6.56,19.67-6.6,19.78Z"/>
            <path class="cls-2" d="M134.26,149.84c3.04,6.64,7.24,11.89,7.42,12.11l3.7-2.98s-4.01-5.02-6.78-11.1l-4.34,1.97Z"/>
          </g>
          <g>
            <path class="cls-2" d="M173.76,166.79h-31.34v-4.76h28.33c-.53-1.28-1.08-2.61-1.08-2.61l4.38-1.83,2.29,5.5s.79,1.59,.14,2.63c-.66,1.09-2.73,1.07-2.73,1.07Z"/>
            <path class="cls-2" d="M148.67,163.8v7.41l.02,.13s.21,2.62-1.44,4.41c-1.22,1.32-3.24,2-6,2v4.75c4.19,0,7.41-1.21,9.58-3.61,2.33-2.6,2.62-5.82,2.62-7.28,0-.28,0-.47-.02-.6v-7.22h-4.76Z"/>
            <path class="cls-2" d="M149.41,163.8v7.22c-.01,.13-.03,.31-.03,.6,0,1.46,.29,4.68,2.64,7.28,2.16,2.4,5.37,3.61,9.56,3.61v-4.75c-2.77,0-4.78-.68-6-2-1.64-1.8-1.44-4.4-1.44-4.41v-.11s0-7.43,0-7.43h-4.75Z"/>
            <path class="cls-2" d="M162.32,177.64l1.28,4.59c7.55-2.12,10.38-11.99,10.49-12.42l-4.57-1.28c-.61,2.15-3.08,7.97-7.2,9.11Z"/>
            <path class="cls-2" d="M163.43,159.07h12.2v-4.75h-5.66c1.11-1.72,3.11-4.79,4.63-7.11,0,0,.75-1.02,.35-2.11-.41-1.03-1.89-.98-1.89-.98h-4.81c1.85-3.22,5.75-9.72,5.75-9.72h-5.7s-6.74,11.85-6.74,11.85c0,0-.76,1.21-.35,1.96,.36,.67,1.3,.67,1.3,.67h5.34c-1.29,1.97-3.74,5.73-5.27,8.09,0,0-.58,.92-.24,1.56,.34,.65,1.11,.53,1.11,.53Z"/>
            <path class="cls-2" d="M145.11,159.07h13.54v-4.75h-7.02c1.12-1.72,3.11-4.79,4.62-7.11,0,0,.76-1.02,.35-2.11-.39-1.03-1.9-.98-1.9-.98h-4.8c1.84-3.22,5.75-9.72,5.75-9.72h-5.68s-6.77,11.85-6.77,11.85c0,0-.75,1.21-.35,1.96,.37,.67,1.3,.67,1.3,.67h5.33c-1.28,1.97-3.74,5.73-5.26,8.09,0,0-.58,.92-.25,1.56,.35,.65,1.12,.53,1.12,.53Z"/>
            <path class="cls-2" d="M164.77,178.03c2.91,3.62,5.81,5.19,8.64,4.67,2.8-.52,5.06-3.08,6.4-7.2l-4.53-1.47c-.71,2.21-1.81,3.82-2.73,3.99-.34,.06-1.64,.03-4.06-2.98-8.38-10.41-6.93-40.6-6.92-40.91l-4.75-.04c-.06,1.32-1.53,32.11,7.97,43.93Z"/>
          </g>
        </g>
      </g>
      <text class="cls-3" transform="translate(2.1 217.11)"><tspan class="cls-1" x="0" y="0" xml:space="preserve">多元版圖  豐美人</tspan><tspan class="cls-4" x="203.21" y="0">生</tspan></text>
    </g>
  </g>
</svg>