<?xml version="1.0" encoding="UTF-8"?>
<svg id="_圖層_2" data-name="圖層 2" xmlns="http://www.w3.org/2000/svg" viewBox="0 0 555.64 28.08">
  <defs>
    <style>
      .cls-1 {
        fill: #fff;
      }

      .cls-2, .cls-3 {
        fill: #b10f15;
      }

      .cls-4 {
        fill: #007236;
      }

      .cls-3 {
        fill-rule: evenodd;
      }

      .cls-5 {
        fill: #a32121;
      }
    </style>
  </defs>
  <g id="_圖層_2-2" data-name="圖層 2">
    <g>
      <g>
        <path class="cls-1" d="M263.09,17.2h-6.06v-1.38h6.06v-3.41h-6.47v-1.38h6.58c-.56-.67-1.06-1.17-1.5-1.52l1.16-.94c.63,.51,1.29,1.19,1.97,2.06l-.54,.4h6.69v1.38h-6.37v3.41h6.03v1.38h-6.03v3.84h6.97v1.38h-15.51v-1.38h7v-3.84Z"/>
        <path class="cls-1" d="M275.33,22.95l-1.2-.8,.15-.14c1.48-1.27,2.48-2.89,3.01-4.85l1.41,.35-.52,1.53c.84,1.05,1.89,1.74,3.15,2.06v-4.5h-6.77v-1.26h15.1v1.26h-6.87v1.71h5.86v1.26h-5.86v1.74l1.92,.06h5.37l-.37,1.32h-4.48c-1.18-.04-2.23-.11-3.16-.21-2.03-.22-3.55-.94-4.56-2.17-.72,1.07-1.45,1.95-2.19,2.64m12.56-8.56h-11.52c-.12,0-.19-.07-.19-.18v-5.03c.01-.11,.07-.17,.19-.17h11.52c.13,0,.2,.05,.2,.17v5.03c0,.12-.07,.18-.2,.18m-1.2-3.32v-.82l-.07-.05h-8.99s-.06,.01-.05,.05v.82h9.11Zm-9.11,1.2v.87l.05,.06h8.99l.07-.06v-.87h-9.11Z"/>
        <path class="cls-1" d="M292.58,18.15v-1.32h7.07v-6.44h-6.47v-1.32h14.43v1.32h-6.43v6.44h6.97v1.32h-6.97v4.73h-1.53v-4.73h-7.07Zm2.07-6.82c.88,1.05,1.72,2.4,2.54,4.06l-1.31,.64c-.9-1.75-1.73-3.08-2.49-4l1.26-.69Zm12.56,.56c-.55,1.25-1.41,2.67-2.58,4.25l-1.28-.67c1.2-1.68,2.04-3.07,2.53-4.17l1.33,.59Z"/>
        <path class="cls-1" d="M310.79,15.78v-1.32h5.19c.43-.71,.83-1.53,1.21-2.45l1.36,.65c-.26,.64-.55,1.24-.88,1.8h8.89v1.32h-3.05c-.5,1.76-1.45,3.24-2.83,4.46l5.67,1.61-.88,1.2-6.23-1.79c-2.03,1.11-4.7,1.66-8,1.65l-.42-1.32c2.22,.07,3.93-.04,5.12-.33l1.57-.5-4.83-1.41-.27-.79c1.1-1.04,1.98-1.96,2.63-2.77h-4.26Zm7.14-7.11h1.53v1.49h5.93l1.33,.61c-.12,.86-.43,1.89-.93,3.11l-1.36-.46,.56-1.73c.02-.14-.04-.21-.2-.21h-12.02c-.09,0-.14,.04-.14,.12v2.03h-1.46v-3.21c0-.17,.11-.26,.28-.26h6.48v-1.49Zm1.26,11.15c1.32-1.02,2.25-2.37,2.78-4.05h-5.15c-.59,.88-1.34,1.74-2.24,2.58-.1,.08-.09,.14,.03,.17l4.58,1.3Z"/>
        <path class="cls-1" d="M347.42,10.39h-.98v-1.32h7.76v1.32h-.87v12.55h-1.46v-2.33l-5.39,.86-.37-1.27,1.31-.21V10.39Zm4.45,0h-2.98v2.01h2.98v-2.01Zm0,3.34h-2.98v2.14h2.98v-2.14Zm0,5.53v-2.08h-2.98v2.58l2.98-.5Zm4.83-8.96c-.14,0-.2,.06-.2,.18v12.44h-1.46V9.26c.01-.15,.1-.23,.25-.23h5.62l.93,.68-1.77,4.56c-.09,.2-.07,.38,.05,.53,.76,.87,1.29,1.63,1.57,2.29,.48,1.31,.46,2.45-.08,3.41-.24,.42-.54,.72-.91,.89-.75,.33-1.82,.31-3.2-.08l.03-1.44c1.08,.37,1.86,.49,2.36,.35,.63-.24,.88-.93,.74-2.08-.15-.78-.81-1.84-1.99-3.2-.11-.16-.14-.35-.08-.58l1.58-4.09h-3.44Z"/>
        <path class="cls-1" d="M366.32,19.18c0,1.38-.26,2.61-.79,3.67-.43-.26-.81-.42-1.15-.47,.49-1.02,.7-2.1,.61-3.24l1.33,.05Zm5.15-.67h-6.33c-.12,0-.18-.07-.18-.18v-5.94c.01-.11,.07-.17,.18-.17h2.78c.63-.65,1.09-1.22,1.38-1.71,.05-.14,.02-.21-.08-.21h-2.12c-.35,.53-.85,1.13-1.52,1.79l-1.15-.83c1.07-.94,1.8-1.84,2.19-2.71l1.31,.26-.13,.32h2.59l.98,.55c-.51,.92-1.08,1.77-1.72,2.56h1.82c.13,0,.2,.05,.2,.17v5.94c0,.12-.07,.18-.2,.18m-3.76-5.09h-1.38l-.05,.05v1.36h1.43v-1.41Zm0,2.49h-1.43v1.35l.05,.06h1.38v-1.41Zm.25,3.29c.18,.87,.28,1.96,.3,3.29h-1.2c.01-.88-.08-1.95-.29-3.21l1.18-.08Zm1.72-.05c.34,1.28,.54,2.32,.62,3.11l-1.18,.11c-.08-.66-.28-1.68-.62-3.03l1.18-.18Zm-.64-4.32h1.3v-1.36l-.07-.05h-1.23v1.41Zm0,2.49h1.23s.07-.02,.07-.06v-1.35h-1.3v1.41Zm2.24,1.64c.37,.72,.68,1.63,.93,2.74l-1.11,.27c-.27-1.15-.57-2.05-.89-2.7l1.08-.32Zm1.18-4.35v-1.26h3.1v-2.59l-2.93,.18-.3-1.32c3.09-.05,5.5-.31,7.22-.79l.42,1.26c-.82,.2-1.75,.37-2.78,.49l-.24,.05v2.73h3.4v1.26h-3.03c.61,1.65,1.68,3.23,3.22,4.74l-1.38,.55c-.94-1.1-1.68-2.15-2.21-3.14v6.06h-1.4v-6.09c-.79,1.38-1.55,2.46-2.29,3.21l-1.3-.68c1.45-1.41,2.5-2.97,3.16-4.65h-2.68Z"/>
        <path class="cls-1" d="M384.3,20.45l-.84-1.15,.51-.17c1.95-.66,3.31-1.58,4.07-2.77-.23-.25-.35-.51-.35-.76v-2.37h-3.12c-.09,0-.13,.04-.13,.12v1.73h-1.33v-2.82c0-.15,.1-.23,.25-.23h3.03c-.34-.46-.65-.82-.94-1.08l.86-.61-1.99-.03-.12-1.26c5.69,.1,10.01-.07,12.97-.51l.17,1.26c-1.05,.18-2.77,.33-5.15,.44l-1.43,.06c.3,.34,.6,.8,.89,1.36l-.72,.36h2.65c.63-.57,1.25-1.21,1.87-1.92l1.01,.85-.93,.99-.08,.09h2.19l1.21,.55c-.02,.71-.2,1.55-.54,2.52l-1.3-.3c.24-.82,.32-1.28,.25-1.38,.01-.12-.05-.18-.17-.18h-8.07v1.7c0,.18,.07,.34,.22,.48,.16,.11,.33,.18,.52,.2h3.06c.12-.01,.26-.06,.4-.14l.08-.15,.15-1.02,1.3,.32c-.17,1.05-.3,1.62-.41,1.7-.34,.32-.66,.48-.96,.48h-4.07c-.25,.43-.44,.72-.57,.86h7l.93,.64c.1,.04,.11,.1,.02,.18-.79,.93-2.22,1.83-4.31,2.71,1.83,.43,3.9,.57,6.21,.39l-.18,1.32c-2.83,.21-5.39-.16-7.68-1.12-2.14,.7-4.58,1.09-7.31,1.18l-.27-1.29c2.25-.03,4.27-.27,6.06-.71-.79-.52-1.53-1.12-2.24-1.8-1.25,.65-2.14,1.07-2.68,1.27m2.88-5.76c-.79,1.16-1.66,2.06-2.63,2.68-.25-.46-.52-.79-.81-1.02,.88-.57,1.61-1.35,2.19-2.37l1.25,.7Zm3.15-2.65c-.3-.52-.58-.93-.84-1.21l.89-.51-3.74,.05c.37,.34,.74,.78,1.09,1.32l-.61,.36h3.2Zm.36,8.47c1.66-.66,2.82-1.18,3.47-1.56,.01-.07-.06-.1-.22-.08h-5.44c.42,.42,.76,.73,1.04,.94,.35,.25,.73,.49,1.15,.7m.47-7.09l1.33,1.14-.99,.77c-.31-.33-.74-.69-1.28-1.08l.94-.83Zm4.8,.4c.92,1.1,1.61,2.06,2.07,2.88l-1.16,.56c-.58-1.03-1.26-1.96-2.04-2.8l1.13-.64Z"/>
        <path class="cls-1" d="M402.33,16.46l-1.41-.47c1.6-2.31,2.54-4.77,2.8-7.37l1.47,.15c-.24,1.48-.54,2.77-.91,3.88v10.15h-1.47v-7.05l-.47,.7Zm5.81-4.93c-.64,1.62-1.33,2.86-2.07,3.74l-1.38-.54c1.49-1.91,2.41-3.94,2.76-6.08l1.45,.23-.34,1.33h7.51l.94,.55c-.15,1.09-.45,2.17-.93,3.23l-1.45-.31c.32-.46,.54-.84,.66-1.12,.23-.54,.31-.86,.22-.97l-.17-.06h-3.13v9.88c0,.59-.27,1.03-.77,1.34-.58,.32-1.7,.29-3.34-.09l.03-1.38,1.18,.31c.63,.12,1.05,.1,1.28-.08,.1-.09,.15-.24,.15-.44V11.54h-2.61Zm1.16,3.03c-.43,1.88-1.25,4.04-2.46,6.49l-1.33-.44c1.25-2.6,2.06-4.74,2.44-6.41l1.35,.36Zm5.39-.29c1.15,2.76,1.92,4.94,2.34,6.55l-1.42,.29c-.56-2.13-1.33-4.28-2.31-6.46l1.38-.38Z"/>
        <path class="cls-1" d="M338.58,16.12c0,.73-.59,1.33-1.33,1.33s-1.33-.59-1.33-1.33,.6-1.33,1.33-1.33,1.33,.59,1.33,1.33"/>
        <g>
          <path class="cls-1" d="M71.74,21.19c-.12,.91-.31,1.58-.58,2.04-.48,.73-1.03,1.1-1.65,1.1h-12.35c-.77-.02-1.36-.22-1.78-.6-.33-.31-.5-.83-.5-1.39V13.69c0-.48,.16-.64,.48-.64h14.73c.46,0,.75,.29,.75,.72v5.2c0,.46-.25,.74-.75,.74h-12.81v1.57c.01,.42,.06,.71,.15,.86,.15,.19,.33,.29,.54,.32h10.75c.23-.01,.43-.07,.6-.17,.2-.14,.35-.29,.44-.45,.06-.12,.15-.4,.17-.66h1.81Zm-14.45-3.15h4.62v-3.36h-4.41c-.15,0-.21,.07-.21,.2v3.16Zm6.6-3.36v3.36h4.5c.15-.02,.23-.09,.23-.23v-2.93c0-.14-.08-.2-.23-.2h-4.5Z"/>
          <path class="cls-1" d="M69.57,7.31h-13.51c-.67,0-1.22,.54-1.22,1.2v3.7h15.95v-3.7c0-.66-.55-1.2-1.22-1.2m-1.04,3.21c0,.05-.03,.08-.1,.1h-11.11l-.08-.1v-1.54c-.02-.06,0-.09,.08-.08h11.11l.1,.08v1.54Z"/>
          <path class="cls-1" d="M44.35,12.72v-1.22h1.43v-.63h-1.43v-1.22h1.43v-.65h-1.43s0-1.21,0-1.21h1.43v-.9h1.44v.9h1.33v1.22h-1.33v.64h1.31v1.22h-1.31v.63h1.34v1.22h-1.34v.67h1.67c.19-.02,.28-.11,.28-.28V7.22h2.08v6.92c0,.47-.24,.7-.72,.7h-15.33c-.48,0-.73-.25-.73-.7V7.22h2.07v5.89c.02,.18,.1,.28,.27,.28h1.75v-.67h-1.3v-1.22h1.3v-.63h-1.31v-1.22h1.31v-.64h-1.29v-1.22h1.29v-.97h1.33v.97h1.25v1.22h-1.25v.64h1.25v1.22h-1.25v.63h1.23v1.22h-1.23v.67h2.01V6.83h1.73v6.56h2.14v-.67h-1.43Z"/>
          <polygon class="cls-1" points="47.54 21.59 47.02 22.5 51.74 22.5 51.74 24.2 34.09 24.2 34.09 22.5 38.93 22.5 38.32 21.59 40.41 21.59 41.06 22.5 45 22.5 45.56 21.59 47.54 21.59"/>
          <rect class="cls-1" x="34.4" y="15.6" width="17.04" height="1.47"/>
          <path class="cls-1" d="M49.01,17.76h-12.18c-.66,0-1.18,.49-1.18,1.1v2.79h14.55v-2.79c0-.61-.53-1.1-1.19-1.1m-1.1,2.31s-.03,.07-.09,.08h-9.84l-.07-.08v-.75c-.01-.06,.01-.08,.07-.07h9.84l.09,.07v.75Z"/>
          <rect class="cls-1" x="95.54" y="10.79" width="4.98" height="1.69"/>
          <rect class="cls-1" x="97.04" y="7.29" width="2.17" height="17.25"/>
          <path class="cls-1" d="M94.48,19.34l1.53,.7c.07-.16,2.03-4.82,2.48-7.44l-1.66-.28c-.41,2.4-2.33,6.98-2.35,7.01"/>
          <path class="cls-1" d="M97.52,12.82c1.07,2.36,2.56,4.22,2.63,4.3l1.32-1.06s-1.43-1.78-2.4-3.94l-1.54,.7Z"/>
          <path class="cls-1" d="M101.48,16.36c0-1.01,.71-1.2,1.27-1.2h3.03v-.77h-4.89v-1.57h2.9v-.77h-2.22v-1.57h2.22v-.77h-2.6v-1.56h2.6v-.98h1.79v.98h2.5v-.98h1.79v.98h2.71v1.56h-2.71v.77h2.33v1.57h-2.33v.77h3.09v1.57h-5.09v.77h2.85c.91,0,1.36,.45,1.36,1.3v3.81h.94v1.57h-.94v1.33c-.02,.58-.34,.87-.91,1.2-.81,.4-1.7,.55-3.48,.35l.02-1.66c1.27,.06,1.62-.03,2.01-.15,.33-.16,.49-.37,.49-.62v-.45h-6.87v2.67h-1.87v-2.67h-1.13v-1.57h1.13v-3.91Zm4.3,.37h-2.04c-.34,0-.39,.16-.39,.4v.6h2.43v-1Zm0,2.57h-2.43v.97h2.43v-.97Zm2.31-7.24h-2.5v.77h2.5v-.77Zm0-2.33h-2.5v.77h2.5v-.77Zm-.21,8h2.35v-.51c0-.21,.03-.49-.44-.49h-1.91v1Zm2.35,1.57h-2.35v.97h2.35v-.97Z"/>
          <rect class="cls-1" x="75.05" y="10.72" width="4.98" height="1.69"/>
          <rect class="cls-1" x="76.55" y="7.22" width="2.17" height="17.25"/>
          <path class="cls-1" d="M73.99,19.28l1.53,.7c.07-.15,2.03-4.81,2.47-7.43l-1.67-.28c-.41,2.4-2.33,6.98-2.34,7.01"/>
          <path class="cls-1" d="M77.03,12.76c1.08,2.36,2.57,4.22,2.63,4.3l1.31-1.06s-1.42-1.78-2.41-3.94l-1.54,.7Z"/>
          <path class="cls-1" d="M91.04,18.77h-11.12v-1.69h10.05c-.19-.46-.38-.92-.38-.92l1.55-.65,.81,1.95s.28,.56,.05,.93c-.23,.39-.97,.38-.97,.38"/>
          <path class="cls-1" d="M82.14,17.71v2.67s.08,.93-.5,1.57c-.43,.47-1.15,.71-2.13,.71v1.69c1.49,0,2.63-.43,3.39-1.28,.83-.92,.93-2.06,.93-2.58,0-.1,0-.17,0-.21v-2.56h-1.69Z"/>
          <path class="cls-1" d="M82.4,17.71v2.56s0,.11,0,.21c0,.52,.1,1.66,.94,2.58,.76,.85,1.9,1.28,3.39,1.28v-1.69c-.98,0-1.7-.24-2.13-.71-.58-.64-.51-1.56-.51-1.57v-.04s0-2.64,0-2.64h-1.68Z"/>
          <path class="cls-1" d="M86.98,22.62l.46,1.63c2.68-.75,3.68-4.25,3.72-4.41l-1.62-.45c-.22,.76-1.09,2.83-2.55,3.23"/>
          <path class="cls-1" d="M87.37,16.03h4.33v-1.68h-2.01c.4-.61,1.11-1.7,1.64-2.52,0,0,.27-.36,.12-.75-.15-.36-.67-.35-.67-.35h-1.7c.65-1.14,2.04-3.45,2.04-3.45h-2.02s-2.39,4.2-2.39,4.2c0,0-.27,.43-.12,.69,.13,.24,.46,.24,.46,.24h1.89c-.46,.7-1.32,2.03-1.87,2.87,0,0-.21,.33-.09,.56,.12,.23,.39,.19,.39,.19"/>
          <path class="cls-1" d="M80.87,16.03h4.8v-1.68h-2.49c.4-.61,1.1-1.7,1.64-2.52,0,0,.27-.36,.12-.75-.14-.36-.68-.35-.68-.35h-1.7c.65-1.14,2.04-3.45,2.04-3.45h-2.01s-2.4,4.2-2.4,4.2c0,0-.27,.43-.13,.69,.13,.24,.46,.24,.46,.24h1.89c-.45,.7-1.32,2.03-1.86,2.87,0,0-.21,.33-.09,.56,.13,.23,.4,.19,.4,.19"/>
          <path class="cls-1" d="M87.85,22.75c1.03,1.28,2.06,1.84,3.06,1.66,.99-.18,1.8-1.09,2.27-2.55l-1.61-.52c-.25,.78-.64,1.35-.97,1.42-.12,.02-.59,0-1.44-1.06-2.97-3.69-2.46-14.4-2.46-14.51h-1.68c-.02,.45-.54,11.38,2.83,15.57"/>
          <path class="cls-3" d="M7.13,21.54h3.06V6.41l-3.06,3.11v12.02ZM18.35,3.12V21.54h3.07V0l-3.07,3.12Z"/>
          <path class="cls-4" d="M25.39,14.66c1.24,.98,1.95,2.14,1.95,3.38,0,3.07-4.41,5.64-10.29,6.26v-7.3c-.55,.58-1.28,.99-2.1,1.14v6.29c-.21,0-.43,0-.64,0s-.44,0-.66,0v-6.29c-.82-.14-1.55-.55-2.09-1.13v7.28c-5.88-.62-10.28-3.19-10.28-6.26,0-1.24,.72-2.39,1.95-3.38-2.02,1.29-3.23,2.94-3.23,4.74,0,4.13,6.41,7.48,14.31,7.48s14.31-3.35,14.31-7.48c0-1.8-1.21-3.45-3.23-4.74"/>
          <path class="cls-3" d="M16.98,14.42c0,1.48-1.2,2.68-2.68,2.68s-2.68-1.2-2.68-2.68,1.2-2.68,2.68-2.68,2.68,1.2,2.68,2.68"/>
        </g>
        <path class="cls-1" d="M164.96,12.09c.9,.61,1.86,1.46,2.89,2.56l-1.43,1.42c-1.08-1.12-2.01-1.96-2.79-2.51l1.33-1.48Zm.69-4.71c.96,.62,1.98,1.5,3.06,2.62l-1.4,1.44c-1.13-1.16-2.12-2.02-2.97-2.56l1.31-1.5Zm8.86,3.48h-3.08c-.45,.94-1.12,1.82-1.8,2.44l-1.64-1.22c.68-.65,1.24-1.34,1.68-2.09,.35-.61,.66-1.53,.92-2.75l1.97,.36s-.13,.58-.22,.94c-.1,.36-.23,.71-.23,.71h2.4v-2h2.19v2h4.51v1.61h-4.51v3.86h5.3v1.6h-13.23v-1.6h5.74v-3.86Z"/>
        <path class="cls-1" d="M169.6,24.5v-6.3c0-.41,.33-.75,.74-.75h10.46c.41,0,.74,.33,.74,.75v6.3h-11.93Zm9.48-5.11c0-.13-.11-.25-.25-.25h-6.5c-.14,0-.25,.11-.25,.25v3.24c0,.14,.11,.25,.25,.25h6.5c.13,0,.25-.11,.25-.25v-3.24Z"/>
        <path class="cls-1" d="M166.13,24.54c1.01-1.52,1.87-4.37,2.32-6.92l-1.99-.31c-.34,2.35-1.24,5.31-2.71,7.22h2.38Z"/>
        <path class="cls-1" d="M213.36,7.83v6.32c.01,.39-.19,.67-.61,.67h-5.33v9.73h-1.93V7.88c0-.41,.2-.6,.57-.6h6.72c.39,0,.58,.18,.58,.55m-1.94,2.48v-.81c0-.28-.15-.42-.45-.42h-3.08c-.33,0-.48,.15-.47,.46v.77h4Zm-4,1.57v1.14h3.5c.34-.01,.51-.18,.51-.49v-.65h-4Zm.65,8.93v-1.6h2.81v-1.83h-2.27v-1.58h10.72v1.58h-1.99v1.83h2.54v1.6h-2.54v3.74h-1.93v-3.74h-2.62c-.13,1.79-.78,3.07-1.68,3.75h-2.54s2.2-1.27,2.28-3.75h-2.79Zm7.35-3.43h-2.6v1.83h2.6v-1.83Zm5.16,5.06v-7.62h-5.31c-.42-.01-.63-.22-.63-.63V7.88c.01-.4,.22-.61,.63-.61h6.6c.43,0,.64,.13,.64,.66V24.56h-4.28v-1.54h1.82s.53,.08,.53-.58m0-12.15v-.66c0-.37-.19-.55-.59-.55h-2.95c-.33,0-.48,.15-.47,.46v.75h4Zm-4,1.58v.58c.01,.38,.2,.57,.56,.57h3.44v-1.14h-4Z"/>
        <rect class="cls-1" x="214.63" y="14.12" width=".69" height=".7"/>
        <rect class="cls-1" x="212.67" y="14.12" width=".69" height=".7"/>
        <path class="cls-1" d="M191.83,10.15v1.16h1.27c.17,0,.41,.12,.41,.44v4.61c.44-.72,.87-1.54,1.29-2.47l1.49,.8-1.68,3.1-1.09-.68v2.07c.01,.16-.07,.25-.25,.25h-1.35v1.23h1.49v.15c.56-.94,1.01-1.77,1.35-2.51l1.47,.81c-.75,1.46-1.35,2.51-1.78,3.15l-1.03-.67v.66h-1.49v2.33h-1.86v-2.33h-2.07v-1.61h2.07v-1.23h-1.52c-.16,0-.24-.08-.24-.25v-7.42c0-.31,.22-.44,.37-.44h1.31v-1.16h-1.52v-.22l-1.23,1.4c-1.11-.99-2.04-1.71-2.81-2.18l1.17-1.5c.87,.5,1.83,1.23,2.87,2.21v-1.32h1.52v-1.27h1.86v1.27h1.56v1.62h-1.56Zm6.02,11.22l.23-.39c.55-1.09,.91-1.99,1.09-2.7l1.54,.66c-.36,1.05-.81,2.12-1.35,3.21l-1.29-.64-.23-.14Zm.04-4.79l.19-.38,1.13-2.49,1.5,.72c-.38,.95-.84,1.94-1.39,2.96l-1.25-.7-.19-.11Zm2.54,6.44c.41-.01,.49-.27,.49-.54V12.85c0-.18-.1-.27-.3-.27h-1.97v-1.65h3.16s.81-.12,.81,.61v13.03h-3.57v-1.56h1.39Zm-14.56-11.03c.69,.52,1.41,1.23,2.17,2.15l-1.43,1.27c-.79-.92-1.5-1.61-2.11-2.05l1.37-1.37Zm6.02,2.6v-1.56c0-.06-.03-.08-.1-.06h-1.8c-.05-.02-.08,0-.08,.06v1.56h1.97Zm-1.97,1.65v1.46s.03,.08,.08,.08h1.8l.1-.08v-1.46h-1.97Z"/>
        <path class="cls-1" d="M201.56,9.18c-.58-.82-.69-1.15-.85-1.4-.15-.25-.28-.52-.8-.52h-3.03c-.52,0-.65,.28-.8,.52-.15,.25-.26,.56-.81,1.4-.56,.84-1.96,1.79-1.96,1.79h2.22c1.18-.71,1.71-1.92,1.96-2.36,.22-.36,.65-.34,.65-.34h.43s.47-.04,.65,.34c.21,.43,1.01,1.74,2.06,2.36h2.21s-1.37-.96-1.95-1.79"/>
        <path class="cls-1" d="M186.14,24.53c.91-1.52,1.59-4.37,1.89-6.91l-2.01-.3c-.19,2.35-.91,5.31-2.26,7.22h2.39Z"/>
        <path class="cls-1" d="M195.83,23.03c.41-.01,.49-.26,.49-.54V12.86c0-.18-.1-.27-.29-.27h-1.97v-1.65h3.16s.81-.12,.81,.61v13.03h-3.57v-1.56h1.38Z"/>
        <rect class="cls-1" x="192.81" y="18.72" width=".69" height=".7"/>
        <rect class="cls-1" x="188.29" y="18.72" width=".69" height=".7"/>
        <path class="cls-1" d="M232.43,16.89h-4.41s-.18-.04-.25,.06c-.07,.1-.04,.22-.04,.22v1.2h3.69c.38-.01,.59,.16,.6,.51v5.67h-6.21v-1.58h3.98c.4,0,.42-.29,.42-.29v-2.2c.01-.16-.1-.27-.21-.27h-4.17v-4.76c0-.13,.05-.24,.14-.33l.3-.1h4.39v-1.05c.01-.2-.1-.29-.32-.29h-2.76c-.91,.29-1.82,.51-2.74,.66l-1.06-1.73c1.2-.17,2.27-.41,3.21-.74l.08-.04h.14v-.04c-.88-.71-1.58-1.22-2.09-1.52l1.27-1.48c.67,.42,1.57,1.1,2.73,2.06,.83-.52,1.45-1.08,1.86-1.69h-3.49v-1.85h5.5s.6,0,.77,.23c.23,.34,.08,.8,.08,.8-.63,1.43-1.52,2.59-2.69,3.48h.92c.23-.01,.38,.2,.38,.42v4.62Z"/>
        <path class="cls-1" d="M240.06,15.95s-.37,0-.37-.54v-2.11s.03-1.22-1.42-1.22h-3.55s-1.36,.11-1.36,1.36v3.67h1.84v-3.39s.04-.42,.38-.42h1.68s.56-.06,.56,.54v3.29h3.41v-1.16h-1.19Z"/>
        <path class="cls-1" d="M233.14,19.31h2.13s2.31,3.21,6.87,5.29h-3.36s-2.76-1.16-5.64-5.29"/>
        <path class="cls-1" d="M232.71,17.61v1.33h5.94s.51-.02,.26,.49c-.25,.5-.94,1.48-3.49,3.19-1.95,1.31-3.2,1.94-3.2,1.94h3.06s1.58-.74,3.62-2.55c2.04-1.81,2.46-3.25,2.46-3.25,0,0,.29-1.15-1.1-1.15s-7.55,0-7.55,0"/>
        <path class="cls-1" d="M238.37,12.09c-1.54-1.02-2.89-2.12-4.05-3.32l1.1-1.52,1.3,1.35c.73-.63,1.2-1.13,1.62-1.6l1.3,1.1c-.43,.49-.89,1.11-1.48,1.71l.64,.46c.65-.68,1.12-1.2,1.49-1.71l1.48,1.16c-.36,.51-.76,.97-1.31,1.54,.91,.43,1.94,.85,3.09,1.25l-1.26,1.54-2.48-1.14"/>
        <path class="cls-4" d="M150.75,18.72c.9-1,1.44-2.33,1.44-3.78l3.73-.67c0,4.17-3.37,7.54-7.54,7.54,0,0-2.63,.11-3.83-1.55,.61,.23,1.27,.35,1.97,.35,1.68,0,3.19-.73,4.23-1.89"/>
        <path class="cls-4" d="M152.19,4.51V20.77c2.03-1.19,3.45-3.29,3.69-5.75,.03,.27,.04,.55,.04,.83,0,3.08-1.46,5.82-3.73,7.57v4.06h5.21V4.51h-5.21Z"/>
        <path class="cls-4" d="M142.18,13.28c-.89,1-1.44,2.33-1.44,3.78l-3.73,.67c0-4.16,3.38-7.54,7.54-7.54,0,0,2.63-.11,3.83,1.55-.61-.23-1.27-.35-1.97-.35-1.68,0-3.19,.73-4.23,1.89"/>
        <path class="cls-4" d="M140.74,27.49V11.22c-2.03,1.19-3.45,3.29-3.69,5.75-.02-.27-.04-.55-.04-.83,0-3.08,1.46-5.82,3.73-7.57V4.51h-5.21V27.49h5.21Z"/>
        <path class="cls-2" d="M149.9,16c0,1.9-1.54,3.44-3.44,3.44s-3.44-1.54-3.44-3.44,1.54-3.44,3.44-3.44,3.44,1.54,3.44,3.44"/>
      </g>
      <g>
        <circle class="cls-1" cx="452.5" cy="16.03" r="12.05"/>
        <g>
          <path class="cls-5" d="M449.27,11.06c3.36-3.19,7.53-5.34,9.86-4.79-1.89-1.28-4.17-2.03-6.62-2.03-6.51,0-11.79,5.28-11.79,11.8,0,2.78,.97,5.34,2.58,7.36-.95-3.11,2.23-8.78,5.98-12.33"/>
          <path class="cls-5" d="M460.67,7.52c.63,1.43-.12,3.74-2.73,6.54-3.12,3.35-5.44,4.86-6.94,3.93-1.5-.93,2.2-5.78,3.35-6.48,1.15-.69,.69,1.39,.69,1.39,0,0,5.09-3.12,3.59-4.86-.97-1.12-5.9,2.43-8.56,5.9-2.66,3.47-4.12,7-2.54,8.67,1.97,2.08,6.47-.7,10.29-3.59,1.39-1.04,1.39-.35,.92,.35,0,0-6.97,8.81-13.19,6.18,1.95,1.42,4.35,2.26,6.94,2.26,6.52,0,11.79-5.28,11.79-11.79,0-3.34-1.39-6.36-3.63-8.51"/>
        </g>
        <g>
          <path class="cls-1" d="M537.35,5.49h0c0-.17-.14-.32-.31-.32h-7.45v1.81h7.77v-1.49Z"/>
          <path class="cls-1" d="M501.84,7.94c0-.17-.13-.31-.31-.31h-2.92c.16-.27,.32-.57,.51-.89h0l.13-.22h1.99v-1.15c0-.18-.14-.32-.32-.32h-4.9c-.13-.37-.29-.77-.46-1.09l-1.85,.34c.1,.22,.19,.5,.27,.75h-5.42v1.47h2.24c.03,.06,.08,.15,.12,.24,.11,.26,.24,.58,.32,.88h-3.22v1.47h13.82v-1.16Zm-5.18-.31h-3.51c-.1-.34-.27-.77-.45-1.12h4.4c-.11,.34-.29,.75-.45,1.12"/>
          <path class="cls-1" d="M497.05,17.37h-3.34c-.72,0-.97-.05-.97-.46v-1.35c0-.17-.14-.31-.31-.32h-1.54v1.68c0,1.5,.62,1.97,2.63,1.97h4.23c1.49,0,1.8-1.01,1.81-2.67h-1.74c-.08,1.12-.18,1.15-.77,1.15"/>
          <path class="cls-1" d="M500.49,14.54v-4.55h0c0-.18-.14-.32-.31-.32h-10.85v4.87h4.68l-.53,.64c.91,.56,1.84,1.47,2.43,1.96l1.33-1.17c-.4-.32-1.38-1.03-2.14-1.43h5.38Zm-9.37-3.69h7.48v.69h-7.48v-.69Zm0,1.78h7.48v.72h-7.48v-.72Z"/>
          <path class="cls-1" d="M487.47,18.14h2.09c.38-.85,.79-2.25,1.01-2.9h-1.71c-.39,.91-1.05,2.35-1.39,2.9"/>
          <path class="cls-1" d="M500.49,14.89l-1.19,.74c.62,.71,1.79,2.05,2.15,2.59l1.34-1.18c-.35-.45-1.9-1.8-2.3-2.15"/>
          <path class="cls-1" d="M481.32,6.97h0c0-.18-.14-.32-.32-.32h-1.47V15.57h1.79V6.97Z"/>
          <path class="cls-1" d="M483.99,4.5c0-.18-.14-.32-.32-.32h-1.5v12.57c0,.27-.11,.35-.37,.35s-1.09,0-1.9-.02l.56,1.9c1.28,0,2.19-.06,2.75-.38,.59-.3,.78-.81,.78-1.84V4.5h0Z"/>
          <path class="cls-1" d="M478.24,14.8h-5.61c.03-.16,.05-.47,.08-.63h5.54v-4.7h0c0-.18-.14-.32-.32-.32h-6.79v1.84c0,1.87-.13,4.85-1.39,6.88h2.02c.28-.64,.5-1.46,.66-2.18v3.1h6.12v-3.68c0-.17-.14-.31-.32-.31m-5.34-3.81v-.59h3.63v.68h-3.63v-.1Zm-.03,1.16h3.66v.71h-3.69c.02-.22,.03-.5,.03-.71m4.03,5.24h-2.88v-1.35h2.88v1.35Z"/>
          <path class="cls-1" d="M476.02,4.46l-1.17-.63c-.22-.11-.33-.13-.56,.16-1.16,1.42-2.53,2.89-4.53,4.78h2.43c.3-.28,.67-.61,.91-.91v.75h3.88v-.82c.6,.46,1.12,.87,1.28,1.01l.92-1.59c-.73-.55-2.25-1.6-3.44-2.33,.1-.13,.19-.27,.29-.42m.5,2.97h-3.05c.37-.39,.88-.97,1.24-1.35,.24,.16,1.03,.76,1.81,1.35"/>
          <path class="cls-1" d="M554.96,8.57h-2.53V4.47h0c0-.17-.13-.31-.3-.32h-1.52v4.42h-2.81v4.93c0,1.52-.25,4.11-.97,5.4h1.87c.21-.64,.55-2.1,.64-2.8,.32-.11,2.97-.76,4.23-1.09v1.95c0,.21-.08,.29-.32,.29-.24,.02-1.01,.02-1.74-.03l.53,1.76c1.17,0,1.93-.02,2.48-.3,.59-.29,.75-.8,.75-1.68V8.89h0c0-.18-.14-.32-.31-.32m-1.39,4.88c-1.55,.35-2.97,.7-4.11,.93,0-.16,0-1.28,0-2.35h0s0-.01,0-.01c0-1.01,0-1.85,0-1.85h4.11v3.28Z"/>
          <path class="cls-1" d="M546.88,16.44l-1.84,.29v-4.13h1.87v-1.61h-1.87v-1.29h1.29s0-1.17,0-1.17c.29,.28,.52,.51,.62,.59l.82-1.42c-.62-.57-1.42-1.36-2.56-2.29,.05-.07,.24-.37,.32-.49l-1.04-.63c-.25-.13-.36-.18-.61,.12-.91,1.2-2.14,2.58-3.79,4.31h1.68v.97h1.73v1.29h-2.22v1.61h2.22v4.38c-.76,.12-1.63,.22-2.22,.31v1.78c1.56-.36,3.73-.76,5.66-1.23l-.06-1.41Zm-4.01-8.23c.51-.56,1.24-1.35,1.45-1.58,.25,.16,1.03,.93,1.68,1.58h-3.14Z"/>
          <path class="cls-1" d="M545.33,15.85l1.12,.34c.26-.67,.58-1.7,.89-2.6l-1.43-.36c-.14,.85-.36,1.84-.58,2.62"/>
          <path class="cls-1" d="M543.14,16.14c-.12-.74-.38-1.92-.65-2.81l-1.27,.33c.23,.89,.48,2.07,.56,2.86l1.36-.38Z"/>
          <path class="cls-1" d="M550.1,7.63c-.21-.68-.64-1.92-1.17-2.79l-1.52,.69c.75,1.27,1.02,2.44,1.13,2.73l1.56-.62Z"/>
          <path class="cls-1" d="M555.64,5.5l-1.6-.57c-.3,.95-.63,1.92-1.08,2.75l1.58,.6c.44-.84,.79-1.73,1.1-2.78"/>
          <path class="cls-1" d="M553.44,12.05c-.73-.43-2.16-.93-3.26-1.15l-.72,1.13h0c1.1,.31,2.46,.86,3.16,1.3l.82-1.28Z"/>
          <path class="cls-1" d="M537.31,9.19h-8.03v1.81h4.19v5.81c0,.24-.11,.3-.4,.3-.29,.02-1.34,.02-2.25-.03l.57,1.93c1.42,0,2.47-.03,3.14-.32,.7-.29,.89-.81,.89-1.84v-5.86h2.19v-1.49c0-.17-.14-.31-.31-.31"/>
          <path class="cls-1" d="M528.02,7.51c-.3-.12-.42-.16-.64,.13h0c-1.33,1.85-3,3.73-4.6,5.35h2.46v5.96h1.9v-7.94c.65-.86,1.67-2.18,2.15-2.99l-1.27-.52Z"/>
          <path class="cls-1" d="M525.35,8.68c.77-.88,1.97-2.39,2.76-3.5l-1.24-.51-.09-.04c-.15-.06-.28-.08-.48,.18-.02,.02-.03,.04-.04,.05-1.01,1.32-2.41,2.82-3.37,3.82h2.45Z"/>
          <path class="cls-1" d="M516.81,12.69c.7-.48,1.56-1.11,2.2-1.6l-1.18-1.04c-.23-.2-.37-.12-.51,0-.77,.72-1.9,1.57-2.89,2.23-.32-.69-.78-1.36-1.41-1.93,.35-.22,.67-.56,.96-.82h3.48v-1.24h0c0-.18-.14-.32-.31-.32h-8.55v1.56h2.81c-1.52,.77-3.4,1.47-5.21,1.84l.97,1.49c1.5-.4,3.05-.94,4.44-1.68,.13,.13,.33,.39,.43,.59-1.39,.93-3.99,1.87-5.96,2.29l.94,1.47c1.82-.56,4.14-1.59,5.73-2.59,.1,.21,.21,.46,.28,.65-1.81,1.41-4.67,2.66-7.19,3.2l.99,1.58h0c2.13-.64,4.68-1.86,6.5-3.11,0,.77-.23,1.38-.48,1.67-.26,.31-.51,.37-.89,.37s-.88-.02-1.44-.08l.51,1.81c.46,.02,.94,.03,1.29,.02,.83-.02,1.34-.17,1.93-.71,.78-.71,1.17-2.55,.72-4.46,.18-.12,.32-.23,.48-.34,.79,1.94,1.97,3.56,3.51,4.55l1.57-1.38c-1.61-.88-2.86-2.22-3.75-4.01"/>
          <path class="cls-1" d="M507.87,7.04h10.22v1.97h1.81v-3.2c0-.17-.14-.31-.31-.31h-5.37c-.16-.46-.43-1.08-.69-1.52l-2.01,.57c.13,.24,.27,.64,.38,.94h-5.78v3.52h1.76v-1.97Z"/>
          <path class="cls-1" d="M494.42,22.89h-4.03v.7h1.7v4.06h1.14v-4.06h1.6v-.26c0-.27-.06-.44-.41-.44"/>
          <path class="cls-1" d="M500.19,23.96c-.11-.18-.25-.34-.41-.49-.16-.14-.34-.27-.53-.37-.19-.1-.4-.18-.63-.23-.23-.05-.46-.08-.71-.08s-.48,.03-.71,.08c-.23,.05-.44,.13-.63,.23-.19,.1-.37,.22-.53,.37-.16,.15-.3,.31-.41,.49-.11,.18-.2,.38-.26,.59-.06,.21-.09,.44-.09,.68s.03,.48,.09,.7c.06,.22,.15,.42,.26,.61,.11,.19,.25,.36,.41,.5,.16,.15,.34,.28,.53,.38,.19,.1,.4,.18,.63,.24,.23,.06,.46,.09,.71,.09s.48-.03,.71-.08c.23-.05,.44-.13,.63-.24,.19-.1,.37-.23,.53-.38,.16-.15,.3-.32,.41-.5,.11-.19,.2-.39,.26-.61s.09-.46,.09-.71c0-.24-.03-.46-.09-.68s-.15-.41-.26-.59m-.92,2.1c-.06,.25-.15,.47-.27,.65-.12,.18-.27,.32-.45,.43-.18,.1-.38,.15-.61,.15s-.44-.05-.62-.15c-.18-.1-.33-.24-.45-.43-.12-.18-.21-.4-.27-.65-.06-.25-.09-.52-.09-.82s.03-.56,.09-.8c.06-.24,.15-.45,.27-.62,.12-.17,.27-.31,.45-.41,.18-.1,.38-.15,.62-.15s.44,.05,.61,.15c.18,.1,.33,.23,.45,.41,.12,.17,.21,.38,.27,.62,.06,.24,.09,.51,.09,.8s-.03,.57-.09,.82"/>
          <path class="cls-1" d="M504.43,25.17c.13-.08,.25-.17,.34-.27,.1-.1,.17-.21,.22-.33,.05-.12,.08-.25,.08-.38,0-.19-.04-.36-.12-.52s-.19-.3-.35-.41c-.15-.12-.35-.21-.58-.27-.23-.06-.5-.1-.81-.1h-1.11c-.32,0-.58,.26-.58,.58v4.17h1.07v-2.15h.21l1.6,2.15h1.27l-1.69-2.28c.16-.05,.31-.12,.44-.2m-.65-.6c-.05,.11-.12,.2-.21,.27-.09,.07-.19,.13-.32,.17-.12,.04-.25,.06-.4,.06h-.25v-1.73h.47c.11,0,.22,.02,.31,.06,.09,.04,.18,.1,.25,.18,.07,.08,.12,.17,.16,.27,.04,.1,.06,.22,.06,.34,0,.14-.03,.26-.08,.37"/>
          <path class="cls-1" d="M481.21,23.47h0v4.17h3.46v-.78h-2.38v-1.3h1.98v-.7h-1.98v-1.27h2.54v-.7h-3.03c-.32,0-.58,.26-.58,.58"/>
          <path class="cls-1" d="M479.08,25.17c.13-.08,.25-.17,.34-.27,.1-.1,.17-.21,.22-.33,.05-.12,.08-.25,.08-.38,0-.19-.04-.36-.12-.52-.08-.16-.19-.3-.35-.41-.15-.12-.35-.21-.58-.27-.23-.06-.5-.1-.81-.1h-1.11c-.32,0-.58,.26-.58,.58v4.17h1.07v-2.06h.28l1.53,2.06h1.27l-1.69-2.28c.16-.05,.31-.12,.44-.2m-.65-.6c-.05,.11-.12,.2-.21,.27-.09,.07-.19,.13-.32,.17-.12,.04-.25,.06-.4,.06h-.25v-1.73h.47c.11,0,.22,.02,.31,.06,.09,.04,.18,.1,.25,.18,.07,.08,.12,.17,.16,.27,.04,.1,.06,.22,.06,.34,0,.14-.03,.26-.08,.37"/>
          <path class="cls-1" d="M540.84,22.89h-4.03v.7h1.7v4.06h1.14v-4.06h1.6v-.37c0-.21-.1-.33-.41-.33"/>
          <path class="cls-1" d="M543.08,22.89h-.75v4.76h1.17v-4.38c0-.23-.08-.37-.41-.37"/>
          <path class="cls-1" d="M533.36,25.57h1.98v-.7h-1.98v-1.27h2.48v-.7h-2.97c-.32,0-.58,.26-.58,.58h0v4.17h3.65v-.78h-2.57v-1.3Z"/>
          <path class="cls-1" d="M524.83,25.17c.13-.08,.25-.17,.34-.27,.1-.1,.17-.21,.22-.33,.05-.12,.08-.25,.08-.38,0-.19-.04-.36-.12-.52-.08-.16-.19-.3-.35-.41-.15-.12-.35-.21-.58-.27-.23-.06-.5-.1-.81-.1h-1.11c-.32,0-.58,.26-.58,.58v4.17h1.07v-2.06h.28l1.53,2.06h1.27l-1.69-2.28c.16-.05,.31-.12,.44-.2m-.65-.6c-.05,.11-.12,.2-.21,.27-.09,.07-.19,.13-.32,.17-.12,.04-.25,.06-.4,.06h-.25v-1.73h.47c.11,0,.22,.02,.31,.06,.09,.04,.18,.1,.25,.18,.07,.08,.12,.17,.16,.27,.04,.1,.06,.22,.06,.34,0,.14-.03,.26-.08,.37"/>
          <path class="cls-1" d="M518.73,22.77h-.34c-.08,0-.14,.07-.17,.14-.52,1.2-2.23,4.74-2.23,4.74h1l.61-1.3h1.75l.59,1.3h1.1s-1.6-3.56-2.14-4.74c-.04-.08-.06-.14-.17-.14m-.85,2.99l.63-1.35,.58,1.35h-1.21Z"/>
          <path class="cls-1" d="M488.18,22.77h-.34c-.08,0-.14,.07-.17,.14-.52,1.2-2.23,4.74-2.23,4.74h1l.61-1.3h1.75l.59,1.3h1.1s-1.6-3.56-2.14-4.74c-.04-.08-.06-.14-.17-.14m-.85,2.99l.63-1.35,.58,1.35h-1.21Z"/>
          <path class="cls-1" d="M472.91,23.62c.66,0,1.12,.42,1.34,.68,.08,.09,.18,.15,.3,.06,0,0,.41-.29,.41-.29-.26-.49-.89-1.34-2.31-1.34s-2.57,1.13-2.57,2.52,1.15,2.52,2.57,2.52c.92,0,1.74-.43,2.2-1.14,.03-.05,.07-.1,.09-.16l-.41-.31c-.12-.09-.23-.05-.32,.04-1.08,1.1-2.44,.62-2.79-.43-.37-1.12,.55-2.14,1.48-2.14"/>
          <path class="cls-1" d="M555.13,25.35h-1.65v.41h.78v.85c-.92,.67-2.47,.33-2.47-1.34,0-1.37,.98-1.74,1.51-1.74,.67,0,1.16,.47,1.39,.75h0v.02c.12,.12,.22,.12,.32,.02l.38-.36c-.1-.15-.22-.29-.36-.43-.15-.14-.31-.26-.49-.37-.18-.11-.38-.2-.6-.26-.21-.07-.44-.1-.67-.1-.26,0-.51,.03-.75,.08-.24,.06-.45,.14-.65,.24-.2,.11-.38,.23-.54,.39-.16,.15-.3,.32-.41,.51-.11,.19-.2,.4-.26,.63-.06,.23-.09,.47-.09,.72,0,.36,.07,.69,.2,.99,.14,.3,.32,.55,.56,.76,.24,.21,.53,.37,.86,.49,.24,.08,.49,.13,.76,.16,.7,.04,1.75-.03,2.45-.8v-1.3c0-.23-.11-.29-.26-.3"/>
          <path class="cls-1" d="M514.05,23.15l-1.5,2.99-1.53-3.02c-.07-.13-.14-.22-.37-.22h-.88v4.76h.74v-3.14l1.61,3.14h.45l1.55-3.1v3.1h1.11v-4.76h-.8c-.24,0-.31,.11-.38,.26"/>
          <path class="cls-1" d="M549.32,22.89h-.69v3.22l-2.31-3.07c-.07-.08-.15-.14-.3-.15h-.95v4.76h1.13v-3.26l2.55,3.33h.94v-4.51c0-.19-.1-.32-.37-.32"/>
          <path class="cls-1" d="M528.88,24.96l2.14-2.07h-1.02l-1.87,1.73v-1.4c0-.19-.09-.33-.36-.33h-.76v4.76h1.11v-1.98l2.06,1.98h1.41l-2.72-2.69Z"/>
        </g>
      </g>
    </g>
  </g>
</svg>