<?xml version="1.0" encoding="UTF-8"?>
<svg id="_圖層_2" data-name="圖層 2" xmlns="http://www.w3.org/2000/svg" viewBox="0 0 86.82 86.27">
  <defs>
    <style>
      .cls-1 {
        fill: #fff;
      }
    </style>
  </defs>
  <g id="_圖層_2-2" data-name="圖層 2">
    <g>
      <path class="cls-1" d="M50.47,29.26v-6.04h7.02v-3.13h-7.02v-6.05h7.02v-3.21l-7.02,.04V4.83h7.02V.37h7.07V4.83h6.53v6.06h-6.53v3.16h6.46v6.05h-6.46v3.13h6.57v6.04h-6.57v3.34h8.23c.93-.08,1.4-.54,1.4-1.39V1.97h10.21V36.34c0,2.32-1.18,3.48-3.55,3.48H5.44c-2.37-.05-3.57-1.22-3.57-3.48V1.97H12.06V31.21c.09,.92,.52,1.39,1.33,1.39h8.64v-3.34h-6.41v-6.04h6.41v-3.13h-6.43v-6.05h6.43v-3.16h-6.36V4.83h6.36V0h6.56V4.83h6.13v6.06h-6.13v3.16h6.13v6.05h-6.13v3.13h6.07v6.04h-6.07v3.34h9.88V.03h8.5V32.6h10.52v-3.34h-7.02Z"/>
      <polygon class="cls-1" points="66.16 73.32 63.61 77.83 86.82 77.83 86.82 86.27 0 86.27 0 77.83 23.83 77.83 20.84 73.32 31.1 73.32 34.28 77.83 53.7 77.83 56.43 73.32 66.16 73.32"/>
      <rect class="cls-1" x="1.52" y="43.58" width="83.81" height="7.32"/>
      <path class="cls-1" d="M73.39,54.29H13.46c-3.22,0-5.82,2.43-5.82,5.44v13.85H79.21v-13.85c0-3.01-2.6-5.44-5.82-5.44Zm-5.41,11.46c0,.22-.15,.35-.44,.42H19.11l-.35-.42v-3.74c-.07-.27,.08-.39,.35-.33h48.42l.44,.33v3.74Z"/>
    </g>
  </g>
</svg>