<svg xmlns="http://www.w3.org/2000/svg" xmlns:xlink="http://www.w3.org/1999/xlink" width="1600" height="800"
  viewBox="0 0 1600 800"
  class="md:w-full w-[236%] h-auto md:static absolute left-[60%] top-[6%] md:translate-x-0 -translate-x-1/2">
  <g style="mask: url(#line-mask_2_back);">
    <circle cx="31.429" cy="31.429" r="31.429" transform="translate(62.421 492.11)" fill="#00955a"></circle>
    <circle cx="31.501" cy="31.501" r="31.501" transform="translate(66.043 494.515)" fill="#00955a"></circle>
    <circle cx="31.572" cy="31.572" r="31.572" transform="translate(69.732 496.714)" fill="#01955a"></circle>
    <circle cx="31.644" cy="31.644" r="31.644" transform="translate(73.484 498.707)" fill="#01955a"></circle>
    <circle cx="31.716" cy="31.716" r="31.716" transform="translate(77.298 500.5)" fill="#019559"></circle>
    <circle cx="31.788" cy="31.788" r="31.788" transform="translate(81.173 502.093)" fill="#019659"></circle>
    <circle cx="31.86" cy="31.86" r="31.86" transform="translate(85.106 503.49)" fill="#029659"></circle>
    <circle cx="31.931" cy="31.931" r="31.931" transform="translate(89.096 504.695)" fill="#029659"></circle>
    <circle cx="32.003" cy="32.003" r="32.003" transform="translate(93.141 505.708)" fill="#029659"></circle>
    <circle cx="32.075" cy="32.075" r="32.075" transform="translate(97.238 506.534)" fill="#029659"></circle>
    <circle cx="32.147" cy="32.147" r="32.147" transform="translate(101.386 507.175)" fill="#039659"></circle>
    <circle cx="32.219" cy="32.219" r="32.219" transform="translate(105.584 507.634)" fill="#039658"></circle>
    <circle cx="32.29" cy="32.29" r="32.29" transform="translate(109.83 507.914)" fill="#039658"></circle>
    <circle cx="32.362" cy="32.362" r="32.362" transform="translate(114.121 508.016)" fill="#039758"></circle>
    <circle cx="32.434" cy="32.434" r="32.434" transform="translate(118.456 507.945)" fill="#049758"></circle>
    <circle cx="32.506" cy="32.506" r="32.506" transform="translate(122.832 507.703)" fill="#049758"></circle>
    <circle cx="32.577" cy="32.577" r="32.577" transform="translate(127.25 507.293)" fill="#049758"></circle>
    <circle cx="32.649" cy="32.649" r="32.649" transform="translate(131.704 506.717)" fill="#049757"></circle>
    <circle cx="32.721" cy="32.721" r="32.721" transform="translate(136.195 505.978)" fill="#059757"></circle>
    <circle cx="32.793" cy="32.793" r="32.793" transform="translate(140.721 505.079)" fill="#059757"></circle>
    <circle cx="32.865" cy="32.865" r="32.865" transform="translate(145.28 504.023)" fill="#059757"></circle>
    <circle cx="32.936" cy="32.936" r="32.936" transform="translate(149.87 502.814)" fill="#059857"></circle>
    <circle cx="33.008" cy="33.008" r="33.008" transform="translate(154.488 501.451)" fill="#069857"></circle>
    <circle cx="33.08" cy="33.08" r="33.08" transform="translate(159.133 499.94)" fill="#069857"></circle>
    <circle cx="33.152" cy="33.152" r="33.152" transform="translate(163.804 498.283)" fill="#069856"></circle>
    <circle cx="33.224" cy="33.224" r="33.224" transform="translate(168.498 496.482)" fill="#069856"></circle>
    <circle cx="33.295" cy="33.295" r="33.295" transform="translate(173.215 494.542)" fill="#079856"></circle>
    <circle cx="33.367" cy="33.367" r="33.367" transform="translate(177.951 492.463)" fill="#079856"></circle>
    <circle cx="33.439" cy="33.439" r="33.439" transform="translate(182.704 490.249)" fill="#079856"></circle>
    <circle cx="33.511" cy="33.511" r="33.511" transform="translate(187.474 487.903)" fill="#089956"></circle>
    <circle cx="33.582" cy="33.582" r="33.582" transform="translate(192.259 485.428)" fill="#089956"></circle>
    <circle cx="33.654" cy="33.654" r="33.654" transform="translate(197.056 482.826)" fill="#089955"></circle>
    <circle cx="33.726" cy="33.726" r="33.726" transform="translate(201.863 480.099)" fill="#089955"></circle>
    <circle cx="33.798" cy="33.798" r="33.798" transform="translate(206.679 477.252)" fill="#099955"></circle>
    <circle cx="33.87" cy="33.87" r="33.87" transform="translate(211.501 474.286)" fill="#099955"></circle>
    <circle cx="33.941" cy="33.941" r="33.941" transform="translate(216.33 471.205)" fill="#099955"></circle>
    <circle cx="34.013" cy="34.013" r="34.013" transform="translate(221.161 468.011)" fill="#099955"></circle>
    <circle cx="34.085" cy="34.085" r="34.085" transform="translate(225.994 464.707)" fill="#0a9a54"></circle>
    <circle cx="34.157" cy="34.157" r="34.157" transform="translate(230.826 461.295)" fill="#0a9a54"></circle>
    <circle cx="34.229" cy="34.229" r="34.229" transform="translate(235.655 457.779)" fill="#0a9a54"></circle>
    <circle cx="34.3" cy="34.3" r="34.3" transform="translate(240.482 454.162)" fill="#0a9a54"></circle>
    <circle cx="34.372" cy="34.372" r="34.372" transform="translate(245.301 450.445)" fill="#0b9a54"></circle>
    <circle cx="34.444" cy="34.444" r="34.444" transform="translate(250.113 446.631)" fill="#0b9a54"></circle>
    <circle cx="34.516" cy="34.516" r="34.516" transform="translate(254.915 442.725)" fill="#0b9a54"></circle>
    <circle cx="34.587" cy="34.587" r="34.587" transform="translate(259.707 438.728)" fill="#0b9a53"></circle>
    <circle cx="34.659" cy="34.659" r="34.659" transform="translate(264.484 434.643)" fill="#0c9a53"></circle>
    <circle cx="34.731" cy="34.731" r="34.731" transform="translate(269.246 430.473)" fill="#0c9b53"></circle>
    <circle cx="34.803" cy="34.803" r="34.803" transform="translate(273.991 426.22)" fill="#0c9b53"></circle>
    <circle cx="34.875" cy="34.875" r="34.875" transform="translate(278.717 421.888)" fill="#0c9b53"></circle>
    <circle cx="34.946" cy="34.946" r="34.946" transform="translate(283.423 417.48)" fill="#0d9b53"></circle>
    <circle cx="35.018" cy="35.018" r="35.018" transform="translate(288.106 412.997)" fill="#0d9b53"></circle>
    <circle cx="35.09" cy="35.09" r="35.09" transform="translate(292.765 408.443)" fill="#0d9b52"></circle>
    <circle cx="35.162" cy="35.162" r="35.162" transform="translate(297.397 403.82)" fill="#0d9b52"></circle>
    <circle cx="35.234" cy="35.234" r="35.234" transform="translate(302.001 399.132)" fill="#0e9b52"></circle>
    <circle cx="35.305" cy="35.305" r="35.305" transform="translate(306.576 394.381)" fill="#0e9c52"></circle>
    <circle cx="35.377" cy="35.377" r="35.377" transform="translate(311.118 389.57)" fill="#0e9c52"></circle>
    <circle cx="35.449" cy="35.449" r="35.449" transform="translate(315.627 384.701)" fill="#0f9c52"></circle>
    <circle cx="35.521" cy="35.521" r="35.521" transform="translate(320.1 379.777)" fill="#0f9c51"></circle>
    <circle cx="35.592" cy="35.592" r="35.592" transform="translate(324.537 374.803)" fill="#0f9c51"></circle>
    <circle cx="35.664" cy="35.664" r="35.664" transform="translate(328.934 369.779)" fill="#0f9c51"></circle>
    <circle cx="35.736" cy="35.736" r="35.736" transform="translate(333.29 364.708)" fill="#109c51"></circle>
    <circle cx="35.808" cy="35.808" r="35.808" transform="translate(337.603 359.594)" fill="#109c51"></circle>
    <circle cx="35.88" cy="35.88" r="35.88" transform="translate(341.872 354.439)" fill="#109d51"></circle>
    <circle cx="35.951" cy="35.951" r="35.951" transform="translate(346.095 349.247)" fill="#109d51"></circle>
    <circle cx="36.023" cy="36.023" r="36.023" transform="translate(350.268 344.019)" fill="#119d50"></circle>
    <circle cx="36.095" cy="36.095" r="36.095" transform="translate(354.392 338.758)" fill="#119d50"></circle>
    <circle cx="36.167" cy="36.167" r="36.167" transform="translate(358.463 333.468)" fill="#119d50"></circle>
    <circle cx="36.239" cy="36.239" r="36.239" transform="translate(362.481 328.151)" fill="#119d50"></circle>
    <circle cx="36.31" cy="36.31" r="36.31" transform="translate(366.443 322.811)" fill="#129d50"></circle>
    <circle cx="36.382" cy="36.382" r="36.382" transform="translate(370.348 317.448)" fill="#129d50"></circle>
    <circle cx="36.454" cy="36.454" r="36.454" transform="translate(374.192 312.067)" fill="#129e50"></circle>
    <circle cx="36.526" cy="36.526" r="36.526" transform="translate(377.976 306.67)" fill="#129e4f"></circle>
    <circle cx="36.597" cy="36.597" r="36.597" transform="translate(381.698 301.262)" fill="#139e4f"></circle>
    <circle cx="36.669" cy="36.669" r="36.669" transform="translate(385.353 295.842)" fill="#139e4f"></circle>
    <circle cx="36.741" cy="36.741" r="36.741" transform="translate(388.942 290.414)" fill="#139e4f"></circle>
    <circle cx="36.813" cy="36.813" r="36.813" transform="translate(392.462 284.982)" fill="#139e4f"></circle>
    <circle cx="36.885" cy="36.885" r="36.885" transform="translate(395.912 279.548)" fill="#149e4f"></circle>
    <circle cx="36.956" cy="36.956" r="36.956" transform="translate(399.29 274.115)" fill="#149e4e"></circle>
    <circle cx="37.028" cy="37.028" r="37.028" transform="translate(402.594 268.686)" fill="#149e4e"></circle>
    <circle cx="37.1" cy="37.1" r="37.1" transform="translate(405.821 263.262)" fill="#149f4e"></circle>
    <circle cx="37.172" cy="37.172" r="37.172" transform="translate(408.971 257.848)" fill="#159f4e"></circle>
    <circle cx="37.244" cy="37.244" r="37.244" transform="translate(412.04 252.446)" fill="#159f4e"></circle>
    <circle cx="37.315" cy="37.315" r="37.315" transform="translate(415.03 247.06)" fill="#159f4e"></circle>
    <circle cx="37.387" cy="37.387" r="37.387" transform="translate(417.935 241.69)" fill="#169f4e"></circle>
    <circle cx="37.459" cy="37.459" r="37.459" transform="translate(420.755 236.34)" fill="#169f4d"></circle>
    <circle cx="37.531" cy="37.531" r="37.531" transform="translate(423.487 231.014)" fill="#169f4d"></circle>
    <circle cx="37.602" cy="37.602" r="37.602" transform="translate(426.132 225.714)" fill="#169f4d"></circle>
    <circle cx="37.674" cy="37.674" r="37.674" transform="translate(428.686 220.442)" fill="#17a04d"></circle>
    <circle cx="37.746" cy="37.746" r="37.746" transform="translate(431.146 215.201)" fill="#17a04d"></circle>
    <circle cx="37.818" cy="37.818" r="37.818" transform="translate(433.513 209.994)" fill="#17a04d"></circle>
    <circle cx="37.89" cy="37.89" r="37.89" transform="translate(435.783 204.824)" fill="#17a04d"></circle>
    <circle cx="37.961" cy="37.961" r="37.961" transform="translate(437.956 199.695)" fill="#18a04c"></circle>
    <circle cx="38.033" cy="38.033" r="38.033" transform="translate(440.028 194.607)" fill="#18a04c"></circle>
    <circle cx="38.105" cy="38.105" r="38.105" transform="translate(441.998 189.565)" fill="#18a04c"></circle>
    <circle cx="38.177" cy="38.177" r="38.177" transform="translate(443.865 184.57)" fill="#18a04c"></circle>
    <circle cx="38.249" cy="38.249" r="38.249" transform="translate(445.626 179.627)" fill="#19a14c"></circle>
    <circle cx="38.32" cy="38.32" r="38.32" transform="translate(447.281 174.738)" fill="#19a14c"></circle>
    <circle cx="38.392" cy="38.392" r="38.392" transform="translate(448.825 169.904)" fill="#19a14b"></circle>
    <circle cx="38.464" cy="38.464" r="38.464" transform="translate(450.259 165.129)" fill="#19a14b"></circle>
    <circle cx="38.536" cy="38.536" r="38.536" transform="translate(451.58 160.416)" fill="#1aa14b"></circle>
    <circle cx="38.608" cy="38.608" r="38.608" transform="translate(452.787 155.768)" fill="#1aa14b"></circle>
    <circle cx="38.679" cy="38.679" r="38.679" transform="translate(453.878 151.188)" fill="#1aa14b"></circle>
    <circle cx="38.751" cy="38.751" r="38.751" transform="translate(454.849 146.677)" fill="#1aa14b"></circle>
    <circle cx="38.823" cy="38.823" r="38.823" transform="translate(455.7 142.24)" fill="#1ba24b"></circle>
    <circle cx="38.895" cy="38.895" r="38.895" transform="translate(456.43 137.878)" fill="#1ba24a"></circle>
    <circle cx="38.966" cy="38.966" r="38.966" transform="translate(457.036 133.595)" fill="#1ba24a"></circle>
    <circle cx="39.038" cy="39.038" r="39.038" transform="translate(457.516 129.393)" fill="#1ca24a"></circle>
    <circle cx="39.11" cy="39.11" r="39.11" transform="translate(457.868 125.275)" fill="#1ca24a"></circle>
    <circle cx="39.182" cy="39.182" r="39.182" transform="translate(458.091 121.244)" fill="#1ca24a"></circle>
    <circle cx="39.254" cy="39.254" r="39.254" transform="translate(458.182 117.302)" fill="#1ca24a"></circle>
    <circle cx="39.325" cy="39.325" r="39.325" transform="translate(458.142 113.454)" fill="#1da24a"></circle>
    <circle cx="39.397" cy="39.397" r="39.397" transform="translate(457.965 109.699)" fill="#1da349"></circle>
    <circle cx="39.469" cy="39.469" r="39.469" transform="translate(457.652 106.043)" fill="#1da349"></circle>
    <circle cx="39.541" cy="39.541" r="39.541" transform="translate(457.2 102.488)" fill="#1da349"></circle>
    <circle cx="39.613" cy="39.613" r="39.613" transform="translate(456.608 99.035)" fill="#1ea349"></circle>
    <circle cx="39.684" cy="39.684" r="39.684" transform="translate(455.875 95.691)" fill="#1ea349"></circle>
    <circle cx="39.756" cy="39.756" r="39.756" transform="translate(454.996 92.454)" fill="#1ea349"></circle>
    <circle cx="39.828" cy="39.828" r="39.828" transform="translate(453.971 89.329)" fill="#1ea348"></circle>
    <circle cx="39.9" cy="39.9" r="39.9" transform="translate(452.799 86.318)" fill="#1fa348"></circle>
    <circle cx="39.971" cy="39.971" r="39.971" transform="translate(451.478 83.426)" fill="#1fa348"></circle>
    <circle cx="40.043" cy="40.043" r="40.043" transform="translate(450.004 80.653)" fill="#1fa448"></circle>
    <circle cx="40.115" cy="40.115" r="40.115" transform="translate(448.377 78.002)" fill="#1fa448"></circle>
    <circle cx="40.187" cy="40.187" r="40.187" transform="translate(446.595 75.478)" fill="#20a448"></circle>
    <circle cx="40.259" cy="40.259" r="40.259" transform="translate(444.656 73.082)" fill="#20a448"></circle>
    <circle cx="40.33" cy="40.33" r="40.33" transform="translate(442.559 70.818)" fill="#20a447"></circle>
    <circle cx="40.402" cy="40.402" r="40.402" transform="translate(440.3 68.687)" fill="#20a447"></circle>
    <circle cx="40.474" cy="40.474" r="40.474" transform="translate(437.879 66.692)" fill="#21a447"></circle>
    <circle cx="40.546" cy="40.546" r="40.546" transform="translate(435.293 64.838)" fill="#21a447"></circle>
    <circle cx="40.618" cy="40.618" r="40.618" transform="translate(432.542 63.125)" fill="#21a547"></circle>
    <circle cx="40.689" cy="40.689" r="40.689" transform="translate(429.623 61.559)" fill="#21a547"></circle>
    <circle cx="40.761" cy="40.761" r="40.761" transform="translate(426.533 60.139)" fill="#22a547"></circle>
    <circle cx="40.833" cy="40.833" r="40.833" transform="translate(423.271 58.87)" fill="#22a546"></circle>
    <circle cx="40.905" cy="40.905" r="40.905" transform="translate(419.836 57.754)" fill="#22a546"></circle>
    <circle cx="40.976" cy="40.976" r="40.976" transform="translate(416.226 56.796)" fill="#23a546"></circle>
    <circle cx="41.048" cy="41.048" r="41.048" transform="translate(412.438 55.995)" fill="#23a546"></circle>
    <circle cx="41.12" cy="41.12" r="41.12" transform="translate(408.531 55.382)" fill="#23a546"></circle>
    <circle cx="41.192" cy="41.192" r="41.192" transform="translate(405.648 55.389)" fill="#23a646"></circle>
    <circle cx="41.264" cy="41.264" r="41.264" transform="translate(402.797 55.538)" fill="#24a645"></circle>
    <circle cx="41.335" cy="41.335" r="41.335" transform="translate(399.98 55.827)" fill="#24a645"></circle>
    <circle cx="41.407" cy="41.407" r="41.407" transform="translate(397.195 56.252)" fill="#24a645"></circle>
    <circle cx="41.479" cy="41.479" r="41.479" transform="translate(394.443 56.813)" fill="#24a645"></circle>
    <circle cx="41.551" cy="41.551" r="41.551" transform="translate(391.726 57.507)" fill="#25a645"></circle>
    <circle cx="41.623" cy="41.623" r="41.623" transform="translate(389.043 58.332)" fill="#25a645"></circle>
    <circle cx="41.694" cy="41.694" r="41.694" transform="translate(386.395 59.288)" fill="#25a645"></circle>
    <circle cx="41.766" cy="41.766" r="41.766" transform="translate(383.782 60.369)" fill="#25a744"></circle>
    <circle cx="41.838" cy="41.838" r="41.838" transform="translate(381.204 61.576)" fill="#26a744"></circle>
    <circle cx="41.91" cy="41.91" r="41.91" transform="translate(378.663 62.907)" fill="#26a744"></circle>
    <circle cx="41.981" cy="41.981" r="41.981" transform="translate(376.159 64.359)" fill="#26a744"></circle>
    <circle cx="42.053" cy="42.053" r="42.053" transform="translate(373.691 65.929)" fill="#26a744"></circle>
    <circle cx="42.125" cy="42.125" r="42.125" transform="translate(371.26 67.617)" fill="#27a744"></circle>
    <circle cx="42.197" cy="42.197" r="42.197" transform="translate(368.867 69.419)" fill="#27a744"></circle>
    <circle cx="42.269" cy="42.269" r="42.269" transform="translate(366.513 71.335)" fill="#27a743"></circle>
    <circle cx="42.34" cy="42.34" r="42.34" transform="translate(364.198 73.362)" fill="#27a843"></circle>
    <circle cx="42.412" cy="42.412" r="42.412" transform="translate(361.921 75.497)" fill="#28a843"></circle>
    <circle cx="42.484" cy="42.484" r="42.484" transform="translate(359.684 77.739)" fill="#28a843"></circle>
    <circle cx="42.556" cy="42.556" r="42.556" transform="translate(357.486 80.086)" fill="#28a843"></circle>
    <circle cx="42.628" cy="42.628" r="42.628" transform="translate(355.329 82.536)" fill="#28a843"></circle>
    <circle cx="42.699" cy="42.699" r="42.699" transform="translate(353.214 85.088)" fill="#29a842"></circle>
    <circle cx="42.771" cy="42.771" r="42.771" transform="translate(351.139 87.737)" fill="#29a842"></circle>
    <circle cx="42.843" cy="42.843" r="42.843" transform="translate(349.106 90.483)" fill="#29a842"></circle>
    <circle cx="42.915" cy="42.915" r="42.915" transform="translate(347.115 93.323)" fill="#2aa842"></circle>
    <circle cx="42.986" cy="42.986" r="42.986" transform="translate(345.167 96.258)" fill="#2aa942"></circle>
    <circle cx="43.058" cy="43.058" r="43.058" transform="translate(343.261 99.281)" fill="#2aa942"></circle>
    <circle cx="43.13" cy="43.13" r="43.13" transform="translate(341.399 102.394)" fill="#2aa942"></circle>
    <circle cx="43.202" cy="43.202" r="43.202" transform="translate(339.58 105.592)" fill="#2ba941"></circle>
    <circle cx="43.274" cy="43.274" r="43.274" transform="translate(337.806 108.876)" fill="#2ba941"></circle>
    <circle cx="43.345" cy="43.345" r="43.345" transform="translate(336.077 112.242)" fill="#2ba941"></circle>
    <circle cx="43.417" cy="43.417" r="43.417" transform="translate(334.392 115.689)" fill="#2ba941"></circle>
    <circle cx="43.489" cy="43.489" r="43.489" transform="translate(332.753 119.213)" fill="#2ca941"></circle>
    <circle cx="43.561" cy="43.561" r="43.561" transform="translate(331.16 122.814)" fill="#2caa41"></circle>
    <circle cx="43.633" cy="43.633" r="43.633" transform="translate(329.613 126.489)" fill="#2caa41"></circle>
  </g>
  <mask id="line-mask_2_back">
    <path class="js-line_mask_2_1" stroke-dasharray="900 900" stroke-dashoffset="900"
      d="M-12364.981-18775.943s99.205,121.824,206.042,46.309,126.671-110.834,191.8-187.186c29.335-46.693,57.4-92.943,70.05-166.375,12.211-79.238-53.354-81.779-80.13-57.475"
      transform="translate(12392 19248)" fill="none" stroke="#fff" stroke-width="110"
      style="stroke-dashoffset: -900px;"></path>
  </mask>
</svg>