<svg xmlns="http://www.w3.org/2000/svg" xmlns:xlink="http://www.w3.org/1999/xlink" width="1600" height="800"
  viewBox="0 0 1600 800"
  class="md:w-full w-[236%] h-auto md:static absolute left-[60%] top-[6%] md:translate-x-0 -translate-x-1/2">
  <g style="mask: url(#line-mask_2_front);">
    <g transform="translate(304.785)">
      <circle cx="66.891" cy="66.891" r="66.891" transform="translate(1296.731 196.657)" fill="#80d110"></circle>
      <circle cx="66.963" cy="66.963" r="66.963" transform="translate(1301.779 199.437)" fill="#80d110"></circle>
      <circle cx="67.035" cy="67.035" r="67.035" transform="translate(1306.837 202.287)" fill="#81d110"></circle>
      <circle cx="67.107" cy="67.107" r="67.107" transform="translate(1311.904 205.208)" fill="#81d210"></circle>
      <circle cx="67.178" cy="67.178" r="67.178" transform="translate(1316.981 208.201)" fill="#81d20f"></circle>
      <circle cx="67.25" cy="67.25" r="67.25" transform="translate(1322.066 211.265)" fill="#81d20f"></circle>
      <circle cx="67.322" cy="67.322" r="67.322" transform="translate(1327.161 214.401)" fill="#82d20f"></circle>
      <circle cx="67.394" cy="67.394" r="67.394" transform="translate(1332.265 217.609)" fill="#82d20f"></circle>
      <circle cx="41.479" cy="41.479" r="41.479" transform="translate(90.658 56.813)" fill="#24a645"></circle>
      <circle cx="41.551" cy="41.551" r="41.551" transform="translate(87.94 57.507)" fill="#25a645"></circle>
      <circle cx="41.623" cy="41.623" r="41.623" transform="translate(85.257 58.332)" fill="#25a645"></circle>
      <circle cx="41.694" cy="41.694" r="41.694" transform="translate(82.61 59.288)" fill="#25a645"></circle>
      <circle cx="41.766" cy="41.766" r="41.766" transform="translate(79.997 60.369)" fill="#25a744"></circle>
      <circle cx="41.838" cy="41.838" r="41.838" transform="translate(77.419 61.576)" fill="#26a744"></circle>
      <circle cx="41.91" cy="41.91" r="41.91" transform="translate(74.877 62.907)" fill="#26a744"></circle>
      <circle cx="41.981" cy="41.981" r="41.981" transform="translate(72.374 64.359)" fill="#26a744"></circle>
      <circle cx="42.053" cy="42.053" r="42.053" transform="translate(69.905 65.929)" fill="#26a744"></circle>
      <circle cx="42.125" cy="42.125" r="42.125" transform="translate(67.475 67.617)" fill="#27a744"></circle>
      <circle cx="42.197" cy="42.197" r="42.197" transform="translate(65.082 69.419)" fill="#27a744"></circle>
      <circle cx="42.269" cy="42.269" r="42.269" transform="translate(62.727 71.335)" fill="#27a743"></circle>
      <circle cx="42.34" cy="42.34" r="42.34" transform="translate(60.413 73.362)" fill="#27a843"></circle>
      <circle cx="42.412" cy="42.412" r="42.412" transform="translate(58.136 75.497)" fill="#28a843"></circle>
      <circle cx="42.484" cy="42.484" r="42.484" transform="translate(55.898 77.739)" fill="#28a843"></circle>
      <circle cx="42.556" cy="42.556" r="42.556" transform="translate(53.701 80.086)" fill="#28a843"></circle>
      <circle cx="42.628" cy="42.628" r="42.628" transform="translate(51.544 82.536)" fill="#28a843"></circle>
      <circle cx="42.699" cy="42.699" r="42.699" transform="translate(49.429 85.088)" fill="#29a842"></circle>
      <circle cx="42.771" cy="42.771" r="42.771" transform="translate(47.354 87.737)" fill="#29a842"></circle>
      <circle cx="42.843" cy="42.843" r="42.843" transform="translate(45.32 90.483)" fill="#29a842"></circle>
      <circle cx="42.915" cy="42.915" r="42.915" transform="translate(43.329 93.323)" fill="#2aa842"></circle>
      <circle cx="42.986" cy="42.986" r="42.986" transform="translate(41.381 96.258)" fill="#2aa942"></circle>
      <circle cx="43.058" cy="43.058" r="43.058" transform="translate(39.476 99.281)" fill="#2aa942"></circle>
      <circle cx="43.13" cy="43.13" r="43.13" transform="translate(37.613 102.394)" fill="#2aa942"></circle>
      <circle cx="43.202" cy="43.202" r="43.202" transform="translate(35.795 105.592)" fill="#2ba941"></circle>
      <circle cx="43.274" cy="43.274" r="43.274" transform="translate(34.02 108.876)" fill="#2ba941"></circle>
      <circle cx="43.345" cy="43.345" r="43.345" transform="translate(32.291 112.242)" fill="#2ba941"></circle>
      <circle cx="43.417" cy="43.417" r="43.417" transform="translate(30.607 115.689)" fill="#2ba941"></circle>
      <circle cx="43.489" cy="43.489" r="43.489" transform="translate(28.968 119.213)" fill="#2ca941"></circle>
      <circle cx="43.561" cy="43.561" r="43.561" transform="translate(27.374 122.814)" fill="#2caa41"></circle>
      <circle cx="43.633" cy="43.633" r="43.633" transform="translate(25.828 126.489)" fill="#2caa41"></circle>
      <circle cx="43.704" cy="43.704" r="43.704" transform="translate(24.329 130.237)" fill="#2caa40"></circle>
      <circle cx="43.776" cy="43.776" r="43.776" transform="translate(22.876 134.055)" fill="#2daa40"></circle>
      <circle cx="43.848" cy="43.848" r="43.848" transform="translate(21.47 137.94)" fill="#2daa40"></circle>
      <circle cx="43.92" cy="43.92" r="43.92" transform="translate(20.113 141.892)" fill="#2daa40"></circle>
      <circle cx="43.991" cy="43.991" r="43.991" transform="translate(18.806 145.909)" fill="#2daa40"></circle>
      <circle cx="44.063" cy="44.063" r="44.063" transform="translate(17.546 149.987)" fill="#2eaa40"></circle>
      <circle cx="44.135" cy="44.135" r="44.135" transform="translate(16.336 154.125)" fill="#2eab40"></circle>
      <circle cx="44.207" cy="44.207" r="44.207" transform="translate(15.175 158.321)" fill="#2eab3f"></circle>
      <circle cx="44.279" cy="44.279" r="44.279" transform="translate(14.065 162.573)" fill="#2eab3f"></circle>
      <circle cx="44.35" cy="44.35" r="44.35" transform="translate(13.006 166.88)" fill="#2fab3f"></circle>
      <circle cx="44.422" cy="44.422" r="44.422" transform="translate(11.998 171.238)" fill="#2fab3f"></circle>
      <circle cx="44.494" cy="44.494" r="44.494" transform="translate(11.041 175.646)" fill="#2fab3f"></circle>
      <circle cx="44.566" cy="44.566" r="44.566" transform="translate(10.135 180.101)" fill="#2fab3f"></circle>
      <circle cx="44.638" cy="44.638" r="44.638" transform="translate(9.283 184.602)" fill="#30ab3e"></circle>
      <circle cx="44.709" cy="44.709" r="44.709" transform="translate(8.484 189.148)" fill="#30ac3e"></circle>
      <circle cx="44.781" cy="44.781" r="44.781" transform="translate(7.737 193.735)" fill="#30ac3e"></circle>
      <circle cx="44.853" cy="44.853" r="44.853" transform="translate(7.044 198.361)" fill="#31ac3e"></circle>
      <circle cx="44.925" cy="44.925" r="44.925" transform="translate(6.405 203.025)" fill="#31ac3e"></circle>
      <circle cx="44.996" cy="44.996" r="44.996" transform="translate(5.821 207.726)" fill="#31ac3e"></circle>
      <circle cx="45.068" cy="45.068" r="45.068" transform="translate(5.291 212.459)" fill="#31ac3e"></circle>
      <circle cx="45.14" cy="45.14" r="45.14" transform="translate(4.817 217.224)" fill="#32ac3d"></circle>
      <circle cx="45.212" cy="45.212" r="45.212" transform="translate(4.398 222.018)" fill="#32ac3d"></circle>
      <circle cx="45.284" cy="45.284" r="45.284" transform="translate(4.036 226.84)" fill="#32ac3d"></circle>
      <circle cx="45.355" cy="45.355" r="45.355" transform="translate(3.731 231.688)" fill="#32ad3d"></circle>
      <circle cx="45.427" cy="45.427" r="45.427" transform="translate(3.483 236.558)" fill="#33ad3d"></circle>
      <circle cx="45.499" cy="45.499" r="45.499" transform="translate(3.292 241.45)" fill="#33ad3d"></circle>
      <circle cx="45.571" cy="45.571" r="45.571" transform="translate(3.158 246.361)" fill="#33ad3d"></circle>
      <circle cx="45.643" cy="45.643" r="45.643" transform="translate(3.084 251.289)" fill="#33ad3c"></circle>
      <circle cx="45.714" cy="45.714" r="45.714" transform="translate(3.069 256.233)" fill="#34ad3c"></circle>
      <circle cx="45.786" cy="45.786" r="45.786" transform="translate(3.112 261.19)" fill="#34ad3c"></circle>
      <circle cx="45.858" cy="45.858" r="45.858" transform="translate(3.214 266.158)" fill="#34ad3c"></circle>
      <circle cx="45.93" cy="45.93" r="45.93" transform="translate(3.377 271.135)" fill="#34ae3c"></circle>
      <circle cx="46.001" cy="46.001" r="46.001" transform="translate(3.602 276.12)" fill="#35ae3c"></circle>
      <circle cx="46.073" cy="46.073" r="46.073" transform="translate(3.886 281.109)" fill="#35ae3b"></circle>
      <circle cx="46.145" cy="46.145" r="46.145" transform="translate(4.231 286.101)" fill="#35ae3b"></circle>
      <circle cx="46.217" cy="46.217" r="46.217" transform="translate(4.639 291.094)" fill="#35ae3b"></circle>
      <circle cx="46.289" cy="46.289" r="46.289" transform="translate(5.108 296.086)" fill="#36ae3b"></circle>
      <circle cx="46.36" cy="46.36" r="46.36" transform="translate(5.642 301.076)" fill="#36ae3b"></circle>
      <circle cx="46.432" cy="46.432" r="46.432" transform="translate(6.237 306.06)" fill="#36ae3b"></circle>
      <circle cx="46.504" cy="46.504" r="46.504" transform="translate(6.896 311.037)" fill="#36af3b"></circle>
      <circle cx="46.576" cy="46.576" r="46.576" transform="translate(7.618 316.004)" fill="#37af3a"></circle>
      <circle cx="46.648" cy="46.648" r="46.648" transform="translate(8.405 320.96)" fill="#37af3a"></circle>
      <circle cx="46.719" cy="46.719" r="46.719" transform="translate(9.258 325.904)" fill="#37af3a"></circle>
      <circle cx="46.791" cy="46.791" r="46.791" transform="translate(10.175 330.832)" fill="#38af3a"></circle>
      <circle cx="46.863" cy="46.863" r="46.863" transform="translate(11.157 335.742)" fill="#38af3a"></circle>
      <circle cx="46.935" cy="46.935" r="46.935" transform="translate(12.206 340.633)" fill="#38af3a"></circle>
      <circle cx="47.006" cy="47.006" r="47.006" transform="translate(13.322 345.503)" fill="#38af3a"></circle>
      <circle cx="47.078" cy="47.078" r="47.078" transform="translate(14.504 350.349)" fill="#39b039"></circle>
      <circle cx="47.15" cy="47.15" r="47.15" transform="translate(15.754 355.169)" fill="#39b039"></circle>
      <circle cx="47.222" cy="47.222" r="47.222" transform="translate(17.071 359.962)" fill="#39b039"></circle>
      <circle cx="47.294" cy="47.294" r="47.294" transform="translate(18.456 364.725)" fill="#39b039"></circle>
      <circle cx="47.365" cy="47.365" r="47.365" transform="translate(19.911 369.458)" fill="#3ab039"></circle>
      <circle cx="47.437" cy="47.437" r="47.437" transform="translate(21.434 374.156)" fill="#3ab039"></circle>
      <circle cx="47.509" cy="47.509" r="47.509" transform="translate(23.027 378.819)" fill="#3ab038"></circle>
      <circle cx="47.581" cy="47.581" r="47.581" transform="translate(24.689 383.443)" fill="#3ab038"></circle>
      <circle cx="47.653" cy="47.653" r="47.653" transform="translate(26.422 388.028)" fill="#3bb138"></circle>
      <circle cx="47.724" cy="47.724" r="47.724" transform="translate(28.226 392.572)" fill="#3bb138"></circle>
      <circle cx="47.796" cy="47.796" r="47.796" transform="translate(30.101 397.072)" fill="#3bb138"></circle>
      <circle cx="47.868" cy="47.868" r="47.868" transform="translate(32.047 401.525)" fill="#3bb138"></circle>
      <circle cx="47.94" cy="47.94" r="47.94" transform="translate(34.065 405.931)" fill="#3cb138"></circle>
      <circle cx="48.011" cy="48.011" r="48.011" transform="translate(36.157 410.287)" fill="#3cb137"></circle>
      <circle cx="48.083" cy="48.083" r="48.083" transform="translate(38.321 414.591)" fill="#3cb137"></circle>
      <circle cx="48.155" cy="48.155" r="48.155" transform="translate(40.558 418.84)" fill="#3cb137"></circle>
      <circle cx="48.227" cy="48.227" r="48.227" transform="translate(42.869 423.034)" fill="#3db137"></circle>
      <circle cx="48.299" cy="48.299" r="48.299" transform="translate(45.254 427.169)" fill="#3db237"></circle>
      <circle cx="48.37" cy="48.37" r="48.37" transform="translate(47.715 431.246)" fill="#3db237"></circle>
      <circle cx="48.442" cy="48.442" r="48.442" transform="translate(50.249 435.259)" fill="#3db237"></circle>
      <circle cx="48.514" cy="48.514" r="48.514" transform="translate(52.859 439.208)" fill="#3eb236"></circle>
      <circle cx="48.586" cy="48.586" r="48.586" transform="translate(55.545 443.091)" fill="#3eb236"></circle>
      <circle cx="48.658" cy="48.658" r="48.658" transform="translate(58.308 446.905)" fill="#3eb236"></circle>
      <circle cx="48.729" cy="48.729" r="48.729" transform="translate(61.148 450.65)" fill="#3fb236"></circle>
      <circle cx="48.801" cy="48.801" r="48.801" transform="translate(64.064 454.322)" fill="#3fb236"></circle>
      <circle cx="48.873" cy="48.873" r="48.873" transform="translate(67.058 457.92)" fill="#3fb336"></circle>
      <circle cx="48.945" cy="48.945" r="48.945" transform="translate(70.13 461.441)" fill="#3fb335"></circle>
      <circle cx="49.016" cy="49.016" r="49.016" transform="translate(73.281 464.884)" fill="#40b335"></circle>
      <circle cx="49.088" cy="49.088" r="49.088" transform="translate(76.511 468.247)" fill="#40b335"></circle>
      <circle cx="49.16" cy="49.16" r="49.16" transform="translate(79.819 471.526)" fill="#40b335"></circle>
      <circle cx="49.232" cy="49.232" r="49.232" transform="translate(83.208 474.721)" fill="#40b335"></circle>
      <circle cx="49.304" cy="49.304" r="49.304" transform="translate(86.676 477.83)" fill="#41b335"></circle>
      <circle cx="49.375" cy="49.375" r="49.375" transform="translate(90.227 480.851)" fill="#41b335"></circle>
      <circle cx="49.447" cy="49.447" r="49.447" transform="translate(93.857 483.78)" fill="#41b434"></circle>
      <circle cx="49.519" cy="49.519" r="49.519" transform="translate(97.568 486.616)" fill="#41b434"></circle>
      <circle cx="49.591" cy="49.591" r="49.591" transform="translate(101.362 489.358)" fill="#42b434"></circle>
      <circle cx="49.663" cy="49.663" r="49.663" transform="translate(105.238 492.003)" fill="#42b434"></circle>
      <circle cx="49.734" cy="49.734" r="49.734" transform="translate(109.197 494.55)" fill="#42b434"></circle>
      <circle cx="49.806" cy="49.806" r="49.806" transform="translate(113.239 496.995)" fill="#42b434"></circle>
      <circle cx="49.878" cy="49.878" r="49.878" transform="translate(117.365 499.338)" fill="#43b434"></circle>
      <circle cx="49.95" cy="49.95" r="49.95" transform="translate(121.574 501.575)" fill="#43b433"></circle>
      <circle cx="50.021" cy="50.021" r="50.021" transform="translate(125.869 503.707)" fill="#43b533"></circle>
      <circle cx="50.093" cy="50.093" r="50.093" transform="translate(130.248 505.728)" fill="#43b533"></circle>
      <circle cx="50.165" cy="50.165" r="50.165" transform="translate(134.712 507.639)" fill="#44b533"></circle>
      <circle cx="50.237" cy="50.237" r="50.237" transform="translate(139.262 509.436)" fill="#44b533"></circle>
      <circle cx="50.309" cy="50.309" r="50.309" transform="translate(143.898 511.119)" fill="#44b533"></circle>
      <circle cx="50.38" cy="50.38" r="50.38" transform="translate(148.622 512.685)" fill="#45b532"></circle>
      <circle cx="50.452" cy="50.452" r="50.452" transform="translate(153.431 514.131)" fill="#45b532"></circle>
      <circle cx="50.524" cy="50.524" r="50.524" transform="translate(158.328 515.456)" fill="#45b532"></circle>
      <circle cx="50.596" cy="50.596" r="50.596" transform="translate(163.313 516.657)" fill="#45b632"></circle>
      <circle cx="50.668" cy="50.668" r="50.668" transform="translate(168.387 517.734)" fill="#46b632"></circle>
      <circle cx="50.739" cy="50.739" r="50.739" transform="translate(173.55 518.684)" fill="#46b632"></circle>
      <circle cx="50.811" cy="50.811" r="50.811" transform="translate(178.801 519.503)" fill="#46b632"></circle>
      <circle cx="50.883" cy="50.883" r="50.883" transform="translate(184.142 520.191)" fill="#46b631"></circle>
      <circle cx="50.955" cy="50.955" r="50.955" transform="translate(189.573 520.746)" fill="#47b631"></circle>
      <circle cx="51.026" cy="51.026" r="51.026" transform="translate(195.095 521.167)" fill="#47b631"></circle>
      <circle cx="51.098" cy="51.098" r="51.098" transform="translate(200.707 521.448)" fill="#47b631"></circle>
      <circle cx="51.17" cy="51.17" r="51.17" transform="translate(206.41 521.591)" fill="#47b631"></circle>
      <circle cx="51.242" cy="51.242" r="51.242" transform="translate(212.206 521.591)" fill="#48b731"></circle>
      <circle cx="51.314" cy="51.314" r="51.314" transform="translate(218.093 521.448)" fill="#48b731"></circle>
      <circle cx="51.385" cy="51.385" r="51.385" transform="translate(224.074 521.161)" fill="#48b730"></circle>
      <circle cx="51.457" cy="51.457" r="51.457" transform="translate(230.147 520.725)" fill="#48b730"></circle>
      <circle cx="51.529" cy="51.529" r="51.529" transform="translate(236.314 520.139)" fill="#49b730"></circle>
      <circle cx="51.601" cy="51.601" r="51.601" transform="translate(242.574 519.401)" fill="#49b730"></circle>
      <circle cx="51.673" cy="51.673" r="51.673" transform="translate(248.928 518.509)" fill="#49b730"></circle>
      <circle cx="51.744" cy="51.744" r="51.744" transform="translate(255.379 517.463)" fill="#49b730"></circle>
      <circle cx="51.816" cy="51.816" r="51.816" transform="translate(261.923 516.258)" fill="#4ab82f"></circle>
      <circle cx="51.888" cy="51.888" r="51.888" transform="translate(268.563 514.893)" fill="#4ab82f"></circle>
      <circle cx="51.96" cy="51.96" r="51.96" transform="translate(275.3 513.366)" fill="#4ab82f"></circle>
      <circle cx="52.031" cy="52.031" r="52.031" transform="translate(282.133 511.675)" fill="#4ab82f"></circle>
      <circle cx="52.103" cy="52.103" r="52.103" transform="translate(289.063 509.818)" fill="#4bb82f"></circle>
      <circle cx="52.175" cy="52.175" r="52.175" transform="translate(296.089 507.793)" fill="#4bb82f"></circle>
      <circle cx="52.247" cy="52.247" r="52.247" transform="translate(303.214 505.598)" fill="#4bb82f"></circle>
      <circle cx="52.319" cy="52.319" r="52.319" transform="translate(310.436 503.231)" fill="#4cb82e"></circle>
      <circle cx="52.39" cy="52.39" r="52.39" transform="translate(317.759 500.69)" fill="#4cb92e"></circle>
      <circle cx="52.462" cy="52.462" r="52.462" transform="translate(325.179 497.973)" fill="#4cb92e"></circle>
      <circle cx="52.534" cy="52.534" r="52.534" transform="translate(332.699 495.077)" fill="#4cb92e"></circle>
      <circle cx="52.606" cy="52.606" r="52.606" transform="translate(340.318 492)" fill="#4db92e"></circle>
      <circle cx="52.678" cy="52.678" r="52.678" transform="translate(348.038 488.742)" fill="#4db92e"></circle>
      <circle cx="52.749" cy="52.749" r="52.749" transform="translate(355.86 485.3)" fill="#4db92e"></circle>
      <circle cx="52.821" cy="52.821" r="52.821" transform="translate(363.781 481.671)" fill="#4db92d"></circle>
      <circle cx="52.893" cy="52.893" r="52.893" transform="translate(371.805 477.853)" fill="#4eb92d"></circle>
      <circle cx="52.965" cy="52.965" r="52.965" transform="translate(379.93 473.845)" fill="#4eba2d"></circle>
      <circle cx="53.036" cy="53.036" r="53.036" transform="translate(388.159 469.646)" fill="#4eba2d"></circle>
      <circle cx="53.108" cy="53.108" r="53.108" transform="translate(396.489 465.251)" fill="#4eba2d"></circle>
      <circle cx="53.18" cy="53.18" r="53.18" transform="translate(404.923 460.659)" fill="#4fba2d"></circle>
      <circle cx="53.252" cy="53.252" r="53.252" transform="translate(413.461 455.869)" fill="#4fba2c"></circle>
      <circle cx="53.324" cy="53.324" r="53.324" transform="translate(422.103 450.878)" fill="#4fba2c"></circle>
      <circle cx="53.395" cy="53.395" r="53.395" transform="translate(430.85 445.685)" fill="#4fba2c"></circle>
      <circle cx="53.467" cy="53.467" r="53.467" transform="translate(439.701 440.287)" fill="#50ba2c"></circle>
      <circle cx="53.539" cy="53.539" r="53.539" transform="translate(446.102 436.267)" fill="#50bb2c"></circle>
      <circle cx="53.611" cy="53.611" r="53.611" transform="translate(450.576 433.402)" fill="#50bb2c"></circle>
      <circle cx="53.683" cy="53.683" r="53.683" transform="translate(455.046 430.528)" fill="#50bb2c"></circle>
      <circle cx="53.754" cy="53.754" r="53.754" transform="translate(459.516 427.646)" fill="#51bb2b"></circle>
      <circle cx="53.826" cy="53.826" r="53.826" transform="translate(463.981 424.755)" fill="#51bb2b"></circle>
      <circle cx="53.898" cy="53.898" r="53.898" transform="translate(468.444 421.856)" fill="#51bb2b"></circle>
      <circle cx="53.97" cy="53.97" r="53.97" transform="translate(472.904 418.949)" fill="#51bb2b"></circle>
      <circle cx="54.041" cy="54.041" r="54.041" transform="translate(477.362 416.037)" fill="#52bb2b"></circle>
      <circle cx="54.113" cy="54.113" r="54.113" transform="translate(481.817 413.117)" fill="#52bb2b"></circle>
      <circle cx="54.185" cy="54.185" r="54.185" transform="translate(486.27 410.191)" fill="#52bc2b"></circle>
      <circle cx="54.257" cy="54.257" r="54.257" transform="translate(490.72 407.259)" fill="#53bc2a"></circle>
      <circle cx="54.329" cy="54.329" r="54.329" transform="translate(495.168 404.322)" fill="#53bc2a"></circle>
      <circle cx="54.4" cy="54.4" r="54.4" transform="translate(499.614 401.38)" fill="#53bc2a"></circle>
      <circle cx="54.472" cy="54.472" r="54.472" transform="translate(504.057 398.434)" fill="#53bc2a"></circle>
      <circle cx="54.544" cy="54.544" r="54.544" transform="translate(508.499 395.483)" fill="#54bc2a"></circle>
      <circle cx="54.616" cy="54.616" r="54.616" transform="translate(512.938 392.529)" fill="#54bc2a"></circle>
      <circle cx="54.688" cy="54.688" r="54.688" transform="translate(517.375 389.572)" fill="#54bc29"></circle>
      <circle cx="54.759" cy="54.759" r="54.759" transform="translate(521.811 386.613)" fill="#54bd29"></circle>
      <circle cx="54.831" cy="54.831" r="54.831" transform="translate(526.245 383.651)" fill="#55bd29"></circle>
      <circle cx="54.903" cy="54.903" r="54.903" transform="translate(530.676 380.686)" fill="#55bd29"></circle>
      <circle cx="54.975" cy="54.975" r="54.975" transform="translate(535.106 377.721)" fill="#55bd29"></circle>
      <circle cx="55.046" cy="55.046" r="55.046" transform="translate(539.536 374.755)" fill="#55bd29"></circle>
      <circle cx="55.118" cy="55.118" r="55.118" transform="translate(543.962 371.788)" fill="#56bd29"></circle>
      <circle cx="55.19" cy="55.19" r="55.19" transform="translate(548.387 368.82)" fill="#56bd28"></circle>
      <circle cx="55.262" cy="55.262" r="55.262" transform="translate(552.811 365.853)" fill="#56bd28"></circle>
      <circle cx="55.334" cy="55.334" r="55.334" transform="translate(557.233 362.886)" fill="#56be28"></circle>
      <circle cx="55.405" cy="55.405" r="55.405" transform="translate(561.655 359.922)" fill="#57be28"></circle>
      <circle cx="55.477" cy="55.477" r="55.477" transform="translate(566.075 356.958)" fill="#57be28"></circle>
      <circle cx="55.549" cy="55.549" r="55.549" transform="translate(570.493 353.996)" fill="#57be28"></circle>
      <circle cx="55.621" cy="55.621" r="55.621" transform="translate(574.91 351.036)" fill="#57be28"></circle>
      <circle cx="55.693" cy="55.693" r="55.693" transform="translate(579.326 348.08)" fill="#58be27"></circle>
      <circle cx="55.764" cy="55.764" r="55.764" transform="translate(583.742 345.127)" fill="#58be27"></circle>
      <circle cx="55.836" cy="55.836" r="55.836" transform="translate(588.157 342.177)" fill="#58be27"></circle>
      <circle cx="55.908" cy="55.908" r="55.908" transform="translate(592.57 339.232)" fill="#58bf27"></circle>
      <circle cx="55.98" cy="55.98" r="55.98" transform="translate(596.982 336.29)" fill="#59bf27"></circle>
      <circle cx="56.051" cy="56.051" r="56.051" transform="translate(601.395 333.355)" fill="#59bf27"></circle>
      <circle cx="56.123" cy="56.123" r="56.123" transform="translate(605.806 330.424)" fill="#59bf27"></circle>
      <circle cx="56.195" cy="56.195" r="56.195" transform="translate(610.216 327.499)" fill="#5abf26"></circle>
      <circle cx="56.267" cy="56.267" r="56.267" transform="translate(614.626 324.58)" fill="#5abf26"></circle>
      <circle cx="56.339" cy="56.339" r="56.339" transform="translate(619.035 321.668)" fill="#5abf26"></circle>
      <circle cx="56.41" cy="56.41" r="56.41" transform="translate(623.445 318.764)" fill="#5abf26"></circle>
      <circle cx="56.482" cy="56.482" r="56.482" transform="translate(627.854 315.866)" fill="#5bbf26"></circle>
      <circle cx="56.554" cy="56.554" r="56.554" transform="translate(632.262 312.976)" fill="#5bc026"></circle>
      <circle cx="56.626" cy="56.626" r="56.626" transform="translate(636.67 310.095)" fill="#5bc025"></circle>
      <circle cx="56.698" cy="56.698" r="56.698" transform="translate(641.077 307.223)" fill="#5bc025"></circle>
      <circle cx="56.769" cy="56.769" r="56.769" transform="translate(645.486 304.36)" fill="#5cc025"></circle>
      <circle cx="56.841" cy="56.841" r="56.841" transform="translate(649.894 301.507)" fill="#5cc025"></circle>
      <circle cx="56.913" cy="56.913" r="56.913" transform="translate(654.301 298.663)" fill="#5cc025"></circle>
      <circle cx="56.985" cy="56.985" r="56.985" transform="translate(658.709 295.83)" fill="#5cc025"></circle>
      <circle cx="57.056" cy="57.056" r="57.056" transform="translate(663.118 293.009)" fill="#5dc025"></circle>
      <circle cx="57.128" cy="57.128" r="57.128" transform="translate(667.526 290.198)" fill="#5dc124"></circle>
      <circle cx="57.2" cy="57.2" r="57.2" transform="translate(671.934 287.399)" fill="#5dc124"></circle>
      <circle cx="57.272" cy="57.272" r="57.272" transform="translate(676.343 284.612)" fill="#5dc124"></circle>
      <circle cx="57.344" cy="57.344" r="57.344" transform="translate(680.752 281.838)" fill="#5ec124"></circle>
      <circle cx="57.415" cy="57.415" r="57.415" transform="translate(685.162 279.078)" fill="#5ec124"></circle>
      <circle cx="57.487" cy="57.487" r="57.487" transform="translate(689.572 276.33)" fill="#5ec124"></circle>
      <circle cx="57.559" cy="57.559" r="57.559" transform="translate(693.983 273.596)" fill="#5ec124"></circle>
      <circle cx="57.631" cy="57.631" r="57.631" transform="translate(698.394 270.877)" fill="#5fc123"></circle>
      <circle cx="57.703" cy="57.703" r="57.703" transform="translate(702.806 268.172)" fill="#5fc223"></circle>
      <circle cx="57.774" cy="57.774" r="57.774" transform="translate(707.22 265.484)" fill="#5fc223"></circle>
      <circle cx="57.846" cy="57.846" r="57.846" transform="translate(711.634 262.81)" fill="#5fc223"></circle>
      <circle cx="57.918" cy="57.918" r="57.918" transform="translate(716.048 260.152)" fill="#60c223"></circle>
      <circle cx="57.99" cy="57.99" r="57.99" transform="translate(720.464 257.511)" fill="#60c223"></circle>
      <circle cx="58.061" cy="58.061" r="58.061" transform="translate(724.882 254.887)" fill="#60c222"></circle>
      <circle cx="58.133" cy="58.133" r="58.133" transform="translate(729.299 252.28)" fill="#61c222"></circle>
      <circle cx="58.205" cy="58.205" r="58.205" transform="translate(733.718 249.691)" fill="#61c222"></circle>
      <circle cx="58.277" cy="58.277" r="58.277" transform="translate(738.138 247.12)" fill="#61c322"></circle>
      <circle cx="58.349" cy="58.349" r="58.349" transform="translate(742.56 244.567)" fill="#61c322"></circle>
      <circle cx="58.42" cy="58.42" r="58.42" transform="translate(746.984 242.035)" fill="#62c322"></circle>
      <circle cx="58.492" cy="58.492" r="58.492" transform="translate(751.408 239.521)" fill="#62c322"></circle>
      <circle cx="58.564" cy="58.564" r="58.564" transform="translate(755.834 237.026)" fill="#62c321"></circle>
      <circle cx="58.636" cy="58.636" r="58.636" transform="translate(760.261 234.553)" fill="#62c321"></circle>
      <circle cx="58.708" cy="58.708" r="58.708" transform="translate(764.69 232.1)" fill="#63c321"></circle>
      <circle cx="58.779" cy="58.779" r="58.779" transform="translate(769.122 229.669)" fill="#63c321"></circle>
      <circle cx="58.851" cy="58.851" r="58.851" transform="translate(773.554 227.258)" fill="#63c421"></circle>
      <circle cx="58.923" cy="58.923" r="58.923" transform="translate(777.989 224.87)" fill="#63c421"></circle>
      <circle cx="58.995" cy="58.995" r="58.995" transform="translate(782.425 222.504)" fill="#64c421"></circle>
      <circle cx="59.066" cy="59.066" r="59.066" transform="translate(786.864 220.162)" fill="#64c420"></circle>
      <circle cx="59.138" cy="59.138" r="59.138" transform="translate(791.304 217.843)" fill="#64c420"></circle>
      <circle cx="59.21" cy="59.21" r="59.21" transform="translate(795.747 215.547)" fill="#64c420"></circle>
      <circle cx="59.282" cy="59.282" r="59.282" transform="translate(800.191 213.275)" fill="#65c420"></circle>
      <circle cx="59.354" cy="59.354" r="59.354" transform="translate(804.638 211.028)" fill="#65c420"></circle>
      <circle cx="59.425" cy="59.425" r="59.425" transform="translate(809.087 208.807)" fill="#65c420"></circle>
      <circle cx="59.497" cy="59.497" r="59.497" transform="translate(813.539 206.61)" fill="#65c51f"></circle>
      <circle cx="59.569" cy="59.569" r="59.569" transform="translate(817.992 204.439)" fill="#66c51f"></circle>
      <circle cx="59.641" cy="59.641" r="59.641" transform="translate(822.448 202.294)" fill="#66c51f"></circle>
      <circle cx="59.713" cy="59.713" r="59.713" transform="translate(826.907 200.177)" fill="#66c51f"></circle>
      <circle cx="59.784" cy="59.784" r="59.784" transform="translate(831.369 198.087)" fill="#66c51f"></circle>
      <circle cx="59.856" cy="59.856" r="59.856" transform="translate(835.833 196.024)" fill="#67c51f"></circle>
      <circle cx="59.928" cy="59.928" r="59.928" transform="translate(840.3 193.989)" fill="#67c51f"></circle>
      <circle cx="60" cy="60" r="60" transform="translate(844.769 191.982)" fill="#67c51e"></circle>
      <circle cx="60.071" cy="60.071" r="60.071" transform="translate(849.243 190.005)" fill="#68c61e"></circle>
      <circle cx="60.143" cy="60.143" r="60.143" transform="translate(853.718 188.057)" fill="#68c61e"></circle>
      <circle cx="60.215" cy="60.215" r="60.215" transform="translate(858.196 186.138)" fill="#68c61e"></circle>
      <circle cx="60.287" cy="60.287" r="60.287" transform="translate(862.678 184.249)" fill="#68c61e"></circle>
      <circle cx="60.359" cy="60.359" r="60.359" transform="translate(867.162 182.391)" fill="#69c61e"></circle>
      <circle cx="60.43" cy="60.43" r="60.43" transform="translate(871.651 180.565)" fill="#69c61e"></circle>
      <circle cx="60.502" cy="60.502" r="60.502" transform="translate(876.142 178.769)" fill="#69c61d"></circle>
      <circle cx="60.574" cy="60.574" r="60.574" transform="translate(880.636 177.005)" fill="#69c61d"></circle>
      <circle cx="60.646" cy="60.646" r="60.646" transform="translate(885.133 175.274)" fill="#6ac71d"></circle>
      <circle cx="60.718" cy="60.718" r="60.718" transform="translate(889.634 173.575)" fill="#6ac71d"></circle>
      <circle cx="60.789" cy="60.789" r="60.789" transform="translate(894.14 171.91)" fill="#6ac71d"></circle>
      <circle cx="60.861" cy="60.861" r="60.861" transform="translate(898.648 170.278)" fill="#6ac71d"></circle>
      <circle cx="60.933" cy="60.933" r="60.933" transform="translate(903.16 168.679)" fill="#6bc71c"></circle>
      <circle cx="61.005" cy="61.005" r="61.005" transform="translate(907.675 167.115)" fill="#6bc71c"></circle>
      <circle cx="61.076" cy="61.076" r="61.076" transform="translate(912.195 165.587)" fill="#6bc71c"></circle>
      <circle cx="61.148" cy="61.148" r="61.148" transform="translate(916.718 164.094)" fill="#6bc71c"></circle>
      <circle cx="61.22" cy="61.22" r="61.22" transform="translate(921.245 162.636)" fill="#6cc81c"></circle>
      <circle cx="61.292" cy="61.292" r="61.292" transform="translate(925.776 161.214)" fill="#6cc81c"></circle>
      <circle cx="61.364" cy="61.364" r="61.364" transform="translate(930.311 159.828)" fill="#6cc81c"></circle>
      <circle cx="61.435" cy="61.435" r="61.435" transform="translate(934.851 158.481)" fill="#6cc81b"></circle>
      <circle cx="61.507" cy="61.507" r="61.507" transform="translate(939.394 157.17)" fill="#6dc81b"></circle>
      <circle cx="61.579" cy="61.579" r="61.579" transform="translate(943.942 155.896)" fill="#6dc81b"></circle>
      <circle cx="61.651" cy="61.651" r="61.651" transform="translate(948.493 154.661)" fill="#6dc81b"></circle>
      <circle cx="61.723" cy="61.723" r="61.723" transform="translate(953.05 153.465)" fill="#6ec81b"></circle>
      <circle cx="61.794" cy="61.794" r="61.794" transform="translate(957.611 152.309)" fill="#6ec91b"></circle>
      <circle cx="61.866" cy="61.866" r="61.866" transform="translate(962.176 151.191)" fill="#6ec91b"></circle>
      <circle cx="61.938" cy="61.938" r="61.938" transform="translate(966.745 150.113)" fill="#6ec91a"></circle>
      <circle cx="62.01" cy="62.01" r="62.01" transform="translate(971.319 149.076)" fill="#6fc91a"></circle>
      <circle cx="62.081" cy="62.081" r="62.081" transform="translate(975.899 148.08)" fill="#6fc91a"></circle>
      <circle cx="62.153" cy="62.153" r="62.153" transform="translate(980.483 147.125)" fill="#6fc91a"></circle>
      <circle cx="62.225" cy="62.225" r="62.225" transform="translate(985.071 146.211)" fill="#6fc91a"></circle>
      <circle cx="62.297" cy="62.297" r="62.297" transform="translate(989.664 145.34)" fill="#70c91a"></circle>
      <circle cx="62.369" cy="62.369" r="62.369" transform="translate(994.262 144.511)" fill="#70c919"></circle>
      <circle cx="62.44" cy="62.44" r="62.44" transform="translate(998.866 143.726)" fill="#70ca19"></circle>
      <circle cx="62.512" cy="62.512" r="62.512" transform="translate(1003.475 142.983)" fill="#70ca19"></circle>
      <circle cx="62.584" cy="62.584" r="62.584" transform="translate(1008.088 142.284)" fill="#71ca19"></circle>
      <circle cx="62.656" cy="62.656" r="62.656" transform="translate(1012.706 141.629)" fill="#71ca19"></circle>
      <circle cx="62.728" cy="62.728" r="62.728" transform="translate(1017.33 141.019)" fill="#71ca19"></circle>
      <circle cx="62.799" cy="62.799" r="62.799" transform="translate(1021.96 140.455)" fill="#71ca19"></circle>
      <circle cx="62.871" cy="62.871" r="62.871" transform="translate(1026.595 139.936)" fill="#72ca18"></circle>
      <circle cx="62.943" cy="62.943" r="62.943" transform="translate(1031.235 139.462)" fill="#72ca18"></circle>
      <circle cx="63.015" cy="63.015" r="63.015" transform="translate(1035.88 139.035)" fill="#72cb18"></circle>
      <circle cx="63.087" cy="63.087" r="63.087" transform="translate(1040.531 138.655)" fill="#72cb18"></circle>
      <circle cx="63.158" cy="63.158" r="63.158" transform="translate(1045.189 138.323)" fill="#73cb18"></circle>
      <circle cx="63.23" cy="63.23" r="63.23" transform="translate(1049.851 138.037)" fill="#73cb18"></circle>
      <circle cx="63.302" cy="63.302" r="63.302" transform="translate(1054.519 137.8)" fill="#73cb18"></circle>
      <circle cx="63.374" cy="63.374" r="63.374" transform="translate(1059.193 137.611)" fill="#73cb17"></circle>
      <circle cx="63.445" cy="63.445" r="63.445" transform="translate(1063.874 137.472)" fill="#74cb17"></circle>
      <circle cx="63.517" cy="63.517" r="63.517" transform="translate(1068.56 137.381)" fill="#74cb17"></circle>
      <circle cx="63.589" cy="63.589" r="63.589" transform="translate(1073.252 137.34)" fill="#74cc17"></circle>
      <circle cx="63.661" cy="63.661" r="63.661" transform="translate(1077.95 137.349)" fill="#75cc17"></circle>
      <circle cx="63.733" cy="63.733" r="63.733" transform="translate(1082.654 137.409)" fill="#75cc17"></circle>
      <circle cx="63.804" cy="63.804" r="63.804" transform="translate(1087.365 137.521)" fill="#75cc16"></circle>
      <circle cx="63.876" cy="63.876" r="63.876" transform="translate(1092.082 137.683)" fill="#75cc16"></circle>
      <circle cx="63.948" cy="63.948" r="63.948" transform="translate(1096.805 137.898)" fill="#76cc16"></circle>
      <circle cx="64.02" cy="64.02" r="64.02" transform="translate(1101.535 138.164)" fill="#76cc16"></circle>
      <circle cx="64.092" cy="64.092" r="64.092" transform="translate(1106.271 138.484)" fill="#76cc16"></circle>
      <circle cx="64.163" cy="64.163" r="64.163" transform="translate(1111.014 138.857)" fill="#76cd16"></circle>
      <circle cx="64.235" cy="64.235" r="64.235" transform="translate(1115.763 139.284)" fill="#77cd16"></circle>
      <circle cx="64.307" cy="64.307" r="64.307" transform="translate(1120.519 139.764)" fill="#77cd15"></circle>
      <circle cx="64.379" cy="64.379" r="64.379" transform="translate(1125.281 140.299)" fill="#77cd15"></circle>
      <circle cx="64.45" cy="64.45" r="64.45" transform="translate(1130.052 140.889)" fill="#77cd15"></circle>
      <circle cx="64.522" cy="64.522" r="64.522" transform="translate(1134.828 141.534)" fill="#78cd15"></circle>
      <circle cx="64.594" cy="64.594" r="64.594" transform="translate(1139.611 142.235)" fill="#78cd15"></circle>
      <circle cx="64.666" cy="64.666" r="64.666" transform="translate(1144.401 142.992)" fill="#78cd15"></circle>
      <circle cx="64.738" cy="64.738" r="64.738" transform="translate(1149.199 143.806)" fill="#78cd15"></circle>
      <circle cx="64.809" cy="64.809" r="64.809" transform="translate(1154.004 144.677)" fill="#79ce14"></circle>
      <circle cx="64.881" cy="64.881" r="64.881" transform="translate(1158.816 145.605)" fill="#79ce14"></circle>
      <circle cx="64.953" cy="64.953" r="64.953" transform="translate(1163.634 146.591)" fill="#79ce14"></circle>
      <circle cx="65.025" cy="65.025" r="65.025" transform="translate(1168.461 147.635)" fill="#79ce14"></circle>
      <circle cx="65.097" cy="65.097" r="65.097" transform="translate(1173.294 148.738)" fill="#7ace14"></circle>
      <circle cx="65.168" cy="65.168" r="65.168" transform="translate(1178.136 149.901)" fill="#7ace14"></circle>
      <circle cx="65.24" cy="65.24" r="65.24" transform="translate(1182.985 151.123)" fill="#7ace13"></circle>
      <circle cx="65.312" cy="65.312" r="65.312" transform="translate(1187.841 152.405)" fill="#7ace13"></circle>
      <circle cx="65.384" cy="65.384" r="65.384" transform="translate(1192.704 153.747)" fill="#7bcf13"></circle>
      <circle cx="65.455" cy="65.455" r="65.455" transform="translate(1197.577 155.151)" fill="#7bcf13"></circle>
      <circle cx="65.527" cy="65.527" r="65.527" transform="translate(1202.456 156.615)" fill="#7bcf13"></circle>
      <circle cx="65.599" cy="65.599" r="65.599" transform="translate(1207.343 158.141)" fill="#7ccf13"></circle>
      <circle cx="65.671" cy="65.671" r="65.671" transform="translate(1212.238 159.73)" fill="#7ccf13"></circle>
      <circle cx="65.743" cy="65.743" r="65.743" transform="translate(1217.141 161.38)" fill="#7ccf12"></circle>
      <circle cx="65.814" cy="65.814" r="65.814" transform="translate(1222.053 163.095)" fill="#7ccf12"></circle>
      <circle cx="65.886" cy="65.886" r="65.886" transform="translate(1226.973 164.872)" fill="#7dcf12"></circle>
      <circle cx="65.958" cy="65.958" r="65.958" transform="translate(1231.9 166.714)" fill="#7dd012"></circle>
      <circle cx="66.03" cy="66.03" r="66.03" transform="translate(1236.835 168.619)" fill="#7dd012"></circle>
      <circle cx="66.102" cy="66.102" r="66.102" transform="translate(1241.779 170.589)" fill="#7dd012"></circle>
      <circle cx="66.173" cy="66.173" r="66.173" transform="translate(1246.733 172.625)" fill="#7ed012"></circle>
      <circle cx="66.245" cy="66.245" r="66.245" transform="translate(1251.693 174.726)" fill="#7ed011"></circle>
      <circle cx="66.317" cy="66.317" r="66.317" transform="translate(1256.662 176.893)" fill="#7ed011"></circle>
      <circle cx="66.389" cy="66.389" r="66.389" transform="translate(1261.64 179.126)" fill="#7ed011"></circle>
      <circle cx="66.46" cy="66.46" r="66.46" transform="translate(1266.627 181.427)" fill="#7fd011"></circle>
      <circle cx="66.532" cy="66.532" r="66.532" transform="translate(1271.622 183.795)" fill="#7fd111"></circle>
      <circle cx="66.604" cy="66.604" r="66.604" transform="translate(1276.626 186.23)" fill="#7fd111"></circle>
      <circle cx="66.676" cy="66.676" r="66.676" transform="translate(1281.639 188.733)" fill="#7fd110"></circle>
      <circle cx="66.748" cy="66.748" r="66.748" transform="translate(1286.66 191.305)" fill="#80d110"></circle>
      <circle cx="66.819" cy="66.819" r="66.819" transform="translate(1291.691 193.947)" fill="#80d110"></circle>
    </g>
  </g>
  <mask id="line-mask_2_front">
    <path class="js-line_mask_2_2" stroke-dasharray="1800 1800" stroke-dashoffset="1800"
      d="M-9692.252-20315.6c-70.229,68.141-74.907,176.625-55.126,266.738s75.848,189.279,197.756,201.535,348.735-139.537,530.473-262.924,340.255-138.824,542.741-71.535"
      transform="translate(10109 20421)" fill="none" stroke="#fff" stroke-width="130"
      style="stroke-dashoffset: -1800px;"></path>
  </mask>
</svg>