<?xml version="1.0" encoding="UTF-8"?>
<svg id="_圖層_2" data-name="圖層 2" xmlns="http://www.w3.org/2000/svg" xmlns:xlink="http://www.w3.org/1999/xlink" viewBox="0 0 728.7 275.14">
  <defs>
    <style>
      .cls-1 {
        fill: url(#linear-gradient-2);
      }

      .cls-2 {
        fill: #fff;
      }

      .cls-3 {
        filter: url(#drop-shadow-1);
      }

      .cls-4 {
        fill: url(#linear-gradient);
      }
    </style>
    <filter id="drop-shadow-1" filterUnits="userSpaceOnUse">
      <feOffset dx="1.42" dy="1.42"/>
      <feGaussianBlur result="blur" stdDeviation="2.83"/>
      <feFlood flood-color="#1e2678" flood-opacity=".9"/>
      <feComposite in2="blur" operator="in"/>
      <feComposite in="SourceGraphic"/>
    </filter>
    <linearGradient id="linear-gradient" x1="639.94" y1="-36.44" x2="716.61" y2="146.4" gradientUnits="userSpaceOnUse">
      <stop offset="0" stop-color="#976d4a"/>
      <stop offset=".28" stop-color="#d2a770"/>
      <stop offset=".55" stop-color="#f2ca8c"/>
      <stop offset=".64" stop-color="#e3bc81"/>
      <stop offset=".8" stop-color="#be9864"/>
      <stop offset=".89" stop-color="#a58051"/>
      <stop offset="1" stop-color="#987548"/>
    </linearGradient>
    <linearGradient id="linear-gradient-2" x1="366.9" y1="36.33" x2="545.92" y2="296.94" xlink:href="#linear-gradient"/>
  </defs>
  <g id="_圖層_2-2" data-name="圖層 2">
    <g class="cls-3">
      <g>
        <g>
          <path class="cls-2" d="M83.17,259.2c-.57,4.49-1.51,7.85-2.87,10.12-2.37,3.62-5.07,5.43-8.1,5.43H11.47c-3.78-.07-6.69-1.07-8.76-2.99-1.65-1.56-2.47-4.13-2.47-6.88v-42.9c0-2.38,.8-3.17,2.36-3.17H75.07c2.26,0,3.7,1.46,3.7,3.59v25.8c0,2.29-1.24,3.66-3.7,3.66H12.07v7.82c.06,2.09,.31,3.51,.74,4.25,.77,.94,1.64,1.47,2.66,1.58h52.89c1.14-.05,2.13-.34,2.92-.83,1.01-.7,1.72-1.42,2.17-2.24,.27-.61,.74-2,.82-3.31l8.92,.08Zm-71.11-15.72h22.74v-16.69H13.1c-.71,0-1.03,.33-1.03,1.02v15.68Zm32.45-16.69v16.69h22.14c.77-.08,1.15-.44,1.15-1.12v-14.56c0-.69-.39-1.02-1.15-1.02h-22.14Z"/>
          <path class="cls-2" d="M72.47,190.28H6.03c-3.31,0-6.03,2.67-6.03,5.96v18.39H78.49v-18.39c0-3.29-2.7-5.96-6.01-5.96Zm-5.12,15.95c0,.25-.15,.4-.47,.49H12.24l-.37-.49v-7.66c-.08-.31,.05-.44,.37-.38h54.65l.47,.38v7.66Z"/>
        </g>
        <g>
          <path class="cls-2" d="M50.47,116.9v-6.04h7.02v-3.13h-7.02v-6.05h7.02v-3.21l-7.02,.04v-6.06h7.02v-4.45h7.07v4.45h6.53v6.06h-6.53v3.16h6.46v6.05h-6.46v3.13h6.57v6.04h-6.57v3.34h8.23c.93-.08,1.4-.54,1.4-1.39v-29.25h10.21v34.37c0,2.32-1.18,3.48-3.55,3.48H5.44c-2.37-.05-3.57-1.22-3.57-3.48v-34.37H12.06v29.25c.09,.92,.52,1.39,1.33,1.39h8.64v-3.34h-6.41v-6.04h6.41v-3.13h-6.43v-6.05h6.43v-3.16h-6.36v-6.06h6.36v-4.83h6.56v4.83h6.13v6.06h-6.13v3.16h6.13v6.05h-6.13v3.13h6.07v6.04h-6.07v3.34h9.88v-32.58h8.5v32.58h10.52v-3.34h-7.02Z"/>
          <polygon class="cls-2" points="66.16 160.95 63.61 165.46 86.82 165.46 86.82 173.9 0 173.9 0 165.46 23.83 165.46 20.84 160.95 31.1 160.95 34.28 165.46 53.7 165.46 56.43 160.95 66.16 160.95"/>
          <rect class="cls-2" x="1.52" y="131.21" width="83.81" height="7.32"/>
          <path class="cls-2" d="M73.39,141.92H13.46c-3.22,0-5.82,2.43-5.82,5.44v13.85H79.21v-13.85c0-3.01-2.6-5.44-5.82-5.44Zm-5.41,11.46c0,.22-.15,.35-.44,.42H19.11l-.35-.42v-3.74c-.07-.27,.08-.39,.35-.33h48.42l.44,.33v3.74Z"/>
        </g>
      </g>
      <path class="cls-2" d="M215.33,88.02c-51.4,0-93.21,41.81-93.21,93.21s41.81,93.21,93.21,93.21,93.21-41.81,93.21-93.21-41.81-93.21-93.21-93.21Zm0,161.17c-37.47,0-67.96-30.49-67.96-67.96s30.49-67.96,67.96-67.96,67.96,30.49,67.96,67.96-30.49,67.96-67.96,67.96Z"/>
      <polygon class="cls-2" points="640.22 113.6 640.22 87.86 508.97 87.86 508.97 275.14 640.22 275.14 640.22 249.4 535.64 249.4 535.64 194.83 640.22 194.83 640.22 168.16 535.64 168.16 535.64 113.6 640.22 113.6"/>
      <polygon class="cls-4" points="728.7 39.6 689.1 39.6 689.1 0 664.76 0 664.76 39.6 625.16 39.6 625.16 63.94 664.76 63.94 664.76 103.54 689.1 103.54 689.1 63.94 728.7 63.94 728.7 39.6"/>
      <g>
        <polygon class="cls-2" points="353.05 227.34 353.05 87.86 325.28 87.86 325.28 275.14 351.42 275.14 398.41 210.22 398.41 165.37 353.05 227.34"/>
        <polygon class="cls-1" points="455.14 87.86 406.01 154.99 406.01 199.72 454.15 133.2 454.15 275.14 479.1 275.14 479.1 87.86 455.14 87.86"/>
      </g>
    </g>
  </g>
</svg>