<?xml version="1.0" encoding="UTF-8"?>
<svg id="_圖層_2" data-name="圖層 2" xmlns="http://www.w3.org/2000/svg" viewBox="0 0 83.17 84.47">
  <defs>
    <style>
      .cls-1 {
        fill: #fff;
      }
    </style>
  </defs>
  <g id="_圖層_2-2" data-name="圖層 2">
    <g>
      <path class="cls-1" d="M83.17,68.92c-.57,4.49-1.51,7.85-2.87,10.12-2.37,3.62-5.07,5.43-8.1,5.43H11.47c-3.78-.07-6.69-1.07-8.76-2.99-1.65-1.56-2.47-4.13-2.47-6.88V31.7c0-2.38,.8-3.17,2.36-3.17H75.07c2.26,0,3.7,1.46,3.7,3.59v25.8c0,2.29-1.24,3.66-3.7,3.66H12.07v7.82c.06,2.09,.31,3.51,.74,4.25,.77,.94,1.64,1.47,2.66,1.58h52.89c1.14-.05,2.13-.34,2.92-.83,1.01-.7,1.72-1.42,2.17-2.24,.27-.61,.74-2,.82-3.31l8.92,.08ZM12.07,53.2h22.74v-16.69H13.1c-.71,0-1.03,.33-1.03,1.02v15.68Zm32.45-16.69v16.69h22.14c.77-.08,1.15-.44,1.15-1.12v-14.56c0-.69-.39-1.02-1.15-1.02h-22.14Z"/>
      <path class="cls-1" d="M72.47,0H6.03C2.72,0,0,2.67,0,5.96V24.35H78.49V5.96c0-3.29-2.7-5.96-6.01-5.96Zm-5.12,15.95c0,.25-.15,.4-.47,.49H12.24l-.37-.49v-7.66c-.08-.31,.05-.44,.37-.38h54.65l.47,.38v7.66Z"/>
    </g>
  </g>
</svg>